SplineFontDB: 3.0
FontName: TagatiBookItalic
FullName: Tagati Book Italic
FamilyName: Tagati Book
Weight: Book
Copyright: Created by Carsten Becker 2012. CC-BY-NC-SA. http://benung.nfshost.com.
Version: 001.000
ItalicAngle: 0
UnderlinePosition: -102
UnderlineWidth: 51
Ascent: 854
Descent: 170
sfntRevision: 0x00010000
LayerCount: 2
Layer: 0 1 "Back"  1
Layer: 1 1 "Zeichenebene"  0
XUID: [1021 345 1819181974 11408677]
FSType: 0
OS2Version: 4
OS2_WeightWidthSlopeOnly: 0
OS2_UseTypoMetrics: 1
CreationTime: 1335707501
ModificationTime: 1344280238
PfmFamily: 17
TTFWeight: 400
TTFWidth: 5
LineGap: 92
VLineGap: 0
Panose: 2 0 5 3 0 0 0 0 0 0
OS2TypoAscent: 0
OS2TypoAOffset: 1
OS2TypoDescent: 0
OS2TypoDOffset: 1
OS2TypoLinegap: 92
OS2WinAscent: -10
OS2WinAOffset: 1
OS2WinDescent: 0
OS2WinDOffset: 1
HheadAscent: 0
HheadAOffset: 1
HheadDescent: 0
HheadDOffset: 1
OS2SubXSize: 665
OS2SubYSize: 716
OS2SubXOff: 0
OS2SubYOff: 143
OS2SupXSize: 665
OS2SupYSize: 716
OS2SupXOff: 0
OS2SupYOff: 491
OS2StrikeYSize: 51
OS2StrikeYPos: 265
OS2Vendor: 'PfEd'
OS2CodePages: 00000001.00000000
OS2UnicodeRanges: a000001b.10000000.00000000.00000000
MarkAttachClasses: 1
DEI: 91125
ShortTable: cvt  2
  34
  648
EndShort
ShortTable: maxp 16
  1
  0
  116
  293
  19
  194
  19
  2
  0
  1
  1
  0
  64
  46
  2
  2
EndShort
LangName: 1033 "" "" "" "FontForge : Tagati Book Italic : 31-7-2012" "" "" "" "" "" "" "" "" "" "" "" "" "" "" "" "ANF kmynF pr dgAs vl, bhu tY!" 
GaspTable: 1 65535 2 0
Encoding: UnicodeBmp
Compacted: 1
UnicodeInterp: none
NameList: Adobe Glyph List
DisplaySize: -48
AntiAlias: 1
FitToEm: 1
WinInfo: 64 16 4
BeginChars: 65538 118

StartChar: .notdef
Encoding: 65536 -1 0
Width: 374
Flags: W
HStem: 0 34<68 272> 648 34<68 272>
VStem: 34 34<34 648> 272 34<34 648>
LayerCount: 2
Fore
SplineSet
34 0 m 1,0,-1
 34 682 l 1,1,-1
 306 682 l 1,2,-1
 306 0 l 1,3,-1
 34 0 l 1,0,-1
68 34 m 1,4,-1
 272 34 l 1,5,-1
 272 648 l 1,6,-1
 68 648 l 1,7,-1
 68 34 l 1,4,-1
EndSplineSet
EndChar

StartChar: uni0000
Encoding: 0 -1 1
AltUni2: 000000.ffffffff.0
Width: 425
Flags: W
HStem: -17 35<119 130.32 162 188 219.713 228> -11 33<221 232 238 238.087> 119 26<17.1171 24.3914 324 335.714> 170 27<-12 20 327 359> 242 105G<4 38 42 62.2 90 104.273 241.727 257 284.538 305 308 343> 243 26G<-5 67 74.3333 109 237 271.667 279 351> 321 37<132.524 149 198 213.434> 327 20G<90 104.273 157 159.143 186.857 190 241.727 257>
VStem: -15 35<170 171 172 197.781> -4 34<116.681 138> 134 26<323.897 355> 186 26<323.897 356> 324 32<121.541 132 195.328 198.2>
LayerCount: 2
Fore
SplineSet
181 18 m 1,0,-1
 188 18 l 1,1,-1
 191 -16 l 1,2,-1
 190 -16 l 1,3,-1
 186 -17 l 1,4,-1
 182 -17 l 1,5,-1
 178 -17 l 1,6,-1
 174 -17 l 1,7,-1
 173 -17 l 1,8,-1
 169 -17 l 1,9,-1
 165 -17 l 1,10,-1
 161 -17 l 1,11,-1
 160 -17 l 1,12,-1
 162 18 l 1,13,-1
 166 18 l 1,14,-1
 170 18 l 1,15,-1
 173 18 l 1,16,-1
 174 18 l 1,17,-1
 177 18 l 1,18,-1
 181 18 l 1,0,-1
111 28 m 1,19,-1
 136 21 l 1,20,-1
 129 -13 l 1,21,-1
 119 -11 l 1,22,-1
 116 -10 l 1,23,-1
 112 -9 l 1,24,-1
 109 -8 l 1,25,-1
 102 -6 l 1,26,-1
 99 -5 l 1,27,-1
 111 28 l 1,19,-1
214 22 m 1,28,-1
 238 29 l 1,29,-1
 251 -3 l 1,30,-1
 245 -6 l 1,31,-1
 238 -8 l 1,32,-1
 235 -9 l 1,33,-1
 232 -10 l 1,34,-1
 228 -11 l 1,35,-1
 221 -12 l 1,36,-1
 214 22 l 1,28,-1
69 54 m 1,37,-1
 89 39 l 1,38,-1
 70 9 l 1,39,-1
 68 11 l 1,40,-1
 65 13 l 1,41,-1
 63 14 l 1,42,-1
 60 16 l 1,43,-1
 51 23 l 1,44,-1
 46 27 l 1,45,-1
 45 29 l 1,46,-1
 69 54 l 1,37,-1
261 40 m 1,47,-1
 277 53 l 1,48,-1
 280 56 l 1,49,-1
 304 31 l 1,50,-1
 301 27 l 1,51,-1
 290 18 l 1,52,-1
 287 16 l 1,53,-1
 285 14 l 1,54,-1
 282 13 l 1,55,-1
 280 11 l 1,56,-1
 261 40 l 1,47,-1
39 95 m 1,57,-1
 52 73 l 1,58,-1
 24 53 l 1,59,-1
 18 60 l 1,60,-1
 13 69 l 1,61,-1
 11 74 l 1,62,-1
 8 78 l 1,63,-1
 8 79 l 1,64,-1
 39 95 l 1,57,-1
297 75 m 1,65,-1
 308 94 l 1,66,-1
 309 98 l 1,67,-1
 341 82 l 1,68,-1
 339 78 l 1,69,-1
 337 74 l 1,70,-1
 334 70 l 1,71,-1
 329 61 l 1,72,-1
 326 56 l 1,73,-1
 325 55 l 1,74,-1
 297 75 l 1,65,-1
23 145 m 1,75,-1
 30 119 l 1,76,-1
 -4 108 l 1,77,-1
 -5 112 l 1,78,-1
 -6 116 l 1,79,-1
 -7 120 l 1,80,-1
 -8 124 l 1,81,-1
 -9 128 l 1,82,-1
 -11 135 l 1,83,-1
 -11 138 l 1,84,-1
 23 145 l 1,75,-1
318 122 m 1,85,-1
 324 142 l 1,86,-1
 324 147 l 1,87,-1
 359 141 l 1,88,-1
 357 132 l 1,89,-1
 356 128 l 1,90,-1
 356 124 l 1,91,-1
 355 120 l 1,92,-1
 353 117 l 1,93,-1
 352 113 l 1,94,-1
 352 111 l 1,95,-1
 318 122 l 1,85,-1
-14 184 m 1,96,-1
 -12 203 l 1,97,-1
 23 197 l 1,98,-1
 20 173 l 1,99,-1
 20 172 l 1,100,-1
 20 171 l 1,101,-1
 20 170 l 1,102,-1
 10 170 l 1,103,-1
 -15 169 l 1,104,-1
 -15 171 l 1,105,-1
 2 172 l 1,106,-1
 -15 172 l 1,107,-1
 -15 174 l 1,108,-1
 -15 176 l 1,109,-1
 -15 177 l 1,110,-1
 -15 180 l 1,111,-1
 -14 184 l 1,96,-1
327 173 m 1,112,-1
 324 198 l 1,113,-1
 359 204 l 1,114,-1
 361 184 l 1,115,-1
 362 180 l 1,116,-1
 362 177 l 1,117,-1
 362 176 l 1,118,-1
 362 174 l 1,119,-1
 362 173 l 1,120,-1
 327 172 l 1,121,-1
 327 173 l 1,112,-1
38 246 m 1,122,-1
 29 222 l 1,123,-1
 -5 233 l 1,124,-1
 -4 235 l 1,125,-1
 -1 243 l 1,126,-1
 0 247 l 1,127,-1
 2 252 l 1,128,-1
 4 256 l 1,129,-1
 7 262 l 1,130,-1
 38 246 l 1,122,-1
318 223 m 1,131,-1
 308 247 l 1,132,-1
 340 263 l 1,133,-1
 343 256 l 1,134,-1
 345 252 l 1,135,-1
 346 248 l 1,136,-1
 350 239 l 1,137,-1
 351 235 l 1,138,-1
 351 234 l 1,139,-1
 318 223 l 1,131,-1
67 288 m 1,140,-1
 51 269 l 1,141,-1
 22 289 l 1,142,-1
 27 295 l 1,143,-1
 34 304 l 1,144,-1
 38 308 l 1,145,-1
 42 312 l 1,146,-1
 43 313 l 1,147,-1
 67 288 l 1,140,-1
295 269 m 1,148,-1
 279 288 l 1,149,-1
 303 314 l 1,150,-1
 305 312 l 1,151,-1
 309 308 l 1,152,-1
 312 304 l 1,153,-1
 319 296 l 1,154,-1
 324 290 l 1,155,-1
 295 269 l 1,148,-1
109 314 m 1,156,-1
 87 303 l 1,157,-1
 68 333 l 1,158,-1
 70 334 l 1,159,-1
 78 338 l 1,160,-1
 81 340 l 1,161,-1
 87 343 l 1,162,-1
 90 344 l 1,163,-1
 96 347 l 1,164,-1
 97 347 l 1,165,-1
 109 314 l 1,156,-1
259 303 m 1,166,-1
 237 314 l 1,167,-1
 249 347 l 1,168,-1
 257 344 l 1,169,-1
 260 343 l 1,170,-1
 266 340 l 1,171,-1
 269 338 l 1,172,-1
 271 337 l 1,173,-1
 274 335 l 1,174,-1
 278 333 l 1,175,-1
 259 303 l 1,166,-1
157 359 m 1,176,-1
 158 360 l 1,177,-1
 160 325 l 1,178,-1
 134 321 l 1,179,-1
 127 355 l 1,180,-1
 137 357 l 1,181,-1
 141 358 l 1,182,-1
 149 359 l 1,183,-1
 153 359 l 1,184,-1
 157 359 l 1,176,-1
212 321 m 1,185,-1
 186 325 l 1,186,-1
 188 360 l 1,187,-1
 190 359 l 1,188,-1
 194 359 l 1,189,-1
 198 359 l 1,190,-1
 206 358 l 1,191,-1
 210 357 l 1,192,-1
 219 356 l 1,193,-1
 212 321 l 1,185,-1
EndSplineSet
EndChar

StartChar: exclam
Encoding: 33 33 4
Width: 380
Flags: W
HStem: -14 21G<-32 -9> -14 21G<-32 -9> 336 20G<38.5 39 94.5 117.5>
VStem: -39 78<-6.44971 144> 47 77<187.626 348.768>
LayerCount: 2
Fore
SplineSet
39 185 m 1,0,1
 47 193 47 193 47 220 c 2,2,-1
 47 332 l 2,3,4
 47 336 47 336 56 342 c 0,5,6
 78 356 78 356 111 356 c 0,7,8
 124 356 124 356 124 352 c 2,9,-1
 124 226 l 2,10,11
 124 219 124 219 122 213 c 128,-1,12
 120 207 120 207 115 201.5 c 128,-1,13
 110 196 110 196 106.5 192 c 128,-1,14
 103 188 103 188 95 183.5 c 128,-1,15
 87 179 87 179 83.5 177 c 128,-1,16
 80 175 80 175 71 171 c 128,-1,17
 62 167 62 167 61 166 c 0,18,19
 60 166 60 166 58 164 c 128,-1,20
 56 162 56 162 55 162 c 0,21,22
 46 162 46 162 39 141 c 1,23,-1
 39 144 l 1,24,-1
 39 122 l 1,25,-1
 39 10 l 2,26,27
 39 7 39 7 29 0 c 0,28,29
 7 -14 7 -14 -25 -14 c 0,30,31
 -39 -14 -39 -14 -39 -10 c 2,32,-1
 -39 115 l 2,33,34
 -39 123 -39 123 -35 131 c 128,-1,35
 -31 139 -31 139 -27 144 c 128,-1,36
 -23 149 -23 149 -13 155.5 c 128,-1,37
 -3 162 -3 162 1 164.5 c 128,-1,38
 5 167 5 167 17 173 c 128,-1,39
 29 179 29 179 30 179 c 0,40,41
 32 180 32 180 35 182.5 c 128,-1,42
 38 185 38 185 39 186 c 1,43,-1
 39 185 l 1,0,1
EndSplineSet
EndChar

StartChar: ampersand
Encoding: 38 38 6
Width: 338
Flags: W
HStem: -14 30<5.24976 29.6133> 328 29<65 103 104 105 108 122.874>
VStem: -81 77<23.4404 316.622> 31 24<23.251 323.969> 132 78<-347.562 317.653>
LayerCount: 2
Fore
SplineSet
-105 327 m 0,0,1
 -107 327 -107 327 -109.5 328 c 128,-1,2
 -112 329 -112 329 -114 329 c 256,3,4
 -116 329 -116 329 -117 328 c 1,5,6
 -123 329 -123 329 -124 332 c 0,7,8
 -126 338 -126 338 -112.5 344.5 c 128,-1,9
 -99 351 -99 351 -83.5 354 c 128,-1,10
 -68 357 -68 357 -60 357 c 0,11,12
 -22 357 -22 357 -9 333 c 0,13,14
 -4 323 -4 323 -4 294 c 2,15,-1
 -4 63 l 2,16,17
 -4 37 -4 37 8 23 c 1,18,19
 8 24 8 24 7 24 c 128,-1,20
 6 24 6 24 5 25 c 1,21,22
 13 17 13 17 20 16 c 1,23,-1
 21 16 l 1,24,25
 27 22 27 22 30 32 c 1,26,-1
 30 36 l 2,27,28
 30 37 30 37 30.5 39.5 c 128,-1,29
 31 42 31 42 31 43 c 2,30,-1
 31 299 l 2,31,32
 31 320 31 320 44.5 334.5 c 128,-1,33
 58 349 58 349 78 351 c 1,34,35
 95 357 95 357 111 357 c 2,36,-1
 153 357 l 2,37,38
 197 357 197 357 207 326 c 0,39,40
 210 318 210 318 210 295 c 2,41,-1
 210 -331 l 2,42,43
 210 -334 210 -334 200 -341 c 0,44,45
 176 -356 176 -356 146 -356 c 0,46,47
 132 -356 132 -356 132 -352 c 2,48,-1
 132 282 l 2,49,50
 132 307 132 307 123 318 c 0,51,52
 119 322 119 322 109 327 c 1,53,-1
 108 327 l 1,54,55
 105 328 105 328 105 328 c 2,56,57
 104 328 104 328 104 328 c 1,58,-1
 102 329 l 1,59,-1
 102 328 l 1,60,-1
 103 328 l 1,61,-1
 65 328 l 1,62,-1
 65 327 l 1,63,-1
 62 324 l 1,64,-1
 61 322 l 2,65,66
 59 320 59 320 56 311 c 1,67,-1
 56 310 l 1,68,-1
 56 309 l 1,69,70
 55 308 55 308 55 307 c 2,71,-1
 55 44 l 2,72,73
 55 22 55 22 38 6 c 0,74,75
 35 3 35 3 28 -1 c 0,76,77
 18 -7 18 -7 7 -8 c 1,78,79
 -14 -14 -14 -14 -25 -14 c 0,80,81
 -62 -14 -62 -14 -74 8 c 0,82,83
 -81 20 -81 20 -81 47 c 2,84,-1
 -81 279 l 2,85,86
 -81 305 -81 305 -90 317 c 0,87,88
 -95 322 -95 322 -105 327 c 0,0,1
-114 328 m 1,89,90
 -116 328 -116 328 -117 328 c 1,91,92
 -116 328 -116 328 -114 328 c 1,89,90
-114 328 m 2,93,94
 -113 328 -113 328 -111 328 c 2,95,96
 -111 328 -111 328 -112.5 328 c 128,-1,97
 -114 328 -114 328 -114 328 c 2,93,94
EndSplineSet
EndChar

StartChar: quotesingle
Encoding: 39 39 7
Width: 167
Flags: W
HStem: 55 61<-28.7168 28.7168> 226 61<-28.7168 28.7168>
VStem: -39 78<62.2512 108.749 233.251 279.749>
LayerCount: 2
Fore
SplineSet
-3 55 m 0,0,1
 -20 55 -20 55 -29 62 c 0,2,3
 -41 70 -41 70 -39 83 c 1,4,5
 -38 97 -38 97 -24.5 106.5 c 128,-1,6
 -11 116 -11 116 3 116 c 0,7,8
 20 116 20 116 29 109 c 0,9,10
 41 101 41 101 39 88 c 1,11,12
 38 74 38 74 24.5 64.5 c 128,-1,13
 11 55 11 55 -3 55 c 0,0,1
-3 226 m 0,14,15
 -20 226 -20 226 -29 233 c 0,16,17
 -41 241 -41 241 -39 254 c 1,18,19
 -38 268 -38 268 -24.5 277.5 c 128,-1,20
 -11 287 -11 287 3 287 c 0,21,22
 20 287 20 287 29 280 c 0,23,24
 41 272 41 272 39 259 c 1,25,26
 38 245 38 245 24.5 235.5 c 128,-1,27
 11 226 11 226 -3 226 c 0,14,15
EndSplineSet
EndChar

StartChar: parenleft
Encoding: 40 40 8
Width: 248
Flags: W
HStem: -14 28<-71.8 41.2961> -14 14<-80.5508 -57.542> 328 28<-71.8 19 21 35.7773> 328 14<-80.5508 -57.542>
VStem: 43 77<25.4387 323.65>
LayerCount: 2
Fore
SplineSet
21 327 m 1,0,-1
 22 326 l 1,1,-1
 21 327 l 1,0,-1
-68 328 m 2,2,3
 -80 328 -80 328 -81 332 c 0,4,5
 -82 337 -82 337 -72 342 c 0,6,7
 -47 356 -47 356 -17 356 c 2,8,-1
 38 356 l 2,9,10
 90 356 90 356 103 347 c 0,11,12
 120 334 120 334 120 308 c 2,13,-1
 120 58 l 2,14,15
 120 39 120 39 113 25 c 1,16,17
 101 6 101 6 72 -4 c 128,-1,18
 43 -14 43 -14 11 -14 c 2,19,-1
 -68 -14 l 2,20,21
 -80 -14 -80 -14 -81 -10 c 0,22,23
 -82 -5 -82 -5 -72 0 c 0,24,25
 -47 14 -47 14 -17 14 c 2,26,-1
 40 14 l 1,27,28
 41 15 41 15 41 19 c 0,29,30
 43 30 43 30 43 53 c 2,31,-1
 43 277 l 2,32,33
 43 313 43 313 27 324 c 0,34,35
 26 324 26 324 24 325 c 128,-1,36
 22 326 22 326 21 326 c 2,37,-1
 19 327 l 2,38,39
 18 327 18 327 17 327.5 c 128,-1,40
 16 328 16 328 15 328 c 2,41,-1
 -68 328 l 2,2,3
EndSplineSet
EndChar

StartChar: parenright
Encoding: 41 41 9
Width: 291
Flags: W
HStem: -19 28<45.9126 152.77> -5 14<138.621 162.169> 323 28<39.9551 152.77> 337 14<138.621 162.169>
VStem: -39 78<10.064 322.105>
LayerCount: 2
Fore
SplineSet
39 62 m 2,0,1
 39 12 39 12 65 9 c 1,2,-1
 149 9 l 2,3,4
 162 9 162 9 163 5 c 128,-1,5
 164 1 164 1 153 -5 c 0,6,7
 128 -19 128 -19 99 -19 c 2,8,-1
 16 -19 l 2,9,10
 -20 -19 -20 -19 -32 1 c 0,11,12
 -39 13 -39 13 -39 47 c 2,13,-1
 -39 271 l 2,14,15
 -39 305 -39 305 -29 317 c 0,16,17
 1 351 1 351 81 351 c 2,18,-1
 149 351 l 2,19,20
 162 351 162 351 163 347 c 128,-1,21
 164 343 164 343 153 337 c 0,22,23
 128 323 128 323 99 323 c 2,24,-1
 42 323 l 1,25,26
 39 316 39 316 39 286 c 2,27,-1
 39 62 l 2,0,1
EndSplineSet
EndChar

StartChar: comma
Encoding: 44 44 11
Width: 342
Flags: W
LayerCount: 2
Fore
SplineSet
0 0 m 0,0,-1
EndSplineSet
EndChar

StartChar: period
Encoding: 46 46 13
Width: 423
Flags: W
HStem: -14 21G<-32 -20 96.5 108> -14 21G<-32 -20 96.5 108> 336 20G<20 32 149 160.5> 336 20G<20 32 149 160.5>
VStem: -39 78<-6.30859 348.309> 90 77<-6.30859 348.117>
LayerCount: 2
Fore
SplineSet
-39 332 m 2,0,1
 -39 335 -39 335 -29 342 c 128,-1,2
 -19 349 -19 349 -3 352 c 0,3,4
 15 356 15 356 25 356 c 0,5,6
 39 356 39 356 39 352 c 2,7,-1
 39 310 l 1,8,-1
 39 126 l 1,9,-1
 39 10 l 2,10,11
 39 7 39 7 29 0 c 128,-1,12
 19 -7 19 -7 3 -10 c 0,13,14
 -15 -14 -15 -14 -25 -14 c 0,15,16
 -39 -14 -39 -14 -39 -10 c 2,17,-1
 -39 32 l 1,18,-1
 -39 216 l 1,19,-1
 -39 332 l 2,0,1
90 332 m 2,20,21
 90 336 90 336 99 342 c 0,22,23
 109 348 109 348 126 352 c 0,24,25
 144 356 144 356 154 356 c 0,26,27
 167 356 167 356 167 352 c 2,28,-1
 167 310 l 1,29,-1
 167 126 l 1,30,-1
 167 10 l 2,31,32
 167 7 167 7 157 0 c 128,-1,33
 147 -7 147 -7 131 -10 c 0,34,35
 113 -14 113 -14 103 -14 c 0,36,37
 90 -14 90 -14 90 -10 c 2,38,-1
 90 32 l 1,39,-1
 90 216 l 1,40,-1
 90 332 l 2,20,21
EndSplineSet
EndChar

StartChar: zero
Encoding: 48 48 15
Width: 509
Flags: W
HStem: -14 21G<-43.5 -20> -14 21G<-43.5 -20> 157 28<142.23 302.062> 157 14<132.831 156.379> 328 28<57.6609 294.088> 328 16.5<-123.644 -94.03>
VStem: -81 77<16.3191 323.712> 31 24<15.158 306 308 327.518> 303 78<185.373 326.432>
LayerCount: 2
Fore
SplineSet
55 43 m 2,0,1
 55 22 55 22 40 7.5 c 128,-1,2
 25 -7 25 -7 6 -9 c 1,3,-1
 5 -10 l 2,4,5
 4 -10 4 -10 3 -10 c 0,6,7
 -15 -14 -15 -14 -25 -14 c 0,8,9
 -62 -14 -62 -14 -74 8 c 0,10,11
 -81 20 -81 20 -81 46 c 2,12,-1
 -81 278 l 2,13,14
 -81 315 -81 315 -100 324 c 0,15,16
 -101 324 -101 324 -102.5 325 c 128,-1,17
 -104 326 -104 326 -105 326 c 2,18,-1
 -106 326 l 1,19,-1
 -113 328 l 1,20,21
 -123 328 -123 328 -124 332 c 0,22,23
 -126 339 -126 339 -112.5 344.5 c 128,-1,24
 -99 350 -99 350 -84 353 c 128,-1,25
 -69 356 -69 356 -60 356 c 0,26,27
 -22 356 -22 356 -9 332 c 0,28,29
 -4 322 -4 322 -4 293 c 2,30,-1
 -4 63 l 2,31,32
 -4 26 -4 26 17 16 c 0,33,34
 18 16 18 16 18 15.5 c 128,-1,35
 18 15 18 15 19 15 c 2,36,-1
 21 15 l 1,37,38
 26 20 26 20 30 32 c 1,39,-1
 30 36 l 2,40,41
 30 37 30 37 30.5 39 c 128,-1,42
 31 41 31 41 31 42 c 2,43,-1
 31 299 l 2,44,45
 31 328 31 328 54 342 c 128,-1,46
 77 356 77 356 111 356 c 2,47,-1
 327 356 l 2,48,49
 350 356 350 356 365.5 343.5 c 128,-1,50
 381 331 381 331 381 309 c 2,51,-1
 381 230 l 2,52,53
 381 192 381 192 348 174.5 c 128,-1,54
 315 157 315 157 270 157 c 2,55,-1
 146 157 l 2,56,57
 133 157 133 157 132 161 c 128,-1,58
 131 165 131 165 142 171 c 0,59,60
 167 185 167 185 196 185 c 2,61,-1
 299 185 l 1,62,63
 303 197 303 197 303 201 c 2,64,-1
 303 268 l 2,65,66
 303 319 303 319 279 327 c 1,67,-1
 276 327 l 1,68,-1
 271 328 l 1,69,-1
 67 328 l 1,70,71
 61 325 61 325 56 311 c 1,72,-1
 56 309 l 2,73,74
 56 308 l 1,75,-1
 55 306 l 1,76,-1
 55 43 l 2,0,1
EndSplineSet
EndChar

StartChar: three
Encoding: 51 51 18
Width: 509
Flags: W
HStem: -14 29<3.0188 5 235 300.997> -11 68<303.625 359.73> 242 29<214 302.145> 328 28<57.3652 295.801> 328 16.5<-123.644 -94.03>
VStem: -81 77<16.3191 323.712> 31 24<15.158 306 308 327.706> 132 78<15.9763 226.526 237.031 241.797> 303 78<14.5332 48.5625>
LayerCount: 2
Fore
SplineSet
55 43 m 2,0,1
 55 22 55 22 40 7.5 c 128,-1,2
 25 -7 25 -7 6 -9 c 1,3,-1
 5 -10 l 2,4,5
 4 -10 4 -10 3 -10 c 0,6,7
 -15 -14 -15 -14 -25 -14 c 0,8,9
 -62 -14 -62 -14 -74 8 c 0,10,11
 -81 20 -81 20 -81 47 c 2,12,-1
 -81 278 l 2,13,14
 -81 315 -81 315 -100 324 c 0,15,16
 -101 324 -101 324 -102.5 325 c 128,-1,17
 -104 326 -104 326 -105 326 c 2,18,-1
 -106 326 l 1,19,-1
 -113 328 l 1,20,21
 -123 328 -123 328 -124 332 c 0,22,23
 -126 339 -126 339 -112.5 344.5 c 128,-1,24
 -99 350 -99 350 -84 353 c 128,-1,25
 -69 356 -69 356 -60 356 c 0,26,27
 -22 356 -22 356 -9 332 c 0,28,29
 -4 322 -4 322 -4 293 c 2,30,-1
 -4 63 l 2,31,32
 -4 26 -4 26 17 16 c 0,33,34
 18 16 18 16 18 15.5 c 128,-1,35
 18 15 18 15 19 15 c 2,36,-1
 21 15 l 1,37,38
 26 20 26 20 30 32 c 1,39,-1
 30 36 l 2,40,41
 30 37 30 37 30.5 39 c 128,-1,42
 31 41 31 41 31 42 c 2,43,-1
 31 299 l 2,44,45
 31 320 31 320 44.5 333.5 c 128,-1,46
 58 347 58 347 77 350 c 1,47,48
 94 356 94 356 111 356 c 2,49,-1
 300 356 l 2,50,51
 303 356 303 356 313 356.5 c 128,-1,52
 323 357 323 357 328 356.5 c 128,-1,53
 333 356 333 356 341.5 355 c 128,-1,54
 350 354 350 354 355.5 351.5 c 128,-1,55
 361 349 361 349 366 344 c 0,56,57
 388 321 388 321 377 291 c 0,58,59
 367 261 367 261 313 248 c 0,60,61
 285 242 285 242 272 242 c 2,62,-1
 214 242 l 1,63,64
 214 241 214 241 213 239.5 c 128,-1,65
 212 238 212 238 211 237 c 0,66,67
 210 232 210 232 210 207 c 2,68,-1
 210 68 l 2,69,70
 210 27 210 27 232 16 c 1,71,-1
 235 15 l 2,72,73
 236 15 236 15 237 14.5 c 128,-1,74
 238 14 238 14 239 14 c 2,75,-1
 299 14 l 1,76,77
 303 22 303 22 303 32 c 0,78,79
 303 37 303 37 313 42 c 1,80,81
 337 57 337 57 367 57 c 0,82,83
 381 57 381 57 381 53 c 0,84,85
 381 4 381 4 301 -11 c 0,86,87
 288 -14 288 -14 262 -14 c 2,88,-1
 225 -14 l 2,89,90
 165 -14 165 -14 149 -3 c 0,91,92
 132 8 132 8 132 34 c 2,93,-1
 132 177 l 2,94,95
 132 218 132 218 137 227 c 0,96,97
 150 254 150 254 211 267 c 0,98,99
 228 271 228 271 249 271 c 2,100,-1
 299 271 l 1,101,102
 305 287 305 287 300 304.5 c 128,-1,103
 295 322 295 322 279 327 c 1,104,-1
 276 327 l 1,105,-1
 271 328 l 1,106,-1
 67 328 l 1,107,108
 61 325 61 325 56 311 c 1,109,-1
 56 309 l 2,110,111
 56 308 l 1,112,-1
 55 306 l 1,113,-1
 55 43 l 2,0,1
EndSplineSet
EndChar

StartChar: four
Encoding: 52 52 19
Width: 509
Flags: W
HStem: 157 28<199.34 301.94> 328 28<39.4885 138.901 280 293.812>
VStem: -39 78<293.55 327.22> 47 77<-6.76758 82.1523> 303 78<185.255 229 269 316.65>
LayerCount: 2
Fore
SplineSet
228 157 m 1,0,-1
 230 157 l 2,1,2
 298 157 298 157 329 168 c 0,3,4
 346 174 346 174 355.5 180 c 128,-1,5
 365 186 365 186 373 198.5 c 128,-1,6
 381 211 381 211 381 229 c 2,7,-1
 381 308 l 2,8,9
 381 314 381 314 377 326 c 0,10,11
 375 333 375 333 371 338.5 c 128,-1,12
 367 344 367 344 360.5 347.5 c 128,-1,13
 354 351 354 351 349.5 353 c 128,-1,14
 345 355 345 355 335 355.5 c 128,-1,15
 325 356 325 356 320.5 356 c 128,-1,16
 316 356 316 356 303.5 356 c 128,-1,17
 291 356 291 356 286 356 c 2,18,-1
 68 356 l 2,19,20
 63 356 63 356 53 354.5 c 128,-1,21
 43 353 43 353 42 353 c 0,22,23
 -39 339 -39 339 -39 290 c 0,24,25
 -39 286 -39 286 -25 286 c 0,26,27
 7 286 7 286 29 300 c 1,28,29
 39 305 39 305 39 310 c 0,30,31
 39 322 39 322 42 328 c 1,32,-1
 272 328 l 1,33,34
 276 327 276 327 278 327 c 2,35,-1
 280 327 l 1,36,37
 288 323 288 323 294 317 c 0,38,39
 303 306 303 306 303 269 c 2,40,-1
 303 223 l 2,41,42
 303 193 303 193 299 185 c 1,43,44
 234 185 234 185 175 163 c 0,45,46
 115 140 115 140 85 105 c 0,47,48
 47 60 47 60 47 -10 c 0,49,50
 47 -14 47 -14 60 -14 c 0,51,52
 93 -14 93 -14 115 0 c 0,53,54
 124 6 124 6 124 10 c 0,55,56
 124 65 124 65 149 104 c 0,57,58
 155 114 155 114 167 126 c 128,-1,59
 179 138 179 138 186 142 c 0,60,61
 206 153 206 153 228 157 c 1,0,-1
EndSplineSet
EndChar

StartChar: five
Encoding: 53 53 20
Width: 509
Flags: W
HStem: -14 28<45.3721 131.008> 300 20G<-49.5 -44.5> 317 21G<-53 -48> 328 28<211.671 295.969> 328 16.5<-80.6437 -51.1353>
VStem: -39 78<14.9531 319.621> 132 78<22.3838 329.528> 303 78<-6.44971 326.582>
CounterMasks: 1 07
LayerCount: 2
Fore
SplineSet
215 330 m 1,0,1
 210 321 210 321 210 306 c 2,2,-1
 210 82 l 2,3,4
 210 34 210 34 200 22 c 0,5,6
 187 6 187 6 158.5 -4 c 128,-1,7
 130 -14 130 -14 102 -14 c 2,8,-1
 41 -14 l 2,9,10
 39 -14 39 -14 31 -14 c 128,-1,11
 23 -14 23 -14 19.5 -14 c 128,-1,12
 16 -14 16 -14 9 -13.5 c 128,-1,13
 2 -13 2 -13 -1.5 -12 c 128,-1,14
 -5 -11 -5 -11 -10.5 -9 c 128,-1,15
 -16 -7 -16 -7 -20 -3.5 c 128,-1,16
 -24 0 -24 0 -28 4 c 0,17,18
 -39 17 -39 17 -39 42 c 2,19,-1
 -39 281 l 2,20,21
 -39 308 -39 308 -50 320 c 1,22,23
 -49 319 -49 319 -48.5 318 c 128,-1,24
 -48 317 -48 317 -48 317 c 1,25,26
 -58 327 -58 327 -63 327 c 2,27,-1
 -64 327 l 2,28,29
 -65 327 -65 327 -66 328 c 1,30,-1
 -68 328 l 2,31,32
 -80 328 -80 328 -81 332 c 0,33,34
 -83 339 -83 339 -69.5 344.5 c 128,-1,35
 -56 350 -56 350 -41 353 c 128,-1,36
 -26 356 -26 356 -17 356 c 0,37,38
 39 356 39 356 39 300 c 2,39,-1
 39 61 l 2,40,41
 39 15 39 15 68 14 c 1,42,-1
 128 14 l 1,43,44
 132 20 132 20 132 51 c 2,45,-1
 132 271 l 2,46,47
 132 316 132 316 153 331 c 0,48,49
 189 356 189 356 276 356 c 2,50,-1
 313 356 l 2,51,52
 367 356 367 356 378 327 c 0,53,54
 381 319 381 319 381 293 c 2,55,-1
 381 10 l 2,56,57
 381 7 381 7 371 0 c 0,58,59
 349 -14 349 -14 317 -14 c 0,60,61
 303 -14 303 -14 303 -10 c 2,62,-1
 303 280 l 2,63,64
 303 328 303 328 271 328 c 1,65,-1
 215 330 l 1,0,1
276 327 m 0,66,-1
278 326 m 2,67,68
 278 326 278 326 279 326 c 2,69,70
 279 326 279 326 278 326 c 2,67,68
64 15 m 0,71,-1
EndSplineSet
EndChar

StartChar: seven
Encoding: 55 55 22
Width: 509
Flags: W
HStem: -9 24<274.032 282> 156 29<191 196 198 241.562> 328 28<53.4502 270.25>
VStem: -39 78<-6.44971 306.877> 90 77<-6.44971 148.562> 245 23<16.9609 38 40 153.606> 303 78<22.1252 224 225 301.274>
LayerCount: 2
Fore
SplineSet
380 32 m 0,0,1
 380 -14 380 -14 325 -14 c 0,2,3
 311 -14 311 -14 293 -9 c 1,4,5
 272 -8 272 -8 258.5 5.5 c 128,-1,6
 245 19 245 19 245 42 c 2,7,-1
 245 124 l 2,8,9
 245 148 245 148 232 155 c 1,10,-1
 231 156 l 2,11,12
 230 157 230 157 229 157 c 2,13,-1
 198 157 l 1,14,-1
 196 156 l 2,15,16
 194 156 194 156 193 156 c 2,17,-1
 191 156 l 1,18,-1
 190 155 l 1,19,20
 180 150 180 150 179 149 c 0,21,22
 167 135 167 135 167 118 c 2,23,-1
 167 10 l 2,24,25
 167 7 167 7 157 0 c 0,26,27
 135 -14 135 -14 103 -14 c 0,28,29
 90 -14 90 -14 90 -10 c 2,30,-1
 90 109 l 2,31,32
 90 112 90 112 89.5 121 c 128,-1,33
 89 130 89 130 89.5 134.5 c 128,-1,34
 90 139 90 139 91 146 c 128,-1,35
 92 153 92 153 94.5 158.5 c 128,-1,36
 97 164 97 164 101 169 c 0,37,38
 115 185 115 185 151 185 c 2,39,-1
 188 185 l 2,40,41
 203 185 203 185 221 180 c 1,42,43
 268 174 268 174 268 125 c 2,44,-1
 268 41 l 2,45,46
 268 40 268 40 268 40 c 1,47,-1
 269 38 l 1,48,49
 269 34 269 34 271.5 30 c 128,-1,50
 274 26 274 26 274 23 c 1,51,52
 275 22 275 22 277.5 19 c 128,-1,53
 280 16 280 16 281 15 c 0,54,55
 282 15 282 15 282 16 c 0,56,57
 284 17 284 17 287 19 c 128,-1,58
 290 21 290 21 292 22 c 0,59,60
 296 26 296 26 298.5 31 c 128,-1,61
 301 36 301 36 302 42.5 c 128,-1,62
 303 49 303 49 303 52.5 c 128,-1,63
 303 56 303 56 303 64.5 c 128,-1,64
 303 73 303 73 303 75 c 2,65,-1
 303 224 l 1,66,-1
 304 225 l 1,67,68
 304 279 304 279 285 302 c 1,69,70
 272 316 272 316 252 323 c 1,71,-1
 250 324 l 1,72,-1
 248 325 l 2,73,74
 246 326 246 326 241 326 c 1,75,76
 233 328 233 328 230 328 c 2,77,-1
 64 328 l 1,78,79
 39 303 39 303 39 268 c 2,80,-1
 39 10 l 2,81,82
 39 7 39 7 29 0 c 0,83,84
 7 -14 7 -14 -25 -14 c 0,85,86
 -39 -14 -39 -14 -39 -10 c 2,87,-1
 -39 239 l 2,88,89
 -39 319 -39 319 43 344 c 0,90,91
 81 355 81 355 107 356 c 1,92,-1
 219 356 l 2,93,94
 224 356 224 356 248 356.5 c 128,-1,95
 272 357 272 357 279.5 356.5 c 128,-1,96
 287 356 287 356 303.5 354 c 128,-1,97
 320 352 320 352 330 347.5 c 128,-1,98
 340 343 340 343 350 335 c 0,99,100
 371 317 371 317 377 293 c 0,101,102
 381 278 381 278 381 233 c 2,103,-1
 381 95 l 2,104,105
 381 84 381 84 380.5 63 c 128,-1,106
 380 42 380 42 380 32 c 0,0,1
EndSplineSet
EndChar

StartChar: eight
Encoding: 56 56 23
Width: 551
Flags: W
HStem: -14 28<46.6018 301.542> 328 16<-80.6025 -51.6455> 336 20G<390 416>
VStem: -39 78<16.5781 326.114> 303 78<14.5396 331.649>
LayerCount: 2
Fore
SplineSet
-39 274 m 2,0,1
 -39 326 -39 326 -69 328 c 0,2,3
 -80 328 -80 328 -81 332 c 0,4,5
 -83 338 -83 338 -70 344 c 128,-1,6
 -57 350 -57 350 -41 353 c 128,-1,7
 -25 356 -25 356 -17 356 c 0,8,9
 8 356 8 356 23.5 344 c 128,-1,10
 39 332 39 332 39 308 c 2,11,-1
 39 57 l 2,12,13
 39 17 39 17 71 14 c 1,14,-1
 97 14 l 1,15,-1
 299 14 l 1,16,17
 303 22 303 22 303 44 c 2,18,-1
 303 221 l 1,19,-1
 303 289 l 2,20,21
 303 322 303 322 334 337 c 1,22,23
 370 356 370 356 410 356 c 0,24,25
 422 356 422 356 423 352 c 0,26,27
 425 341 425 341 388 332 c 1,28,29
 381 321 381 321 381 281 c 2,30,-1
 381 55 l 2,31,32
 381 5 381 5 299 -11 c 0,33,34
 284 -14 284 -14 268 -14 c 2,35,-1
 48 -14 l 2,36,37
 3 -14 3 -14 -9 -10 c 0,38,39
 -35 -1 -35 -1 -38 24 c 0,40,41
 -39 32 -39 32 -39 49 c 2,42,-1
 -39 274 l 2,0,1
EndSplineSet
EndChar

StartChar: nine
Encoding: 57 57 24
Width: 551
Flags: W
HStem: -14 28<48.2188 216.494> 157 28<175.767 192> 300 20G<-49.5 -44.5> 317 21G<-53 -48> 328 28<169.268 338.231> 328 16.5<-80.6437 -51.1353>
VStem: -39 78<22.3787 319.621> 89 78<197.376 327.496> 218 77<14.3188 153.806> 345 78<-6.44971 325.889>
LayerCount: 2
Fore
SplineSet
89 289 m 2,0,1
 89 322 89 322 122.5 339 c 128,-1,2
 156 356 156 356 196 356 c 2,3,-1
 346 356 l 2,4,5
 386 356 386 356 397 351 c 0,6,7
 423 340 423 340 423 311 c 2,8,-1
 423 10 l 2,9,10
 423 7 423 7 413 0 c 0,11,12
 391 -14 391 -14 359 -14 c 0,13,14
 345 -14 345 -14 345 -10 c 2,15,-1
 345 14 l 2,16,17
 345 44 345 44 345.5 103 c 128,-1,18
 346 162 346 162 346 192 c 2,19,-1
 346 269 l 2,20,21
 346 285 346 285 345.5 293.5 c 128,-1,22
 345 302 345 302 339.5 312 c 128,-1,23
 334 322 334 322 323 326 c 0,24,25
 322 327 322 327 319 327 c 0,26,27
 318 327 318 327 316.5 327.5 c 128,-1,28
 315 328 315 328 314 328 c 2,29,-1
 171 328 l 1,30,31
 167 320 167 320 167 282 c 2,32,-1
 167 226 l 2,33,34
 167 209 167 209 175.5 197 c 128,-1,35
 184 185 184 185 200 185 c 2,36,-1
 216 185 l 2,37,38
 265 185 265 185 278 175 c 0,39,40
 288 168 288 168 293 154 c 0,41,42
 295 148 295 148 295 115 c 2,43,-1
 295 53 l 2,44,45
 295 35 295 35 284 22 c 128,-1,46
 273 9 273 9 262 4 c 128,-1,47
 251 -1 251 -1 231 -8 c 0,48,49
 211 -14 211 -14 136 -14 c 2,50,-1
 47 -14 l 2,51,52
 45 -14 45 -14 31.5 -14.5 c 128,-1,53
 18 -15 18 -15 13 -14.5 c 128,-1,54
 8 -14 8 -14 -1.5 -12.5 c 128,-1,55
 -11 -11 -11 -11 -17.5 -7 c 128,-1,56
 -24 -3 -24 -3 -29 4 c 0,57,58
 -39 18 -39 18 -39 42 c 2,59,-1
 -39 281 l 2,60,61
 -39 308 -39 308 -50 320 c 1,62,63
 -49 319 -49 319 -48.5 318 c 128,-1,64
 -48 317 -48 317 -48 317 c 1,65,66
 -58 327 -58 327 -63 327 c 2,67,-1
 -64 327 l 2,68,69
 -65 327 -65 327 -66 328 c 1,70,-1
 -68 328 l 2,71,72
 -80 328 -80 328 -81 332 c 0,73,74
 -83 339 -83 339 -69.5 344.5 c 128,-1,75
 -56 350 -56 350 -41 353 c 128,-1,76
 -26 356 -26 356 -17 356 c 0,77,78
 4 356 4 356 20 346 c 128,-1,79
 36 336 36 336 38 317 c 0,80,81
 39 311 39 311 39 300 c 2,82,-1
 39 61 l 2,83,84
 39 34 39 34 50 22 c 1,85,86
 49 23 49 23 48.5 24 c 128,-1,87
 48 25 48 25 48 25 c 1,88,89
 55 18 55 18 62 15 c 1,90,-1
 64 15 l 2,91,92
 65 15 65 15 66 14 c 1,93,-1
 68 14 l 1,94,-1
 214 14 l 1,95,96
 218 24 218 24 218 60 c 2,97,-1
 218 116 l 2,98,99
 218 147 218 147 194 155 c 1,100,-1
 192 156 l 1,101,-1
 190 156 l 2,102,103
 189 156 189 156 187.5 156.5 c 128,-1,104
 186 157 186 157 185 157 c 2,105,-1
 167 157 l 2,106,107
 120 157 120 157 105 169 c 0,108,109
 89 183 89 183 89 232 c 2,110,-1
 89 289 l 2,0,1
194 155 m 0,111,-1
194 186 m 0,112,-1
192 187 m 2,113,114
 192 187 192 187 191 187 c 2,115,116
 191 187 191 187 192 187 c 2,113,114
EndSplineSet
EndChar

StartChar: question
Encoding: 63 63 27
Width: 424
Flags: W
HStem: -356 28<176.25 328.828> -342 14<314.621 338.169> 328 28<-70.7695 80.812> 328 14<-80.1689 -56.6211>
VStem: 90 78<-315.681 316.653>
LayerCount: 2
Fore
SplineSet
326 -328 m 2,0,1
 338 -328 338 -328 339 -332 c 128,-1,2
 340 -336 340 -336 329 -342 c 0,3,4
 304 -356 304 -356 275 -356 c 2,5,-1
 167 -356 l 2,6,7
 125 -356 125 -356 111 -348 c 0,8,9
 90 -336 90 -336 90 -309 c 2,10,-1
 90 282 l 2,11,12
 90 306 90 306 81 317 c 0,13,14
 75 323 75 323 67 327 c 1,15,-1
 65 327 l 2,16,17
 64 327 64 327 63 327.5 c 128,-1,18
 62 328 62 328 61 328 c 2,19,-1
 -67 328 l 2,20,21
 -80 328 -80 328 -81 332 c 128,-1,22
 -82 336 -82 336 -71 342 c 0,23,24
 -46 356 -46 356 -17 356 c 2,25,-1
 104 356 l 2,26,27
 134 356 134 356 144 350 c 0,28,29
 168 336 168 336 168 306 c 2,30,-1
 168 -269 l 2,31,32
 168 -306 168 -306 176 -316 c 1,33,34
 184 -324 184 -324 193 -327 c 1,35,-1
 195 -327 l 2,36,37
 196 -327 196 -327 198 -328 c 1,38,-1
 258 -328 l 1,39,-1
 326 -328 l 2,0,1
EndSplineSet
EndChar

StartChar: C
Encoding: 67 67 29
Width: 678
Flags: W
HStem: -14 28<218.125 471> 157 28<214 299 301 301.997> 310 21G<56 57> 328 28<67 277 279 280 280 293.844> 328 14<-123.551 -100.031> 838 30<569.597 581.984> 854 14<609.675 634.551>
VStem: -81 77<25.3477 315.622> 31 24<22 23.9995 24.0635 306 308 311 318 320 323 325.969> 132 78<26.3455 148.868 149.032 156.844> 303 78<200.286 316.624> 473 77<15.4399 811.833>
LayerCount: 2
Fore
SplineSet
-113 328 m 1,0,1
 -123 328 -123 328 -124 332 c 0,2,3
 -125 337 -125 337 -115 342 c 0,4,5
 -105 348 -105 348 -88 352 c 0,6,7
 -70 356 -70 356 -60 356 c 0,8,9
 -22 356 -22 356 -9 332 c 0,10,11
 -4 322 -4 322 -4 293 c 2,12,-1
 -4 252 l 1,13,-1
 -4 144 l 1,14,-1
 -4 63 l 2,15,16
 -4 36 -4 36 5 25 c 0,17,18
 11 19 11 19 17 16 c 0,19,20
 18 16 18 16 18 15.5 c 128,-1,21
 18 15 18 15 19 15 c 2,22,-1
 20 15 l 1,23,-1
 21 15 l 1,24,25
 22 16 22 16 22 17 c 128,-1,26
 22 18 22 18 23 19 c 2,27,-1
 25 21 l 2,28,29
 26 22 26 22 26 22 c 1,30,31
 26 24 26 24 27 24 c 0,32,33
 28 26 28 26 30 32 c 1,34,-1
 30 33 l 1,35,-1
 30 36 l 2,36,37
 30 37 30 37 30.5 39 c 128,-1,38
 31 41 31 41 31 42 c 2,39,-1
 31 72 l 1,40,-1
 31 253 l 1,41,-1
 31 299 l 2,42,43
 31 312 31 312 37 323 c 0,44,45
 48 345 48 345 77 350 c 1,46,47
 94 356 94 356 111 356 c 2,48,-1
 127 356 l 1,49,-1
 300 356 l 2,50,51
 302 356 302 356 315 356.5 c 128,-1,52
 328 357 328 357 333.5 356.5 c 128,-1,53
 339 356 339 356 348 353.5 c 128,-1,54
 357 351 357 351 363 346 c 0,55,56
 378 334 378 334 380 313 c 0,57,58
 381 302 381 302 381 281 c 2,59,-1
 381 236 l 2,60,61
 381 209 381 209 376 200 c 0,62,63
 370 189 370 189 353 179 c 0,64,65
 330 166 330 166 302 160 c 0,66,67
 289 157 289 157 264 157 c 2,68,-1
 228 157 l 1,69,-1
 214 157 l 1,70,71
 214 156 214 156 213 153 c 128,-1,72
 212 150 212 150 211 149 c 0,73,74
 210 145 210 145 210 111 c 2,75,-1
 210 55 l 2,76,77
 210 37 210 37 218 26 c 0,78,79
 222 22 222 22 228 19 c 0,80,81
 229 18 229 18 230.5 17 c 128,-1,82
 232 16 232 16 233 16 c 128,-1,83
 234 16 234 16 235 15.5 c 128,-1,84
 236 15 236 15 237 15 c 128,-1,85
 238 15 238 15 240 14.5 c 128,-1,86
 242 14 242 14 243 14 c 2,87,-1
 268 14 l 1,88,-1
 402 14 l 1,89,-1
 470 14 l 1,90,91
 471 15 471 15 471 16 c 0,92,93
 472 18 472 18 472 19 c 0,94,95
 473 22 473 22 473 41 c 2,96,-1
 473 147 l 1,97,-1
 473 328 l 1,98,-1
 473 524 l 1,99,-1
 473 677 l 1,100,-1
 473 733 l 1,101,102
 475 771 475 771 489 801 c 0,103,104
 501 825 501 825 520 838 c 0,105,106
 565 868 565 868 622 868 c 0,107,108
 634 868 634 868 635 864 c 0,109,110
 636 859 636 859 626 854 c 0,111,112
 608 845 608 845 582 841 c 1,113,-1
 582 840 l 1,114,-1
 581 839 l 2,115,116
 580 838 580 838 579 838 c 0,117,118
 578 837 578 837 577 835.5 c 128,-1,119
 576 834 576 834 575 833 c 0,120,121
 562 816 562 816 555 788 c 0,122,123
 554 786 554 786 554 783 c 128,-1,124
 554 780 554 780 553 778 c 0,125,126
 550 759 550 759 550 720 c 2,127,-1
 550 585 l 1,128,-1
 550 394 l 2,129,130
 550 362 550 362 550.5 299 c 128,-1,131
 551 236 551 236 551 205 c 2,132,-1
 551 76 l 1,133,-1
 551 53 l 2,134,135
 551 29 551 29 536 15 c 0,136,137
 523 3 523 3 499 -4 c 0,138,139
 471 -12 471 -12 456 -13 c 0,140,141
 446 -14 446 -14 394 -14 c 2,142,-1
 318 -14 l 1,143,-1
 190 -14 l 2,144,145
 170 -14 170 -14 156 -7 c 0,146,147
 144 0 144 0 139 9 c 0,148,149
 132 20 132 20 132 38 c 2,150,-1
 132 114 l 2,151,152
 132 127 132 127 136 136 c 0,153,154
 146 166 146 166 200 179 c 0,155,156
 228 185 228 185 241 185 c 2,157,-1
 265 185 l 1,158,-1
 299 185 l 1,159,-1
 302 191 l 1,160,161
 303 196 303 196 303 217 c 2,162,-1
 303 249 l 1,163,-1
 303 287 l 2,164,165
 303 305 303 305 294 317 c 0,166,167
 289 322 289 322 286 324 c 0,168,169
 285 324 285 324 283.5 325 c 128,-1,170
 282 326 282 326 281 326 c 128,-1,171
 280 326 280 326 280 326.5 c 128,-1,172
 280 327 280 327 279 327 c 2,173,-1
 277 328 l 2,174,175
 275 328 275 328 274 328 c 2,176,-1
 271 328 l 1,177,-1
 258 328 l 1,178,-1
 202 328 l 1,179,-1
 67 328 l 1,180,-1
 65 327 l 2,181,182
 64 326 64 326 63 325 c 128,-1,183
 62 324 62 324 62 323 c 2,184,-1
 61 321 l 2,185,186
 60 320 60 320 60 320 c 1,187,188
 60 318 60 318 59 318 c 0,189,190
 58 316 58 316 56 310 c 1,191,-1
 56 311 l 1,192,-1
 56 310 l 1,193,-1
 56 309 l 2,194,195
 56 308 l 1,196,-1
 55 306 l 1,197,-1
 55 300 l 1,198,-1
 55 270 l 1,199,-1
 55 89 l 1,200,-1
 55 43 l 2,201,202
 55 31 55 31 48 19 c 0,203,204
 35 -6 35 -6 6 -9 c 1,205,-1
 5 -10 l 2,206,207
 4 -10 4 -10 3 -10 c 0,208,209
 -15 -14 -15 -14 -25 -14 c 0,210,211
 -62 -14 -62 -14 -74 8 c 0,212,213
 -81 20 -81 20 -81 46 c 2,214,-1
 -81 133 l 1,215,-1
 -81 240 l 1,216,-1
 -81 278 l 2,217,218
 -81 304 -81 304 -90 316 c 1,219,220
 -96 322 -96 322 -100 324 c 0,221,222
 -101 324 -101 324 -102.5 325 c 128,-1,223
 -104 326 -104 326 -105 326 c 2,224,-1
 -106 326 l 1,225,-1
 -113 328 l 1,0,1
301 180 m 1,226,-1
 302 180 l 1,227,-1
 302 181 l 1,228,-1
 301 180 l 1,226,-1
EndSplineSet
EndChar

StartChar: F
Encoding: 70 70 31
Width: 0
Flags: W
HStem: -31 62<-28.7168 28.7168>
VStem: -39 78<-23.7485 23.7485>
LayerCount: 2
Fore
SplineSet
-3 -31 m 0,0,1
 -20 -31 -20 -31 -29 -24 c 0,2,3
 -41 -16 -41 -16 -39 -2 c 0,4,5
 -38 12 -38 12 -24.5 21.5 c 128,-1,6
 -11 31 -11 31 3 31 c 0,7,8
 20 31 20 31 29 24 c 0,9,10
 41 16 41 16 39 2 c 0,11,12
 38 -12 38 -12 24.5 -21.5 c 128,-1,13
 11 -31 11 -31 -3 -31 c 0,0,1
EndSplineSet
EndChar

StartChar: G
Encoding: 71 71 32
Width: 851
Flags: W
HStem: -14 29<20 21 560.25 711.312> 1 14<698.656 722.169> 157 29<553.031 633 634 644.966> 328 29<-113.049 -106.094 -106 -89.187 60.0002 61 65 256 257 272.874 430 635.875>
VStem: -81 77<25.4092 315.653> 31 24<19.0312 34 36 317.875> 282 78<25.3474 317.653> 395 23<16.0469 309 311 321.969> 475 77<39.4395 148.868> 553 3<146.187 149> 553 0<146 149> 646 77<186.312 317.593>
LayerCount: 2
Fore
SplineSet
710 15 m 2,0,1
 722 15 722 15 723 11 c 128,-1,2
 724 7 724 7 713 1 c 0,3,4
 686 -14 686 -14 659 -14 c 2,5,-1
 532 -14 l 2,6,7
 512 -14 512 -14 498 -7 c 0,8,9
 486 0 486 0 481 9 c 0,10,11
 475 18 475 18 475 39 c 2,12,-1
 475 114 l 2,13,14
 475 130 475 130 478 137 c 0,15,16
 488 167 488 167 542 180 c 0,17,18
 570 186 570 186 583 186 c 2,19,-1
 607 186 l 1,20,-1
 642 186 l 1,21,22
 643 189 643 189 644 191 c 0,23,24
 646 200 646 200 646 218 c 2,25,-1
 646 249 l 1,26,-1
 646 287 l 2,27,28
 646 305 646 305 636 318 c 0,29,30
 632 322 632 322 626 325 c 0,31,32
 624 327 624 327 622 327 c 0,33,34
 619 328 619 328 614 328 c 2,35,-1
 611 328 l 1,36,-1
 603 328 l 1,37,-1
 586 328 l 1,38,-1
 430 328 l 1,39,-1
 429 327 l 1,40,-1
 427 326 l 1,41,42
 426 324 l 1,43,-1
 424 322 l 1,44,-1
 423 320 l 1,45,-1
 422 318 l 2,46,47
 421 317 421 317 420.5 314.5 c 128,-1,48
 420 312 420 312 420 311 c 2,49,-1
 419 309 l 1,50,-1
 419 307 l 2,51,52
 419 306 419 306 418.5 303.5 c 128,-1,53
 418 301 418 301 418 300 c 2,54,-1
 418 270 l 1,55,-1
 418 89 l 1,56,-1
 418 44 l 2,57,58
 418 30 418 30 412 20 c 0,59,60
 398 -7 398 -7 366 -9 c 1,61,62
 344 -14 344 -14 338 -14 c 0,63,64
 309 -14 309 -14 294 2 c 0,65,66
 287 9 287 9 283 25 c 0,67,68
 282 31 282 31 282 42 c 2,69,-1
 282 211 l 1,70,-1
 282 281 l 2,71,72
 282 307 282 307 273 318 c 0,73,74
 269 322 269 322 261 326 c 0,75,76
 260 327 260 327 257 327 c 2,77,-1
 258 327 l 1,78,79
 256 328 l 1,80,-1
 253 328 l 1,81,-1
 247 328 l 1,82,-1
 209 328 l 1,83,-1
 67 328 l 1,84,-1
 66 328 l 1,85,86
 66 327 l 1,87,-1
 65 327 l 1,88,-1
 62 324 l 1,89,-1
 61 322 l 2,90,91
 60 322 60 322 60 320 c 128,-1,92
 60 318 60 318 59 318 c 0,93,94
 57 314 57 314 56 311 c 1,95,-1
 56 309 l 2,96,97
 56 308 56 308 55.5 308 c 128,-1,98
 55 308 55 308 55 307 c 2,99,-1
 55 300 l 1,100,-1
 55 270 l 1,101,-1
 55 89 l 1,102,-1
 55 44 l 2,103,104
 55 30 55 30 49 20 c 0,105,106
 35 -7 35 -7 4 -9 c 0,107,108
 3 -9 3 -9 3 -9 c 1,109,110
 -20 -14 -20 -14 -25 -14 c 0,111,112
 -62 -14 -62 -14 -74 8 c 0,113,114
 -81 20 -81 20 -81 47 c 2,115,-1
 -81 134 l 1,116,-1
 -81 240 l 1,117,-1
 -81 279 l 2,118,119
 -81 305 -81 305 -89 316 c 1,120,121
 -95 322 -95 322 -99 324 c 0,122,123
 -100 324 -100 324 -102 325 c 128,-1,124
 -104 326 -104 326 -105 326 c 128,-1,125
 -106 326 l 1,126,-1
 -108 327 l 2,127,128
 -108 328 -108 328 -106 327 c 1,129,130
 -109 328 -109 328 -114 328 c 0,131,132
 -123 328 -123 328 -124 332 c 128,-1,133
 -125 336 -125 336 -114 342 c 1,134,135
 -104 349 -104 349 -88 352 c 0,136,137
 -66 357 -66 357 -60 357 c 0,138,139
 -23 357 -23 357 -9 332 c 0,140,141
 -4 322 -4 322 -4 294 c 2,142,-1
 -4 252 l 1,143,-1
 -4 145 l 1,144,-1
 -4 63 l 2,145,146
 -4 38 -4 38 6 25 c 0,147,148
 11 20 11 20 17 17 c 0,149,150
 18 16 18 16 20 15 c 1,151,-1
 21 16 l 2,152,153
 20 16 20 16 20 16 c 257,154,155
 21 16 l 2,156,-1
 24 19 l 1,157,-1
 25 21 l 2,158,159
 26 22 26 22 26 23 c 128,-1,160
 26 24 26 24 27 25 c 0,161,162
 29 29 29 29 30 32 c 1,163,-1
 30 33 l 2,164,165
 30 34 l 1,166,-1
 31 36 l 1,167,-1
 31 42 l 1,168,-1
 31 72 l 1,169,-1
 31 254 l 1,170,-1
 31 299 l 2,171,172
 31 312 31 312 37 323 c 0,173,174
 50 348 50 348 79 351 c 1,175,176
 96 357 96 357 111 357 c 2,177,-1
 116 357 l 1,178,-1
 281 357 l 2,179,180
 284 357 284 357 290.5 357 c 128,-1,181
 297 357 297 357 300 357 c 128,-1,182
 303 357 303 357 309 357 c 128,-1,183
 315 357 315 357 318.5 356 c 128,-1,184
 322 355 322 355 327 354 c 128,-1,185
 332 353 332 353 335.5 351 c 128,-1,186
 339 349 339 349 343 346 c 128,-1,187
 347 343 347 343 350 339 c 0,188,189
 360 327 360 327 360 301 c 2,190,-1
 360 132 l 1,191,-1
 360 62 l 2,192,193
 360 36 360 36 369 25 c 0,194,195
 374 20 374 20 380 17 c 0,196,197
 382 15 382 15 384 15 c 0,198,199
 385 15 385 15 385 15 c 257,200,201
 384 15 l 1,202,-1
 384 16 l 1,203,-1
 387 19 l 1,204,-1
 389 21 l 2,205,206
 390 22 390 22 390 23 c 128,-1,207
 390 24 390 24 390 25 c 0,208,209
 392 29 392 29 393 32 c 1,210,-1
 393 33 l 2,211,212
 393 34 393 34 394 36 c 0,213,214
 394 37 394 37 394.5 39 c 128,-1,215
 395 41 395 41 395 42 c 2,216,-1
 395 72 l 1,217,-1
 395 254 l 1,218,-1
 395 299 l 2,219,220
 395 312 395 312 401 323 c 0,221,222
 414 348 414 348 442 352 c 1,223,224
 459 357 459 357 475 357 c 2,225,-1
 642 357 l 2,226,227
 692 357 692 357 705 346 c 0,228,229
 721 333 721 333 723 313 c 1,230,-1
 723 281 l 1,231,-1
 723 236 l 2,232,233
 723 210 723 210 718 201 c 0,234,235
 712 188 712 188 695 179 c 0,236,237
 675 168 675 168 644 161 c 0,238,239
 627 157 627 157 606 157 c 2,240,-1
 570 157 l 1,241,-1
 556 157 l 1,242,243
 554 152 554 152 553 146 c 1,244,-1
 553 149 l 1,245,246
 552 145 552 145 552 112 c 2,247,-1
 552 55 l 2,248,249
 552 37 552 37 560 27 c 1,250,251
 568 19 568 19 578 16 c 1,252,-1
 579 16 l 2,253,254
 580 16 580 16 581 15.5 c 128,-1,255
 582 15 582 15 583 15 c 2,256,-1
 584 15 l 1,257,-1
 585 15 l 1,258,-1
 598 15 l 1,259,-1
 642 15 l 1,260,-1
 710 15 l 2,0,1
587 14 m 2,261,262
 588 14 588 14 588 14 c 2,263,264
 587 14 587 14 587 14 c 2,261,262
578 16 m 1,265,-1
 577 16 l 1,266,-1
 578 16 l 1,265,-1
622 327 m 0,267,-1
634 176 m 2,268,269
 634 176 634 176 633.5 175.5 c 128,-1,270
 633 175 633 175 633 175 c 2,271,272
 634 175 634 175 634 176 c 2,268,269
384 15 m 2,273,274
 384 16 384 16 384 16 c 2,275,276
 384 15 384 15 384 15 c 2,273,274
384 16 m 1,277,278
 383 16 383 16 383 16 c 257,279,280
 383 16 383 16 384 16 c 1,277,278
21 16 m 1,281,282
 22 15 22 15 22 15 c 257,283,284
 22 15 22 15 21 16 c 1,281,282
EndSplineSet
EndChar

StartChar: H
Encoding: 72 72 33
Width: 0
Flags: W
HStem: -437 18<-230.84 -105.864> -100 28<-301.991 -39 39 112.467> -85 13<102.289 123.298>
VStem: -381 77<-496.141 -100.315> -268 24<-496.467 -441.102> -39 77<-496.703 -101 -72 6.58496>
LayerCount: 2
Fore
SplineSet
-98 -468 m 2,0,1
 -98 -437 -98 -437 -132 -437 c 2,2,-1
 -205 -437 l 2,3,4
 -226 -437 -226 -437 -231 -440 c 1,5,-1
 -232 -441 l 1,6,7
 -244 -450 -244 -450 -244 -467 c 0,8,9
 -244 -490 -244 -490 -261 -505 c 1,10,11
 -264 -510 -264 -510 -270 -513 c 0,12,13
 -290 -524 -290 -524 -315.5 -526.5 c 128,-1,14
 -341 -529 -341 -529 -361 -517 c 128,-1,15
 -381 -505 -381 -505 -381 -478 c 2,16,-1
 -381 -165 l 2,17,18
 -381 -116 -381 -116 -364 -100 c 0,19,20
 -335 -72 -335 -72 -270 -72 c 2,21,-1
 -39 -72 l 1,22,-1
 -39 10 l 2,23,24
 -39 18 -39 18 3 10 c 1,25,26
 39 2 39 2 39 -10 c 2,27,-1
 39 -72 l 1,28,-1
 111 -72 l 2,29,30
 123 -72 123 -72 124 -75 c 0,31,32
 125 -80 125 -80 115 -85 c 0,33,34
 88 -100 88 -100 60 -100 c 2,35,-1
 39 -100 l 1,36,-1
 38 -101 l 1,37,-1
 38 -102 l 1,38,-1
 38 -452 l 1,39,-1
 38 -481 l 2,40,41
 38 -504 38 -504 22 -516 c 128,-1,42
 6 -528 6 -528 -15 -526.5 c 128,-1,43
 -36 -525 -36 -525 -57 -519 c 1,44,45
 -75 -516 -75 -516 -86.5 -503 c 128,-1,46
 -98 -490 -98 -490 -98 -470 c 2,47,-1
 -98 -468 l 2,0,1
-39 -431 m 2,48,-1
 -39 -100 l 1,49,-1
 -299 -100 l 1,50,51
 -304 -110 -304 -110 -304 -129 c 2,52,-1
 -304 -442 l 2,53,54
 -304 -487 -304 -487 -280 -497 c 1,55,56
 -276 -493 -276 -493 -274 -490 c 0,57,58
 -268 -478 -268 -478 -268 -468 c 0,59,60
 -267 -445 -267 -445 -250 -432 c 128,-1,61
 -233 -419 -233 -419 -209 -419 c 2,62,-1
 -135 -419 l 2,63,64
 -102 -419 -102 -419 -90 -431 c 0,65,66
 -76 -445 -76 -445 -74 -470 c 0,67,68
 -72 -489 -72 -489 -60 -497 c 1,69,70
 -55 -495 -55 -495 -51.5 -491.5 c 128,-1,71
 -48 -488 -48 -488 -45.5 -483 c 128,-1,72
 -43 -478 -43 -478 -41.5 -474.5 c 128,-1,73
 -40 -471 -40 -471 -39.5 -463 c 128,-1,74
 -39 -455 -39 -455 -39 -453 c 128,-1,75
 -39 -451 -39 -451 -39 -441.5 c 128,-1,76
 -39 -432 -39 -432 -39 -431 c 2,48,-1
EndSplineSet
EndChar

StartChar: J
Encoding: 74 74 35
Width: 0
Flags: W
HStem: -100 29<-250 -39 39 113.312> -100 14<100.586 123.551>
VStem: -381 78<-179 -121.358> -39 78<-476.612 -100 -71 6.44971>
LayerCount: 2
Fore
SplineSet
39 -475 m 2,0,1
 39 -527 39 -527 -16 -527 c 0,2,3
 -36 -527 -36 -527 -64 -516 c 1,4,5
 -79 -508 -79 -508 -81 -506 c 0,6,7
 -82 -505 -82 -505 -83.5 -503 c 128,-1,8
 -85 -501 -85 -501 -86 -500 c 2,9,-1
 -378 -165 l 2,10,11
 -381 -162 -381 -162 -381 -158 c 0,12,13
 -373 -84 -373 -84 -307 -73 c 0,14,15
 -296 -71 -296 -71 -255 -71 c 2,16,-1
 -39 -71 l 1,17,-1
 -39 10 l 2,18,19
 -39 14 -39 14 -25 14 c 0,20,21
 7 14 7 14 29 0 c 0,22,23
 39 -7 39 -7 39 -10 c 2,24,-1
 39 -71 l 1,25,-1
 60 -71 l 2,26,27
 88 -71 88 -71 115 -86 c 0,28,29
 125 -91 125 -91 124 -96 c 0,30,31
 123 -100 123 -100 111 -100 c 2,32,-1
 39 -100 l 1,33,-1
 39 -475 l 2,0,1
-42 -477 m 1,34,35
 -39 -470 -39 -470 -39 -431 c 2,36,-1
 -39 -100 l 1,37,-1
 -240 -100 l 2,38,39
 -243 -100 -243 -100 -249 -102 c 0,40,41
 -250 -102 l 1,42,-1
 -252 -103 l 1,43,44
 -274 -109 -274 -109 -288 -131 c 128,-1,45
 -302 -153 -302 -153 -303 -179 c 1,46,-1
 -42 -477 l 1,34,35
EndSplineSet
EndChar

StartChar: M
Encoding: 77 77 36
Width: 0
Flags: W
HStem: -175 189
VStem: -72 109
LayerCount: 2
Fore
SplineSet
37 -149 m 2,0,1
 41 -153 41 -153 35 -158 c 0,2,3
 34 -159 34 -159 13 -168 c 1,4,5
 -7 -174 -7 -174 -17 -175 c 0,6,7
 -27 -177 -27 -177 -32 -176 c 0,8,9
 -33 -176 -33 -176 -34.5 -175 c 128,-1,10
 -36 -174 -36 -174 -37 -174 c 0,11,12
 -60 -151 -60 -151 -69 -121 c 1,13,14
 -78 -95 -78 -95 -72 -67 c 0,15,16
 -64 -33 -64 -33 -35 -4 c 0,17,18
 -28 3 -28 3 -13 7 c 0,19,20
 7 13 7 13 17 14 c 0,21,22
 31 16 31 16 37 13 c 0,23,24
 41 10 41 10 35 4 c 2,25,-1
 33 2 l 1,26,-1
 30 -1 l 2,27,28
 29 -2 29 -2 27 -4.5 c 128,-1,29
 25 -7 25 -7 24 -8 c 0,30,31
 21 -12 21 -12 15 -22 c 1,32,33
 7 -39 7 -39 5 -46 c 0,34,35
 -7 -100 -7 -100 36 -148 c 1,36,-1
 37 -149 l 2,0,1
EndSplineSet
EndChar

StartChar: N
Encoding: 78 78 37
Width: 851
Flags: W
HStem: -14 28<390.094 644.215> 300 20G<292.5 297.5> 317 21G<290 294> 328 28<66 275 276 293.75 484.23 635.842> 328 14<-123.551 -100.031 474.831 498.379>
VStem: -81 77<22.4407 315.622> 31 24<24.0635 306 308 317.937 318 320 323 327.804> 303 78<24.3474 319.621> 645 78<14.2141 316.591>
LayerCount: 2
Fore
SplineSet
-114 328 m 0,0,1
 -123 328 -123 328 -124 332 c 0,2,3
 -125 337 -125 337 -115 342 c 0,4,5
 -105 348 -105 348 -88 352 c 0,6,7
 -70 356 -70 356 -60 356 c 0,8,9
 -22 356 -22 356 -9 332 c 0,10,11
 -4 322 -4 322 -4 293 c 2,12,-1
 -4 252 l 1,13,-1
 -4 144 l 1,14,-1
 -4 63 l 2,15,16
 -4 36 -4 36 8 22 c 0,17,18
 12 18 12 18 17 16 c 0,19,20
 18 15 18 15 20 15 c 1,21,22
 21 16 21 16 22 16 c 1,23,24
 22 16 22 16 22 17 c 0,25,26
 23 19 l 1,27,-1
 25 21 l 2,28,29
 26 22 26 22 26 22 c 1,30,31
 26 24 26 24 27 24 c 0,32,33
 28 26 28 26 30 32 c 1,34,-1
 30 33 l 1,35,-1
 30 36 l 2,36,37
 30 37 30 37 30.5 39 c 128,-1,38
 31 41 31 41 31 42 c 2,39,-1
 31 72 l 1,40,-1
 31 253 l 1,41,-1
 31 299 l 2,42,43
 31 312 31 312 37 323 c 0,44,45
 49 346 49 346 75 350 c 1,46,47
 93 356 93 356 111 356 c 2,48,-1
 130 356 l 1,49,-1
 304 356 l 2,50,51
 306 356 306 356 314 356 c 128,-1,52
 322 356 322 356 325 356 c 128,-1,53
 328 356 328 356 335 355.5 c 128,-1,54
 342 355 342 355 345.5 354 c 128,-1,55
 349 353 349 353 354.5 351 c 128,-1,56
 360 349 360 349 364 345.5 c 128,-1,57
 368 342 368 342 371 338 c 0,58,59
 381 326 381 326 381 300 c 2,60,-1
 381 131 l 1,61,-1
 381 61 l 2,62,63
 381 35 381 35 390 24 c 0,64,65
 393 21 393 21 399 17 c 0,66,67
 400 16 400 16 402 16 c 128,-1,68
 404 16 404 16 405 15 c 1,69,-1
 407 15 l 2,70,71
 408 15 408 15 409 14 c 1,72,-1
 410 14 l 1,73,-1
 413 14 l 1,74,-1
 419 14 l 1,75,-1
 436 14 l 1,76,-1
 482 14 l 1,77,-1
 590 14 l 1,78,-1
 641 14 l 1,79,80
 643 17 643 17 644 20 c 0,81,82
 645 24 645 24 645 54 c 2,83,-1
 645 95 l 1,84,-1
 645 198 l 1,85,-1
 645 279 l 2,86,87
 645 304 645 304 636 317 c 0,88,89
 631 323 631 323 619 327 c 0,90,91
 618 328 618 328 617 328 c 2,92,-1
 616 328 l 1,93,-1
 605 328 l 1,94,-1
 554 328 l 1,95,-1
 488 328 l 2,96,97
 475 328 475 328 474 332 c 128,-1,98
 473 336 473 336 484 342 c 0,99,100
 509 356 509 356 538 356 c 2,101,-1
 635 356 l 1,102,-1
 665 356 l 2,103,104
 690 356 690 356 701 349 c 0,105,106
 719 339 719 339 722 315 c 0,107,108
 723 308 723 308 723 276 c 2,109,-1
 723 78 l 2,110,111
 723 48 723 48 722 43 c 0,112,113
 719 28 719 28 707 16 c 0,114,115
 699 8 699 8 670 -3 c 0,116,117
 639 -14 639 -14 615 -14 c 2,118,-1
 597 -14 l 1,119,-1
 401 -14 l 1,120,-1
 365 -14 l 2,121,122
 327 -14 327 -14 313 3 c 0,123,124
 303 15 303 15 303 42 c 2,125,-1
 303 211 l 1,126,-1
 303 281 l 2,127,128
 303 308 303 308 292 320 c 1,129,130
 293 319 293 319 293.5 318 c 128,-1,131
 294 317 294 317 294 317 c 1,132,133
 286 324 286 324 279 327 c 1,134,-1
 276 327 l 1,135,-1
 275 328 l 1,136,-1
 273 328 l 1,137,-1
 262 328 l 1,138,-1
 206 328 l 1,139,-1
 66 328 l 1,140,141
 66 328 66 328 65 327 c 256,142,143
 64 326 64 326 63 325 c 128,-1,144
 62 324 62 324 62 323 c 2,145,-1
 61 321 l 2,146,147
 60 320 60 320 60 320 c 1,148,149
 60 318 60 318 59 318 c 0,150,151
 58 316 58 316 56 310 c 1,152,-1
 56 309 l 2,153,154
 56 308 l 1,155,-1
 55 306 l 1,156,-1
 55 300 l 1,157,-1
 55 270 l 1,158,-1
 55 89 l 1,159,-1
 55 43 l 2,160,161
 55 31 55 31 48 19 c 0,162,163
 36 -3 36 -3 11 -8 c 0,164,165
 7 -9 7 -9 3 -10 c 0,166,167
 -15 -14 -15 -14 -25 -14 c 0,168,169
 -62 -14 -62 -14 -74 8 c 0,170,171
 -81 20 -81 20 -81 46 c 2,172,-1
 -81 133 l 1,173,-1
 -81 240 l 1,174,-1
 -81 278 l 2,175,176
 -81 304 -81 304 -90 316 c 1,177,178
 -96 322 -96 322 -100 324 c 0,179,180
 -101 324 -101 324 -102.5 325 c 128,-1,181
 -104 326 -104 326 -105 326 c 2,182,-1
 -106 326 l 1,183,184
 -112 328 -112 328 -114 328 c 0,0,1
EndSplineSet
EndChar

StartChar: Q
Encoding: 81 81 39
Width: 509
Flags: W
HStem: -1154 32<406.591 458.778> -13.5 113.5<-19.9828 40.5625> -9 18<109.75 238.409>
VStem: -37 78<-6.41016 68.4064> 303 78<-1102.4 70.7422>
LayerCount: 2
Fore
SplineSet
435 -1122 m 1,0,-1
 442 -1124 l 2,1,2
 449 -1125 449 -1125 453 -1125 c 0,3,4
 465 -1125 465 -1125 466 -1129 c 0,5,6
 467 -1134 467 -1134 457 -1139 c 0,7,8
 432 -1153 432 -1153 401 -1154 c 128,-1,9
 370 -1155 370 -1155 344 -1140 c 1,10,11
 305 -1115 305 -1115 303 -1064 c 1,12,-1
 303 -961 l 1,13,-1
 303 -523 l 2,14,15
 303 -341 303 -341 305 23 c 0,16,17
 305 63 305 63 281 71 c 1,18,19
 277 67 277 67 276 65 c 2,20,-1
 275 64 l 1,21,22
 272 59 272 59 271 47.5 c 128,-1,23
 270 36 270 36 269 32 c 0,24,25
 259 -9 259 -9 211 -9 c 2,26,-1
 137 -9 l 2,27,28
 104 -9 104 -9 92 3 c 0,29,30
 83 12 83 12 79.5 35.5 c 128,-1,31
 76 59 76 59 64 69 c 1,32,33
 41 60 41 60 41 32 c 2,34,-1
 41 10 l 2,35,36
 41 2 41 2 21 -5.5 c 128,-1,37
 1 -13 1 -13 -16.5 -13.5 c 128,-1,38
 -34 -14 -34 -14 -37 -10 c 1,39,-1
 -37 55 l 2,40,41
 -37 75 -37 75 -20.5 87.5 c 128,-1,42
 -4 100 -4 100 19 100 c 0,43,44
 34 100 34 100 49 95 c 1,45,46
 70 93 70 93 84.5 79 c 128,-1,47
 99 65 99 65 99 43 c 1,48,49
 102 9 102 9 136 9 c 2,50,-1
 210 9 l 2,51,52
 222 9 222 9 227 11 c 1,53,-1
 228 11 l 1,54,55
 247 19 247 19 247 41 c 128,-1,56
 247 63 247 63 260 77 c 128,-1,57
 273 91 273 91 293 94 c 1,58,59
 326 107 326 107 354 94.5 c 128,-1,60
 382 82 382 82 382 47 c 2,61,-1
 381 -351 l 1,62,-1
 381 -448 l 1,63,-1
 381 -1043 l 2,64,65
 381 -1070 381 -1070 395.5 -1092.5 c 128,-1,66
 410 -1115 410 -1115 434 -1122 c 1,67,-1
 435 -1122 l 1,0,-1
EndSplineSet
EndChar

StartChar: S
Encoding: 83 83 40
Width: 509
Flags: W
HStem: -14 29<8.12524 22 143.566 252 252.031 259.516> 328 28<66 228.185> 328 14<-123.551 -100.031>
VStem: -81 77<22.4407 315.622> 31 24<24.0635 306 308 317.937 318 320 323 327.804> 303 78<49.717 85.4814>
LayerCount: 2
Fore
SplineSet
-114 328 m 0,0,1
 -123 328 -123 328 -124 332 c 0,2,3
 -125 337 -125 337 -115 342 c 0,4,5
 -105 348 -105 348 -88 352 c 0,6,7
 -70 356 -70 356 -60 356 c 0,8,9
 -22 356 -22 356 -9 332 c 0,10,11
 -4 322 -4 322 -4 293 c 2,12,-1
 -4 252 l 1,13,-1
 -4 144 l 1,14,-1
 -4 63 l 2,15,16
 -4 36 -4 36 8 22 c 0,17,18
 12 18 12 18 17 16 c 0,19,20
 18 15 18 15 20 15 c 1,21,22
 21 16 21 16 22 16 c 1,23,24
 22 16 22 16 22 17 c 0,25,26
 23 19 l 1,27,-1
 25 21 l 2,28,29
 26 22 26 22 26 22 c 1,30,31
 26 24 26 24 27 24 c 0,32,33
 28 26 28 26 30 32 c 1,34,-1
 30 33 l 1,35,-1
 30 36 l 2,36,37
 30 37 30 37 30.5 39 c 128,-1,38
 31 41 31 41 31 42 c 2,39,-1
 31 72 l 1,40,-1
 31 253 l 1,41,-1
 31 299 l 2,42,43
 31 312 31 312 37 323 c 0,44,45
 49 346 49 346 75 350 c 1,46,47
 93 356 93 356 111 356 c 2,48,-1
 116 356 l 2,49,50
 217 356 217 356 242 353 c 0,51,52
 296 348 296 348 332 331 c 0,53,54
 381 308 381 308 381 267 c 0,55,56
 381 264 381 264 371 257 c 1,57,58
 364 254 364 254 352 247.5 c 128,-1,59
 340 241 340 241 334 238 c 2,60,-1
 217 180 l 1,61,62
 218 179 218 179 228.5 173.5 c 128,-1,63
 239 168 239 168 245 165 c 2,64,-1
 379 98 l 1,65,-1
 381 96 l 1,66,67
 381 83 381 83 374 71 c 1,68,69
 360 42 360 42 319 22 c 0,70,71
 244 -14 244 -14 146 -14 c 0,72,73
 133 -14 133 -14 132 -10 c 128,-1,74
 131 -6 131 -6 142 0 c 0,75,76
 167 14 167 14 196 14 c 0,77,78
 200 14 200 14 207 14.5 c 128,-1,79
 214 15 214 15 217 15 c 2,80,-1
 227 15 l 1,81,-1
 224 15 l 1,82,-1
 229 15 l 2,83,84
 231 15 231 15 234.5 16 c 128,-1,85
 238 17 238 17 241 17.5 c 128,-1,86
 244 18 244 18 247 18 c 2,87,-1
 250 18 l 1,88,-1
 252 18 l 1,89,-1
 254 19 l 2,90,91
 255 20 255 20 257 20 c 128,-1,92
 259 20 259 20 260 21 c 2,93,-1
 262 22 l 2,94,95
 263 22 263 22 264.5 23 c 128,-1,96
 266 24 266 24 267 24 c 128,-1,97
 268 24 268 24 269 25 c 2,98,-1
 273 28 l 2,99,100
 274 29 274 29 276.5 30.5 c 128,-1,101
 279 32 279 32 280 33 c 2,102,-1
 286 39 l 2,103,104
 287 39 287 39 288 41 c 0,105,106
 293 46 293 46 296 52 c 0,107,108
 300 61 300 61 302 67 c 0,109,110
 303 70 303 70 303 74 c 1,111,112
 297 77 297 77 285.5 83 c 128,-1,113
 274 89 274 89 268 92 c 0,114,115
 246 103 246 103 201 125 c 128,-1,116
 156 147 156 147 134 158 c 0,117,118
 130 161 130 161 134 165 c 128,-1,119
 138 169 138 169 142 171 c 0,120,121
 148 174 148 174 160 180 c 128,-1,122
 172 186 172 186 179 189 c 2,123,-1
 303 251 l 1,124,125
 301 269 301 269 289 284 c 1,126,127
 276 297 276 297 262 304 c 0,128,129
 257 307 257 307 245 311 c 2,130,-1
 236 314 l 1,131,-1
 234 314 l 1,132,-1
 232 315 l 1,133,-1
 229 317 l 1,134,135
 203 324 203 324 166 327 c 1,136,-1
 158 327 l 1,137,138
 158 327 158 327 157 327 c 256,139,140
 156 327 156 327 153 327.5 c 128,-1,141
 150 328 150 328 148 328 c 2,142,-1
 134 328 l 1,143,-1
 66 328 l 1,144,145
 66 328 66 328 65 327 c 256,146,147
 64 326 64 326 63 325 c 128,-1,148
 62 324 62 324 62 323 c 2,149,-1
 61 321 l 2,150,151
 60 320 60 320 60 320 c 1,152,153
 60 318 60 318 59 318 c 0,154,155
 58 316 58 316 56 310 c 1,156,-1
 56 309 l 2,157,158
 56 308 l 1,159,-1
 55 306 l 1,160,-1
 55 300 l 1,161,-1
 55 270 l 1,162,-1
 55 89 l 1,163,-1
 55 43 l 2,164,165
 55 31 55 31 48 19 c 0,166,167
 36 -3 36 -3 11 -8 c 0,168,169
 7 -9 7 -9 3 -10 c 0,170,171
 -15 -14 -15 -14 -25 -14 c 0,172,173
 -62 -14 -62 -14 -74 8 c 0,174,175
 -81 20 -81 20 -81 46 c 2,176,-1
 -81 133 l 1,177,-1
 -81 240 l 1,178,-1
 -81 278 l 2,179,180
 -81 304 -81 304 -90 316 c 1,181,182
 -96 322 -96 322 -100 324 c 0,183,184
 -101 324 -101 324 -102.5 325 c 128,-1,185
 -104 326 -104 326 -105 326 c 2,186,-1
 -106 326 l 1,187,188
 -112 328 -112 328 -114 328 c 0,0,1
157 327 m 1,189,190
 154 328 l 1,191,-1
 155 327 l 1,192,-1
 157 327 l 1,189,190
EndSplineSet
EndChar

StartChar: T
Encoding: 84 84 41
Width: 862
Flags: W
HStem: -13 29<17.126 40.3678 226.1 250 252 382.82> 158 28<221.953 271.466 579 586.969> 158 13<487.188 508.375> 316 40.5<421.281 588> 329 28<78 262.874 420 587.969>
VStem: -70 78<25.3477 316.652> 43 23<34 310 311 326.812> 143 77<17.4375 157.527> 272 78<186.203 317.624> 385 23<17.25 32 34 310 311 326.812> 657 77<-5.76758 120.274>
LayerCount: 2
Fore
SplineSet
511 157 m 1,0,-1
 503 157 l 2,1,2
 502 157 502 157 501 157.5 c 128,-1,3
 500 158 500 158 499 158 c 0,4,5
 487 158 487 158 486 161 c 0,6,7
 485 165 485 165 496 171 c 0,8,9
 502 174 502 174 514 180.5 c 128,-1,10
 526 187 526 187 533 190 c 2,11,-1
 657 252 l 1,12,13
 654 294 654 294 590 315 c 1,14,-1
 588 316 l 1,15,-1
 586 316 l 1,16,-1
 585 316 l 1,17,18
 554 325 554 325 520 328 c 1,19,-1
 511 328 l 2,20,21
 510 328 510 328 507 328.5 c 128,-1,22
 504 329 504 329 502 329 c 2,23,-1
 420 329 l 1,24,-1
 419 328 l 1,25,-1
 419 327 l 1,26,27
 413 321 413 321 410 312 c 1,28,-1
 410 311 l 1,29,-1
 409 310 l 1,30,-1
 409 307 l 2,31,32
 409 306 409 306 408.5 304 c 128,-1,33
 408 302 408 302 408 301 c 2,34,-1
 408 44 l 2,35,36
 408 15 408 15 385 1 c 128,-1,37
 362 -13 362 -13 328 -13 c 2,38,-1
 200 -13 l 2,39,40
 162 -13 162 -13 149 9 c 0,41,42
 143 18 143 18 143 39 c 2,43,-1
 143 114 l 2,44,45
 143 144 143 144 161 158 c 128,-1,46
 179 172 179 172 210 180 c 1,47,48
 238 186 238 186 252 186 c 2,49,-1
 269 186 l 1,50,51
 272 192 272 192 272 218 c 2,52,-1
 272 288 l 2,53,54
 272 306 272 306 263 318 c 0,55,56
 259 322 259 322 249 327 c 0,57,58
 248 327 248 327 247 327.5 c 128,-1,59
 246 328 246 328 245 328 c 128,-1,60
 244 328 244 328 243 328.5 c 128,-1,61
 242 329 242 329 241 329 c 2,62,-1
 78 329 l 1,63,-1
 77 328 l 1,64,-1
 77 327 l 1,65,66
 71 321 71 321 68 312 c 1,67,-1
 68 311 l 1,68,-1
 67 310 l 1,69,-1
 67 307 l 2,70,71
 67 306 67 306 66.5 304 c 128,-1,72
 66 302 66 302 66 301 c 2,73,-1
 66 44 l 2,74,75
 66 22 66 22 51.5 8 c 128,-1,76
 37 -6 37 -6 17 -8 c 0,77,78
 16 -8 l 1,79,-1
 14 -9 l 1,80,81
 -4 -13 -4 -13 -14 -13 c 0,82,83
 -50 -13 -50 -13 -62 9 c 0,84,85
 -70 23 -70 23 -70 47 c 2,86,-1
 -70 279 l 2,87,88
 -70 306 -70 306 -78 317 c 1,89,90
 -83 322 -83 322 -93 327 c 1,91,-1
 -94 327 l 1,92,93
 -98 329 -98 329 -101 329 c 0,94,95
 -111 329 -111 329 -112 332 c 0,96,97
 -114 338 -114 338 -100.5 344.5 c 128,-1,98
 -87 351 -87 351 -71.5 354 c 128,-1,99
 -56 357 -56 357 -48 357 c 0,100,101
 -11 357 -11 357 2 333 c 0,102,103
 8 321 8 321 8 294 c 2,104,-1
 8 63 l 2,105,106
 8 36 8 36 17 25 c 0,107,108
 21 21 21 21 29 17 c 0,109,110
 30 17 30 17 30 16.5 c 128,-1,111
 30 16 30 16 31 16 c 2,112,-1
 32 16 l 1,113,114
 37 21 37 21 41 32 c 1,115,-1
 42 34 l 1,116,-1
 42 36 l 2,117,118
 42 37 42 37 42.5 39.5 c 128,-1,119
 43 42 43 42 43 43 c 2,120,-1
 43 299 l 2,121,122
 43 320 43 320 56.5 334 c 128,-1,123
 70 348 70 348 89 351 c 1,124,125
 106 357 106 357 123 357 c 2,126,-1
 252 357 l 2,127,128
 256 357 256 357 269 357 c 128,-1,129
 282 357 282 357 288 357 c 128,-1,130
 294 357 294 357 304 356 c 128,-1,131
 314 355 314 355 320.5 353 c 128,-1,132
 327 351 327 351 332 347 c 0,133,134
 350 333 350 333 350 281 c 2,135,-1
 350 237 l 2,136,137
 350 210 350 210 345 201 c 0,138,139
 332 174 332 174 271 161 c 0,140,141
 258 158 258 158 241 158 c 2,142,-1
 225 158 l 1,143,144
 220 143 220 143 220 112 c 2,145,-1
 220 56 l 2,146,147
 220 23 220 23 246 16 c 1,148,-1
 248 16 l 1,149,-1
 250 16 l 1,150,-1
 252 15 l 1,151,-1
 312 15 l 1,152,-1
 373 15 l 1,153,154
 381 23 381 23 383 31 c 1,155,-1
 383 32 l 1,156,-1
 384 34 l 1,157,-1
 384 36 l 2,158,159
 384 37 384 37 384.5 39.5 c 128,-1,160
 385 42 385 42 385 43 c 2,161,-1
 385 299 l 2,162,163
 385 320 385 320 398.5 334 c 128,-1,164
 412 348 412 348 431 351 c 1,165,166
 448 357 448 357 465 357 c 2,167,-1
 470 357 l 2,168,169
 529 357 529 357 552.5 356.5 c 128,-1,170
 576 356 576 356 616.5 350 c 128,-1,171
 657 344 657 344 685 331 c 0,172,173
 734 308 734 308 734 268 c 0,174,175
 734 264 734 264 725 258 c 1,176,177
 718 255 718 255 706 248.5 c 128,-1,178
 694 242 694 242 687 239 c 2,179,-1
 579 185 l 1,180,181
 667 179 667 179 707 147 c 0,182,183
 727 130 727 130 732 114 c 0,184,185
 734 109 734 109 734 89 c 2,186,-1
 734 11 l 2,187,188
 734 7 734 7 725 1 c 0,189,190
 703 -13 703 -13 670 -13 c 0,191,192
 657 -13 657 -13 657 -10 c 2,193,-1
 657 51 l 1,194,-1
 657 84 l 1,195,196
 651 119 651 119 603 139 c 1,197,198
 595 141 595 141 587 145 c 1,199,-1
 585 145 l 1,200,201
 564 151 564 151 541 154 c 2,202,-1
 511 157 l 1,0,-1
270 181 m 1,203,-1
 271 181 l 1,204,-1
 270 181 l 1,203,-1
EndSplineSet
EndChar

StartChar: X
Encoding: 88 88 43
Width: 509
Flags: W
HStem: -14 28<218.219 370.77> 0 14<356.621 380.169> 157 28<214 299 301 302> 310 21G<56 57> 328 28<67 277 279 280 280 293.844> 328 14<-123.551 -99.3147>
VStem: -81 77<25.3477 315.622> 31 24<22 23.9995 24.0635 306 308 311 318 320 323 325.969> 132 78<26.3455 148.868 149.032 156.844> 303 78<200.286 316.624>
LayerCount: 2
Fore
SplineSet
367 14 m 2,0,1
 380 14 380 14 381 10 c 128,-1,2
 382 6 382 6 371 0 c 0,3,4
 346 -14 346 -14 317 -14 c 2,5,-1
 190 -14 l 2,6,7
 170 -14 170 -14 156 -7 c 0,8,9
 144 0 144 0 139 9 c 0,10,11
 132 20 132 20 132 38 c 2,12,-1
 132 114 l 2,13,14
 132 127 132 127 136 136 c 0,15,16
 146 166 146 166 200 179 c 0,17,18
 228 185 228 185 241 185 c 2,19,-1
 265 185 l 1,20,-1
 299 185 l 1,21,-1
 302 191 l 1,22,23
 303 196 303 196 303 217 c 2,24,-1
 303 249 l 1,25,-1
 303 287 l 2,26,27
 303 305 303 305 294 317 c 0,28,29
 289 322 289 322 286 324 c 0,30,31
 285 324 285 324 283.5 325 c 128,-1,32
 282 326 282 326 281 326 c 128,-1,33
 280 326 280 326 280 326.5 c 128,-1,34
 280 327 280 327 279 327 c 2,35,-1
 277 328 l 2,36,37
 275 328 275 328 274 328 c 2,38,-1
 271 328 l 1,39,-1
 258 328 l 1,40,-1
 202 328 l 1,41,-1
 67 328 l 1,42,-1
 65 327 l 2,43,44
 64 326 64 326 63 325 c 128,-1,45
 62 324 62 324 62 323 c 2,46,-1
 61 321 l 2,47,48
 60 320 60 320 60 320 c 1,49,50
 60 318 60 318 59 318 c 0,51,52
 58 316 58 316 56 310 c 1,53,-1
 56 311 l 1,54,-1
 56 310 l 1,55,-1
 56 309 l 2,56,57
 56 308 l 1,58,-1
 55 306 l 1,59,-1
 55 300 l 1,60,-1
 55 270 l 1,61,-1
 55 89 l 1,62,-1
 55 43 l 2,63,64
 55 31 55 31 48 19 c 0,65,66
 35 -6 35 -6 6 -9 c 1,67,-1
 5 -10 l 2,68,69
 4 -10 4 -10 3 -10 c 0,70,71
 -15 -14 -15 -14 -25 -14 c 0,72,73
 -62 -14 -62 -14 -74 8 c 0,74,75
 -81 20 -81 20 -81 46 c 2,76,-1
 -81 133 l 1,77,-1
 -81 240 l 1,78,-1
 -81 278 l 2,79,80
 -81 304 -81 304 -90 316 c 1,81,82
 -96 322 -96 322 -100 324 c 0,83,84
 -101 324 -101 324 -102.5 325 c 128,-1,85
 -104 326 -104 326 -105 326 c 2,86,-1
 -106 326 l 1,87,88
 -110 328 -110 328 -113 328 c 0,89,90
 -123 328 -123 328 -124 332 c 0,91,92
 -125 337 -125 337 -115 342 c 0,93,94
 -105 348 -105 348 -88 352 c 0,95,96
 -70 356 -70 356 -60 356 c 0,97,98
 -22 356 -22 356 -9 332 c 0,99,100
 -4 322 -4 322 -4 293 c 2,101,-1
 -4 252 l 1,102,-1
 -4 144 l 1,103,-1
 -4 63 l 2,104,105
 -4 36 -4 36 5 25 c 0,106,107
 11 19 11 19 17 16 c 0,108,109
 18 16 l 1,110,-1
 20 15 l 1,111,-1
 21 15 l 1,112,113
 22 16 22 16 22 17 c 128,-1,114
 22 18 22 18 23 19 c 2,115,-1
 25 21 l 2,116,117
 26 22 26 22 26 22 c 1,118,119
 26 24 26 24 27 24 c 0,120,121
 28 26 28 26 30 32 c 1,122,-1
 30 33 l 1,123,-1
 30 36 l 2,124,125
 30 37 30 37 30.5 39 c 128,-1,126
 31 41 31 41 31 42 c 2,127,-1
 31 72 l 1,128,-1
 31 253 l 1,129,-1
 31 299 l 2,130,131
 31 312 31 312 37 323 c 0,132,133
 48 345 48 345 77 350 c 1,134,135
 94 356 94 356 111 356 c 2,136,-1
 127 356 l 1,137,-1
 300 356 l 2,138,139
 302 356 302 356 315 356.5 c 128,-1,140
 328 357 328 357 333.5 356.5 c 128,-1,141
 339 356 339 356 348 353.5 c 128,-1,142
 357 351 357 351 363 346 c 0,143,144
 378 334 378 334 380 313 c 0,145,146
 381 302 381 302 381 281 c 2,147,-1
 381 236 l 2,148,149
 381 209 381 209 376 200 c 0,150,151
 370 189 370 189 353 179 c 0,152,153
 330 166 330 166 302 160 c 0,154,155
 289 157 289 157 264 157 c 2,156,-1
 228 157 l 1,157,-1
 214 157 l 1,158,159
 214 156 214 156 213 153 c 128,-1,160
 212 150 212 150 211 149 c 0,161,162
 210 145 210 145 210 111 c 2,163,-1
 210 55 l 2,164,165
 210 37 210 37 218 26 c 1,166,167
 225 19 225 19 235 16 c 0,168,169
 236 16 236 16 236 15.5 c 128,-1,170
 236 15 236 15 237 15 c 256,171,172
 238 15 238 15 240 14 c 1,173,-1
 242 14 l 1,174,-1
 243 14 l 1,175,-1
 256 14 l 1,176,-1
 300 14 l 1,177,-1
 367 14 l 2,0,1
301 180 m 1,178,-1
 302 180 l 1,179,-1
 302 181 l 1,180,-1
 301 180 l 1,178,-1
EndSplineSet
EndChar

StartChar: Y
Encoding: 89 89 44
Width: 0
Flags: W
HStem: -698 14<-209.169 -181.483> -271 29<-295.875 -50.2197> -100 29<-301.361 -40.3989>
VStem: -381 78<-239.5 -100.377> -39 78<-590.165 -280.352 -70.4336 6.41016>
LayerCount: 2
Fore
SplineSet
-43 -71 m 1,0,1
 -39 -64 -39 -64 -39 -45 c 2,2,-1
 -39 -10 l 2,3,4
 -39 -2 -39 -2 -19 5.5 c 128,-1,5
 1 13 1 13 18.5 13.5 c 128,-1,6
 36 14 36 14 39 10 c 1,7,-1
 39 -1 l 2,8,9
 39 -2 39 -2 39 -13 c 128,-1,10
 39 -24 39 -24 39 -28 c 128,-1,11
 39 -32 39 -32 38 -40 c 128,-1,12
 37 -48 37 -48 34 -53.5 c 128,-1,13
 31 -59 31 -59 27 -64 c 0,14,15
 -4 -100 -4 -100 -69 -100 c 2,16,-1
 -299 -100 l 1,17,18
 -303 -107 -303 -107 -303 -141 c 2,19,-1
 -303 -175 l 2,20,21
 -303 -176 -303 -176 -303 -183 c 128,-1,22
 -303 -190 -303 -190 -303 -192 c 128,-1,23
 -303 -194 -303 -194 -302.5 -200.5 c 128,-1,24
 -302 -207 -302 -207 -301.5 -209.5 c 128,-1,25
 -301 -212 -301 -212 -300 -217.5 c 128,-1,26
 -299 -223 -299 -223 -297.5 -225 c 128,-1,27
 -296 -227 -296 -227 -294 -231 c 128,-1,28
 -292 -235 -292 -235 -289 -236.5 c 128,-1,29
 -286 -238 -286 -238 -282 -240 c 128,-1,30
 -278 -242 -278 -242 -273 -242 c 2,31,-1
 -271 -242 l 1,32,-1
 -18 -242 l 2,33,34
 2 -242 2 -242 18.5 -251.5 c 128,-1,35
 35 -261 35 -261 38 -280 c 0,36,37
 39 -286 39 -286 39 -299 c 2,38,-1
 39 -498 l 2,39,40
 39 -547 39 -547 18 -588 c 128,-1,41
 -3 -629 -3 -629 -36 -652 c 0,42,43
 -102 -698 -102 -698 -196 -698 c 0,44,45
 -209 -698 -209 -698 -210 -694 c 128,-1,46
 -211 -690 -211 -690 -200 -684 c 0,47,48
 -185 -676 -185 -676 -158 -673.5 c 128,-1,49
 -131 -671 -131 -671 -121 -668 c 0,50,51
 -81 -652 -81 -652 -60 -609.5 c 128,-1,52
 -39 -567 -39 -567 -39 -509 c 2,53,-1
 -39 -336 l 2,54,55
 -39 -291 -39 -291 -50 -280 c 0,56,57
 -57 -273 -57 -273 -68 -271 c 1,58,-1
 -318 -271 l 2,59,60
 -381 -271 -381 -271 -381 -215 c 2,61,-1
 -381 -157 l 2,62,63
 -381 -112 -381 -112 -361 -98 c 0,64,65
 -323 -71 -323 -71 -266 -71 c 2,66,-1
 -43 -71 l 1,0,1
-301 -95 m 1,67,-1
 -302 -95 l 1,68,-1
 -301 -95 l 1,67,-1
EndSplineSet
EndChar

StartChar: Z
Encoding: 90 90 45
Width: 851
Flags: W
HStem: 300 20G<270.5 276> 317 21G<268.5 272> 328 28<66 271.782 430 571.937> 328 14<-123.551 -100.031>
VStem: -81 77<22.4407 315.622> 31 24<24.0635 306 308 317.937 318 320 323 327.804> 282 77<22.4094 319.591> 394 24<21 21.9998 22.0312 319.969 320 321> 645 78<49.717 85.4814>
LayerCount: 2
Fore
SplineSet
-114 328 m 0,0,1
 -123 328 -123 328 -124 332 c 0,2,3
 -125 337 -125 337 -115 342 c 0,4,5
 -105 348 -105 348 -88 352 c 0,6,7
 -70 356 -70 356 -60 356 c 0,8,9
 -22 356 -22 356 -9 332 c 0,10,11
 -4 322 -4 322 -4 293 c 2,12,-1
 -4 252 l 1,13,-1
 -4 144 l 1,14,-1
 -4 63 l 2,15,16
 -4 36 -4 36 8 22 c 0,17,18
 12 18 12 18 17 16 c 0,19,20
 18 15 18 15 20 15 c 1,21,22
 21 16 21 16 22 16 c 1,23,24
 22 16 22 16 22 17 c 0,25,26
 23 19 l 1,27,-1
 25 21 l 2,28,29
 26 22 26 22 26 22 c 1,30,31
 26 24 26 24 27 24 c 0,32,33
 28 26 28 26 30 32 c 1,34,-1
 30 33 l 1,35,-1
 30 36 l 2,36,37
 30 37 30 37 30.5 39 c 128,-1,38
 31 41 31 41 31 42 c 2,39,-1
 31 72 l 1,40,-1
 31 253 l 1,41,-1
 31 299 l 2,42,43
 31 312 31 312 37 323 c 0,44,45
 49 346 49 346 75 350 c 1,46,47
 93 356 93 356 111 356 c 2,48,-1
 116 356 l 1,49,-1
 281 356 l 2,50,51
 283 356 283 356 291 356 c 128,-1,52
 299 356 299 356 302 356 c 128,-1,53
 305 356 305 356 312.5 355.5 c 128,-1,54
 320 355 320 355 323.5 354 c 128,-1,55
 327 353 327 353 332.5 351 c 128,-1,56
 338 349 338 349 342 345.5 c 128,-1,57
 346 342 346 342 349 338 c 0,58,59
 359 326 359 326 359 300 c 2,60,-1
 359 131 l 1,61,-1
 359 61 l 2,62,63
 359 35 359 35 371 22 c 1,64,65
 370 23 370 23 369.5 24 c 128,-1,66
 369 25 369 25 369 25 c 1,67,68
 376 18 376 18 380 16 c 0,69,70
 381 15 381 15 383 15 c 2,71,-1
 385 16 l 1,72,73
 385 16 385 16 386 17.5 c 128,-1,74
 387 19 l 1,75,-1
 388 21 l 2,76,77
 388 22 388 22 389 22 c 2,78,-1
 390 24 l 2,79,80
 391 26 391 26 393 32 c 1,81,-1
 393 33 l 2,82,83
 393 34 393 34 394 36 c 1,84,-1
 394 42 l 1,85,-1
 394 72 l 1,86,-1
 394 253 l 1,87,-1
 394 299 l 2,88,89
 394 312 394 312 400 323 c 0,90,91
 412 345 412 345 438 350 c 1,92,93
 456 356 456 356 474 356 c 0,94,95
 557 356 557 356 584 353 c 0,96,97
 638 348 638 348 674 331 c 0,98,99
 723 308 723 308 723 267 c 0,100,101
 723 264 723 264 713 257 c 1,102,103
 706 254 706 254 694 247.5 c 128,-1,104
 682 241 682 241 676 238 c 2,105,-1
 559 180 l 1,106,107
 560 179 560 179 570.5 173.5 c 128,-1,108
 581 168 581 168 587 165 c 2,109,-1
 721 98 l 1,110,-1
 723 96 l 1,111,112
 723 83 723 83 716 71 c 1,113,114
 702 42 702 42 661 22 c 0,115,116
 586 -14 586 -14 488 -14 c 0,117,118
 475 -14 475 -14 474 -10 c 128,-1,119
 473 -6 473 -6 484 0 c 0,120,121
 509 14 509 14 538 14 c 0,122,123
 542 14 542 14 549 14.5 c 128,-1,124
 556 15 556 15 559 15 c 2,125,-1
 569 15 l 1,126,-1
 566 15 l 1,127,-1
 571 15 l 2,128,129
 573 15 573 15 576.5 16 c 128,-1,130
 580 17 580 17 583 17.5 c 128,-1,131
 586 18 586 18 589 18 c 2,132,-1
 592 18 l 1,133,-1
 594 18 l 1,134,-1
 596 19 l 2,135,136
 597 20 597 20 599 20 c 128,-1,137
 601 20 601 20 602 21 c 2,138,-1
 604 22 l 2,139,140
 605 22 605 22 606.5 23 c 128,-1,141
 608 24 608 24 609 24 c 128,-1,142
 610 24 610 24 611 25 c 2,143,-1
 615 28 l 2,144,145
 616 29 616 29 618.5 30.5 c 128,-1,146
 621 32 621 32 622 33 c 2,147,-1
 628 39 l 2,148,149
 629 39 629 39 630 41 c 0,150,151
 635 46 635 46 638 52 c 0,152,153
 642 61 642 61 644 67 c 0,154,155
 645 70 645 70 645 74 c 1,156,157
 639 77 639 77 627.5 83 c 128,-1,158
 616 89 616 89 610 92 c 0,159,160
 588 103 588 103 543 125 c 128,-1,161
 498 147 498 147 476 158 c 0,162,163
 472 161 472 161 476 165 c 128,-1,164
 480 169 480 169 484 171 c 0,165,166
 490 174 490 174 502 180 c 128,-1,167
 514 186 514 186 521 189 c 2,168,-1
 645 251 l 1,169,170
 643 269 643 269 631 284 c 1,171,172
 613 302 613 302 584 312 c 0,173,174
 583 312 583 312 580.5 313 c 128,-1,175
 578 314 578 314 577 315 c 0,176,177
 576 315 576 315 575 315.5 c 128,-1,178
 574 316 574 316 573 316 c 2,179,180
 573 316 573 316 572 316 c 0,181,182
 570 317 570 317 565.5 318 c 128,-1,183
 561 319 561 319 559 319 c 0,184,185
 541 323 541 323 532 324 c 0,186,187
 519 326 519 326 497 328 c 1,188,-1
 498 327 l 2,189,190
 497 328 l 1,191,-1
 492 328 l 1,192,-1
 488 328 l 1,193,-1
 430 328 l 1,194,-1
 429 327 l 1,195,-1
 427 326 l 1,196,197
 427 326 427 326 426 324.5 c 128,-1,198
 425 323 l 1,199,-1
 424 321 l 2,200,201
 424 320 424 320 423 320 c 2,202,-1
 422 318 l 2,203,204
 421 316 421 316 419 310 c 1,205,-1
 419 309 l 1,206,-1
 419 306 l 2,207,208
 419 305 419 305 418.5 303 c 128,-1,209
 418 301 418 301 418 300 c 2,210,-1
 418 270 l 1,211,-1
 418 89 l 1,212,-1
 418 43 l 2,213,214
 418 30 418 30 412 19 c 0,215,216
 400 -4 400 -4 373 -8 c 0,217,218
 370 -9 370 -9 366 -10 c 0,219,220
 348 -14 348 -14 338 -14 c 0,221,222
 309 -14 309 -14 294 2 c 0,223,224
 287 9 287 9 283 24 c 0,225,226
 282 30 282 30 282 42 c 2,227,-1
 282 211 l 1,228,-1
 282 281 l 2,229,230
 282 307 282 307 270 320 c 1,231,232
 271 319 271 319 271.5 318 c 128,-1,233
 272 317 272 317 272 317 c 1,234,235
 265 324 265 324 261 326 c 0,236,237
 260 327 260 327 257 327 c 2,238,-1
 256 327 l 2,239,240
 255 327 255 327 254 328 c 1,241,-1
 252 328 l 1,242,-1
 247 328 l 1,243,-1
 209 328 l 1,244,-1
 66 328 l 1,245,246
 66 328 66 328 65 327 c 256,247,248
 64 326 64 326 63 325 c 128,-1,249
 62 324 62 324 62 323 c 2,250,-1
 61 321 l 2,251,252
 60 320 60 320 60 320 c 1,253,254
 60 318 60 318 59 318 c 0,255,256
 58 316 58 316 56 310 c 1,257,-1
 56 309 l 2,258,259
 56 308 l 1,260,-1
 55 306 l 1,261,-1
 55 300 l 1,262,-1
 55 270 l 1,263,-1
 55 89 l 1,264,-1
 55 43 l 2,265,266
 55 31 55 31 48 19 c 0,267,268
 36 -3 36 -3 11 -8 c 0,269,270
 7 -9 7 -9 3 -10 c 0,271,272
 -15 -14 -15 -14 -25 -14 c 0,273,274
 -62 -14 -62 -14 -74 8 c 0,275,276
 -81 20 -81 20 -81 47 c 2,277,-1
 -81 133 l 1,278,-1
 -81 240 l 1,279,-1
 -81 278 l 2,280,281
 -81 304 -81 304 -90 316 c 1,282,283
 -96 322 -96 322 -100 324 c 0,284,285
 -101 324 -101 324 -102.5 325 c 128,-1,286
 -104 326 -104 326 -105 326 c 2,287,-1
 -106 326 l 1,288,289
 -112 328 -112 328 -114 328 c 0,0,1
498 327 m 2,290,-1
 499 327 l 1,291,292
 498 327 l 2,290,-1
EndSplineSet
EndChar

StartChar: bracketleft
Encoding: 91 91 46
Width: 258
Flags: W
HStem: -14 29<-24 22> 336 20G<-62 -39.5> 336 20G<-62 -39.5> 441 71<220.003 279.983> 484 28<63.0015 194 194.008 211.539>
VStem: -80 78<15.625 325.551> 31 25<19 21.9844 22 29.9375 30 477 478 483.341> 220 77<448.55 480.703>
LayerCount: 2
Fore
SplineSet
-103 326 m 0,0,1
 -105 326 -105 326 -107.5 327 c 128,-1,2
 -110 328 -110 328 -112 328 c 0,3,4
 -121 328 -121 328 -122 332 c 0,5,6
 -124 338 -124 338 -110.5 344 c 128,-1,7
 -97 350 -97 350 -81.5 353 c 128,-1,8
 -66 356 -66 356 -58 356 c 0,9,10
 -21 356 -21 356 -8 332 c 0,11,12
 -2 320 -2 320 -2 293 c 2,13,-1
 -2 63 l 2,14,15
 -2 26 -2 26 19 16 c 0,16,17
 20 15 20 15 22 15 c 1,18,19
 26 19 26 19 26 19 c 2,20,21
 26 20 26 20 27 21 c 2,22,-1
 28 22 l 1,23,24
 28 24 28 24 29 26 c 128,-1,25
 30 28 30 28 31 30 c 0,26,27
 31 31 31 31 32 32 c 1,28,-1
 32 33 l 1,29,-1
 32 36 l 2,30,31
 32 37 32 37 32.5 38.5 c 128,-1,32
 33 40 33 40 33 41 c 2,33,-1
 33 454 l 2,34,35
 33 475 33 475 47 489.5 c 128,-1,36
 61 504 61 504 80 507 c 1,37,38
 97 512 97 512 113 512 c 2,39,-1
 241 512 l 2,40,41
 264 512 264 512 280.5 500 c 128,-1,42
 297 488 297 488 297 465 c 0,43,44
 297 462 297 462 287 455 c 0,45,46
 265 441 265 441 233 441 c 0,47,48
 220 441 220 441 220 445 c 0,49,50
 220 470 220 470 196 482 c 0,51,52
 195 482 195 482 194.5 482.5 c 128,-1,53
 194 483 194 483 194 483 c 2,54,55
 193 483 193 483 192 484 c 1,56,-1
 190 484 l 1,57,-1
 69 484 l 1,58,59
 63 479 63 479 63 478 c 2,60,-1
 62 477 l 1,61,-1
 62 476 l 2,62,63
 62 474 62 474 60 471 c 128,-1,64
 58 468 58 468 58 467 c 256,65,66
 58 466 58 466 57 465 c 1,67,-1
 57 461 l 2,68,69
 57 460 57 460 56.5 459 c 128,-1,70
 56 458 56 458 56 457 c 2,71,-1
 56 43 l 2,72,73
 56 2 56 2 4 -10 c 0,74,75
 -14 -14 -14 -14 -24 -14 c 0,76,77
 -60 -14 -60 -14 -72 8 c 0,78,79
 -80 22 -80 22 -80 46 c 2,80,-1
 -80 278 l 2,81,82
 -80 315 -80 315 -103 326 c 0,0,1
31 32 m 0,83,-1
31 32 m 2,84,85
 31 32 31 32 31 31 c 2,86,87
 31 31 31 31 31 32 c 2,84,85
27 20 m 2,88,89
 27 21 l 1,90,-1
 27 20 l 2,88,89
58 466 m 0,91,-1
58 466 m 0,92,-1
EndSplineSet
EndChar

StartChar: bracketright
Encoding: 93 93 47
Width: 0
Flags: W
HStem: -698 30<93 119.003> -690.5 20.5<93.312 122.301>
VStem: -39 78<-647.622 5.85156>
LayerCount: 2
Fore
SplineSet
93 -668 m 1,0,1
 103 -670 103 -670 111 -670 c 0,2,3
 123 -669 123 -669 124 -674 c 0,4,5
 127 -683 127 -683 101 -690.5 c 128,-1,6
 75 -698 75 -698 60 -698 c 0,7,8
 16 -698 16 -698 -11 -674 c 128,-1,9
 -38 -650 -38 -650 -39 -609 c 1,10,-1
 -39 -589 l 1,11,-1
 -39 -10 l 2,12,13
 -39 -2 -39 -2 -19 5 c 128,-1,14
 1 12 1 12 18.5 13 c 128,-1,15
 36 14 36 14 39 10 c 1,16,-1
 39 -574 l 2,17,18
 39 -651 39 -651 93 -667 c 1,19,-1
 93 -668 l 1,0,1
EndSplineSet
EndChar

StartChar: a
Encoding: 97 97 49
Width: 0
Flags: W
HStem: -13 28<-3 47.4062>
VStem: -153 78<55.1443 120.562> 75 78<53.3599 120.562>
LayerCount: 2
Fore
SplineSet
19 15 m 2,0,-1
 32 15 l 1,1,2
 33 16 33 16 37.5 19 c 128,-1,3
 42 22 42 22 44 24 c 0,4,5
 75 55 75 55 75 104 c 0,6,7
 75 107 75 107 85 114 c 0,8,9
 109 129 109 129 139 129 c 0,10,11
 153 129 153 129 153 125 c 0,12,13
 153 109 153 109 145 83 c 0,14,15
 129 34 129 34 85 13 c 0,16,17
 36 -11 36 -11 -19 -13 c 0,18,19
 -57 -15 -57 -15 -87 -2 c 128,-1,20
 -117 11 -117 11 -135 40.5 c 128,-1,21
 -153 70 -153 70 -153 104 c 0,22,23
 -153 107 -153 107 -143 114 c 0,24,25
 -119 129 -119 129 -89 129 c 0,26,27
 -75 129 -75 129 -75 125 c 0,28,29
 -75 89 -75 89 -55 58 c 128,-1,30
 -35 27 -35 27 -4 19 c 1,31,-1
 -3 18 l 2,32,33
 -2 18 -2 18 -1 18 c 0,34,35
 1 17 1 17 6 17 c 1,36,37
 14 15 14 15 19 15 c 2,0,-1
35 15 m 1,38,-1
 36 15 l 1,39,-1
 35 15 l 1,38,-1
EndSplineSet
EndChar

StartChar: b
Encoding: 98 98 50
Width: 509
Flags: W
HStem: -14 21G<-31.5 -20 318 337.5> -14 21G<-31.5 -20 318 337.5> 157 28<63 230> 242 21G<-31.5 -22.5> 328 28<53.3926 61.9998 65 274 275 294.75>
VStem: -38 77<-6.30859 148.593 250.691 287> 245 24<15.4373 154.51> 304 77<16.0938 315.651>
LayerCount: 2
Fore
SplineSet
-38 -10 m 2,0,-1
 -38 96 l 1,1,-1
 -38 141 l 1,2,3
 -36 153 -36 153 -31 163 c 0,4,5
 -20 181 -20 181 4 184 c 0,6,7
 15 185 15 185 39 185 c 2,8,-1
 71 185 l 1,9,-1
 129 185 l 1,10,-1
 188 185 l 2,11,12
 203 185 203 185 221 180 c 1,13,14
 233 178 233 178 243 173 c 0,15,16
 256 165 256 165 261 157 c 0,17,18
 269 144 269 144 269 125 c 2,19,-1
 269 48 l 2,20,21
 269 47 269 47 268.5 44.5 c 128,-1,22
 268 42 268 42 268 41 c 1,23,-1
 269 41 l 1,24,-1
 269 38 l 2,25,26
 269 34 269 34 271 30 c 2,27,-1
 273 26 l 2,28,29
 274 24 274 24 274 23 c 128,-1,30
 274 22 274 22 275 21 c 128,-1,31
 276 20 276 20 277 19 c 2,32,-1
 278 18 l 1,33,-1
 280 16 l 1,34,-1
 281 15 l 2,35,36
 282 15 282 15 282 15.5 c 128,-1,37
 282 16 282 16 283 16 c 2,38,-1
 292 22 l 1,39,40
 296 26 296 26 298.5 31 c 128,-1,41
 301 36 301 36 302 42.5 c 128,-1,42
 303 49 303 49 303 52.5 c 128,-1,43
 303 56 303 56 303 64.5 c 128,-1,44
 303 73 303 73 303 75 c 0,45,46
 303 82 303 82 303.5 96.5 c 128,-1,47
 304 111 304 111 304 118 c 2,48,-1
 304 123 l 1,49,-1
 304 218 l 1,50,-1
 304 224 l 1,51,-1
 304 272 l 2,52,53
 304 305 304 305 295 316 c 1,54,55
 287 324 287 324 278 327 c 1,56,-1
 275 327 l 1,57,-1
 274 328 l 1,58,-1
 272 328 l 1,59,-1
 261 328 l 1,60,-1
 142 328 l 1,61,-1
 112 328 l 1,62,-1
 77 328 l 1,63,-1
 65 328 l 1,64,-1
 62 325 l 2,65,66
 62 324 62 324 61 324 c 128,-1,67
 60 324 60 324 59 323 c 256,68,69
 58 322 58 322 57 320 c 128,-1,70
 56 318 56 318 56 318 c 1,71,72
 47 307 47 307 42 287 c 1,73,-1
 39 267 l 2,74,75
 39 264 39 264 29 257 c 128,-1,76
 19 250 19 250 3 247 c 0,77,78
 -20 242 -20 242 -25 242 c 0,79,80
 -38 242 -38 242 -38 246 c 0,81,82
 -38 274 -38 274 -24 297 c 0,83,84
 -10 321 -10 321 23 336 c 0,85,86
 48 348 48 348 75 353 c 0,87,88
 93 356 93 356 128 356 c 2,89,-1
 244 356 l 1,90,-1
 323 356 l 2,91,92
 375 356 375 356 380 319 c 0,93,94
 381 311 381 311 381 296 c 2,95,-1
 381 271 l 1,96,-1
 381 212 l 1,97,-1
 381 204 l 1,98,-1
 381 139 l 1,99,-1
 381 138 l 1,100,-1
 381 95 l 1,101,-1
 381 32 l 2,102,103
 381 21 381 21 376 11 c 0,104,105
 372 1 372 1 361 -6 c 0,106,107
 350 -14 350 -14 325 -14 c 0,108,109
 311 -14 311 -14 293 -9 c 1,110,111
 263 -7 263 -7 252 15 c 0,112,113
 245 29 245 29 245 42 c 2,114,-1
 245 99 l 1,115,-1
 245 124 l 2,116,117
 245 129 245 129 243 139 c 0,118,119
 242 144 242 144 238 149 c 0,120,121
 235 154 235 154 232 155 c 1,122,-1
 231 156 l 1,123,-1
 230 157 l 1,124,-1
 226 157 l 1,125,-1
 155 157 l 1,126,-1
 91 157 l 1,127,-1
 76 157 l 1,128,-1
 69 157 l 1,129,-1
 67 157 l 2,130,131
 66 157 66 157 65 156.5 c 128,-1,132
 64 156 64 156 63 156 c 2,133,-1
 57 153 l 2,134,135
 51 150 51 150 50 149 c 0,136,137
 39 136 39 136 39 118 c 2,138,-1
 39 75 l 1,139,-1
 39 10 l 2,140,141
 39 7 39 7 29 0 c 128,-1,142
 19 -7 19 -7 3 -10 c 0,143,144
 -15 -14 -15 -14 -25 -14 c 0,145,146
 -38 -14 -38 -14 -38 -10 c 2,0,-1
EndSplineSet
EndChar

StartChar: d
Encoding: 100 100 51
Width: 508
Flags: W
HStem: -14 28<44.7976 300.043> 336 20G<-22.5 9.5> 336 20G<-22.5 9.5> 854 14<439.675 464.551>
VStem: -40 77<18.3171 325.651> 302 77<14.8025 811.606>
LayerCount: 2
Fore
SplineSet
-40 282 m 2,0,1
 -40 315 -40 315 -61 326 c 0,2,3
 -62 326 -62 326 -62 326.5 c 128,-1,4
 -62 327 -62 327 -63 327 c 2,5,-1
 -66 327 l 1,6,-1
 -67 328 l 2,7,8
 -68 328 -68 328 -69 328 c 0,9,10
 -81 328 -81 328 -82 332 c 0,11,12
 -84 339 -84 339 -70.5 344.5 c 128,-1,13
 -57 350 -57 350 -42 353 c 128,-1,14
 -27 356 -27 356 -18 356 c 0,15,16
 37 356 37 356 37 308 c 2,17,-1
 37 57 l 2,18,19
 37 28 37 28 56 18 c 0,20,21
 57 18 57 18 58.5 17 c 128,-1,22
 60 16 60 16 61 16 c 2,23,-1
 62 16 l 1,24,25
 68 14 68 14 70 14 c 2,26,-1
 298 14 l 1,27,28
 302 22 302 22 302 44 c 2,29,-1
 302 733 l 1,30,31
 305 807 305 807 350 838 c 0,32,33
 395 868 395 868 452 868 c 0,34,35
 464 868 464 868 465 864 c 0,36,37
 466 859 466 859 456 854 c 0,38,39
 438 845 438 845 412 841 c 1,40,-1
 409 838 l 2,41,42
 408 837 408 837 407 835.5 c 128,-1,43
 406 834 406 834 405 833 c 0,44,45
 392 816 392 816 385 788 c 0,46,47
 379 764 379 764 379 750 c 2,48,-1
 379 55 l 2,49,50
 379 36 379 36 372 25 c 0,51,52
 343 -14 343 -14 267 -14 c 2,53,-1
 24 -14 l 2,54,55
 -34 -14 -34 -14 -39 24 c 0,56,57
 -40 32 -40 32 -40 49 c 2,58,-1
 -40 282 l 2,0,1
EndSplineSet
EndChar

StartChar: e
Encoding: 101 101 52
Width: 0
Flags: W
HStem: -14 21G<-32 -22.5> -14 21G<-32 -22.5>
VStem: -39 78<-5.30859 27.6267> 40 1<25.1094 26>
LayerCount: 2
Fore
SplineSet
39 11 m 0,0,1
 39 8 39 8 29 1 c 128,-1,2
 19 -6 19 -6 3 -9 c 0,3,4
 -20 -14 -20 -14 -25 -14 c 0,5,6
 -39 -14 -39 -14 -39 -10 c 0,7,8
 -39 9 -39 9 -28 33 c 0,9,10
 -15 63 -15 63 17 105 c 128,-1,11
 49 147 49 147 84 184 c 0,12,13
 156 260 156 260 234 331 c 0,14,15
 282 375 282 375 307 396 c 0,16,17
 308 397 308 397 329 406 c 1,18,19
 349 412 349 412 359 413 c 0,20,21
 373 415 373 415 379 412 c 0,22,23
 383 410 383 410 377 404 c 2,24,-1
 374 401 l 1,25,26
 321 356 321 356 279 317 c 0,27,28
 241 282 241 282 204 245 c 2,29,-1
 194 235 l 1,30,-1
 191 232 l 1,31,-1
 192 233 l 1,32,-1
 187 228 l 2,33,34
 184 224 184 224 178 218 c 128,-1,35
 172 212 172 212 169 209 c 0,36,37
 168 208 168 208 153.5 192.5 c 128,-1,38
 139 177 139 177 132 169 c 0,39,40
 93 123 93 123 72 91 c 0,41,42
 47 52 47 52 40 25 c 1,43,44
 40 26 l 1,45,-1
 41 28 l 1,46,47
 39 16 39 16 39 11 c 0,0,1
EndSplineSet
EndChar

StartChar: f
Encoding: 102 102 53
Width: 873
Flags: W
HStem: -14 30<23.375 42 46.0002 47 390.188 403 404 405> 328 28<-92.9177 -68.187 86 87 88 276 278 280 281 293.812 451 639>
VStem: -60 77<16.0637 315.652> 52 24<21 21.9998 22.0312 319.969 320 321> 303 77<25.4395 316.622> 416 24<33.0469 309 310.187 320> 667 77<-6.41992 315.684>
LayerCount: 2
Fore
SplineSet
-103 332 m 128,-1,1
 -104 336 -104 336 -93 342 c 1,2,3
 -83 349 -83 349 -67 352 c 0,4,5
 -49 356 -49 356 -39 356 c 0,6,7
 4 356 4 356 15 326 c 0,8,9
 17 320 17 320 17 292 c 2,10,-1
 17 273 l 1,11,-1
 17 227 l 1,12,-1
 17 124 l 1,13,-1
 17 83 l 1,14,-1
 17 52 l 1,15,16
 19 36 19 36 27 25 c 1,17,18
 34 18 34 18 38 16 c 1,19,-1
 39 16 l 1,20,21
 40 15 40 15 41 15 c 2,22,-1
 42 15 l 1,23,24
 42 16 42 16 43 17 c 128,-1,25
 44 18 44 18 45 19 c 2,26,-1
 46 21 l 2,27,28
 46 22 46 22 47 22 c 2,29,-1
 48 24 l 2,30,31
 49 26 49 26 51 32 c 1,32,-1
 51 33 l 2,33,34
 51 34 51 34 52 36 c 1,35,-1
 52 42 l 1,36,-1
 52 72 l 1,37,-1
 52 253 l 1,38,-1
 52 299 l 2,39,40
 52 312 52 312 58 323 c 0,41,42
 69 345 69 345 99 350 c 1,43,44
 116 356 116 356 132 356 c 2,45,-1
 137 356 l 1,46,-1
 302 356 l 2,47,48
 305 356 305 356 311.5 356 c 128,-1,49
 318 356 318 356 321 356 c 128,-1,50
 324 356 324 356 330 356 c 128,-1,51
 336 356 336 356 339.5 355 c 128,-1,52
 343 354 343 354 348 353 c 128,-1,53
 353 352 353 352 356.5 350 c 128,-1,54
 360 348 360 348 364 345 c 128,-1,55
 368 342 368 342 371 338 c 0,56,57
 380 327 380 327 380 300 c 2,58,-1
 380 131 l 1,59,-1
 380 61 l 2,60,61
 380 39 380 39 390 25 c 1,62,63
 396 19 396 19 402 16 c 1,64,-1
 403 16 l 1,65,-1
 404 15 l 1,66,-1
 405 15 l 1,67,68
 406 16 406 16 407 17 c 128,-1,69
 408 18 408 18 408 19 c 2,70,-1
 410 21 l 2,71,72
 410 22 410 22 410 22 c 2,73,74
 410 24 410 24 411 24 c 0,75,76
 412 26 412 26 414 32 c 1,77,-1
 415 33 l 1,78,-1
 415 36 l 2,79,80
 415 37 415 37 415.5 39 c 128,-1,81
 416 41 416 41 416 42 c 2,82,-1
 416 72 l 1,83,-1
 416 253 l 1,84,-1
 416 299 l 2,85,86
 416 312 416 312 422 323 c 0,87,88
 433 345 433 345 462 350 c 1,89,90
 478 356 478 356 496 356 c 2,91,-1
 615 356 l 1,92,-1
 685 356 l 2,93,94
 730 356 730 356 741 327 c 0,95,96
 744 319 744 319 744 293 c 2,97,-1
 744 255 l 1,98,-1
 744 152 l 2,99,100
 744 128 744 128 744.5 81 c 128,-1,101
 745 34 745 34 745 10 c 0,102,103
 745 6 745 6 736 0 c 0,104,105
 726 -6 726 -6 709 -10 c 0,106,107
 691 -14 691 -14 681 -14 c 0,108,109
 668 -14 668 -14 668 -10 c 2,110,-1
 668 -9 l 2,111,112
 668 17 668 17 667.5 69 c 128,-1,113
 667 121 667 121 667 147 c 2,114,-1
 667 246 l 1,115,-1
 667 280 l 2,116,117
 667 306 667 306 659 316 c 0,118,119
 653 322 653 322 646 325 c 2,120,-1
 640 327 l 1,121,-1
 639 328 l 2,122,123
 638 328 638 328 637 328 c 2,124,-1
 636 328 l 1,125,-1
 594 328 l 1,126,-1
 451 328 l 1,127,-1
 450 327 l 2,128,129
 450 326 450 326 449 325 c 128,-1,130
 448 324 448 324 447 323 c 2,131,-1
 445 321 l 2,132,133
 444 320 444 320 444 320 c 1,134,-1
 444 318 l 1,135,136
 443 316 443 316 441 310 c 1,137,-1
 440 309 l 1,138,-1
 440 306 l 1,139,-1
 440 300 l 1,140,-1
 440 270 l 1,141,-1
 440 89 l 1,142,-1
 440 43 l 2,143,144
 440 31 440 31 433 19 c 0,145,146
 420 -6 420 -6 390 -9 c 1,147,-1
 387 -10 l 1,148,149
 369 -14 369 -14 359 -14 c 0,150,151
 330 -14 330 -14 315 2 c 0,152,153
 308 9 308 9 304 24 c 0,154,155
 303 30 303 30 303 42 c 2,156,-1
 303 211 l 1,157,-1
 303 281 l 2,158,159
 303 305 303 305 294 317 c 1,160,161
 288 323 288 323 282 326 c 1,162,-1
 281 326 l 1,163,-1
 280 327 l 1,164,-1
 278 327 l 1,165,-1
 276 328 l 1,166,-1
 274 328 l 1,167,-1
 268 328 l 1,168,-1
 230 328 l 1,169,-1
 88 328 l 1,170,-1
 87 327 l 1,171,-1
 86 327 l 1,172,173
 86 326 86 326 85 325 c 128,-1,174
 84 324 84 324 83 323 c 2,175,-1
 82 321 l 2,176,177
 82 320 82 320 81 320 c 2,178,-1
 80 318 l 2,179,180
 79 316 79 316 77 310 c 1,181,-1
 77 309 l 1,182,-1
 77 306 l 2,183,184
 77 305 77 305 76.5 303 c 128,-1,185
 76 301 76 301 76 300 c 2,186,-1
 76 270 l 1,187,-1
 76 89 l 1,188,-1
 76 43 l 2,189,190
 76 30 76 30 70 19 c 0,191,192
 57 -6 57 -6 27 -9 c 1,193,-1
 24 -10 l 1,194,195
 6 -14 6 -14 -4 -14 c 0,196,197
 -43 -14 -43 -14 -55 12 c 0,198,199
 -60 23 -60 23 -60 44 c 2,200,-1
 -60 125 l 1,201,-1
 -60 216 l 1,202,-1
 -60 258 l 1,203,-1
 -60 278 l 2,204,205
 -60 305 -60 305 -68 316 c 1,206,207
 -74 322 -74 322 -78 324 c 0,208,209
 -79 324 -79 324 -81 325 c 128,-1,210
 -83 326 -83 326 -84 326 c 2,211,-1
 -85 326 l 1,212,213
 -89 328 -89 328 -92 328 c 0,214,0
 -102 328 -102 328 -103 332 c 128,-1,1
EndSplineSet
EndChar

StartChar: g
Encoding: 103 103 54
Width: 510
Flags: W
HStem: -14 28<-28.7695 128> -14 14<-38.1689 -14.6211 120 121> 157 28<45.5703 122.842> 328 28<39.5625 294.843>
VStem: -39 78<187.266 327.875> 132 78<20.1294 145.624> 304 77<-6.60938 315.684>
LayerCount: 2
Fore
SplineSet
-25 -14 m 2,0,1
 -38 -14 -38 -14 -39 -10 c 128,-1,2
 -40 -6 -40 -6 -29 0 c 0,3,4
 -4 14 -4 14 25 14 c 2,5,-1
 61 14 l 1,6,-1
 128 14 l 1,7,8
 130 18 130 18 131 20 c 0,9,10
 132 24 132 24 132 46 c 2,11,-1
 132 78 l 1,12,-1
 132 116 l 2,13,14
 132 134 132 134 123 146 c 0,15,16
 118 152 118 152 106 156 c 0,17,18
 105 157 105 157 104 157 c 2,19,-1
 103 157 l 1,20,-1
 85 157 l 1,21,-1
 25 157 l 2,22,23
 -10 157 -10 157 -24 170 c 0,24,25
 -34 179 -34 179 -37 192 c 0,26,27
 -39 204 -39 204 -39 211 c 2,28,-1
 -39 234 l 1,29,-1
 -39 289 l 2,30,31
 -39 303 -39 303 -31 316 c 0,32,33
 -23 328 -23 328 -7 337 c 0,34,35
 29 356 29 356 69 356 c 2,36,-1
 237 356 l 1,37,-1
 321 356 l 2,38,39
 367 356 367 356 378 327 c 0,40,41
 381 319 381 319 381 293 c 2,42,-1
 381 255 l 1,43,-1
 381 152 l 2,44,45
 381 128 381 128 381.5 81 c 128,-1,46
 382 34 382 34 382 10 c 0,47,48
 382 7 382 7 372 0 c 128,-1,49
 362 -7 362 -7 346 -10 c 0,50,51
 328 -14 328 -14 318 -14 c 0,52,53
 304 -14 304 -14 304 -10 c 2,54,-1
 304 -9 l 1,55,-1
 304 147 l 2,56,57
 304 164 304 164 303.5 197 c 128,-1,58
 303 230 303 230 303 246 c 2,59,-1
 303 280 l 2,60,61
 303 306 303 306 295 316 c 0,62,63
 290 322 290 322 283 325 c 0,64,65
 282 326 282 326 280 326 c 128,-1,66
 278 326 278 326 277 327 c 1,67,-1
 275 327 l 2,68,69
 274 327 274 327 272 327.5 c 128,-1,70
 270 328 270 328 269 328 c 2,71,-1
 267 328 l 1,72,-1
 230 328 l 1,73,-1
 148 328 l 1,74,-1
 73 328 l 1,75,-1
 43 328 l 1,76,77
 41 324 41 324 40 320 c 256,78,79
 39 316 39 316 39 282 c 2,80,-1
 39 226 l 2,81,82
 39 207 39 207 47 197 c 0,83,84
 52 190 52 190 62 187 c 2,85,-1
 66 186 l 2,86,87
 67 186 67 186 68.5 185.5 c 128,-1,88
 70 185 70 185 71 185 c 2,89,-1
 90 185 l 1,90,-1
 127 185 l 2,91,92
 162 185 162 185 169 184 c 0,93,94
 197 179 197 179 205 158 c 0,95,96
 210 146 210 146 210 137 c 2,97,-1
 210 67 l 2,98,99
 210 42 210 42 205 31 c 0,100,101
 199 18 199 18 183 8 c 0,102,103
 168 -2 168 -2 141 -8 c 0,104,105
 121 -13 121 -13 103 -14 c 1,106,-1
 42 -14 l 1,107,-1
 -25 -14 l 2,0,1
64 187 m 1,108,109
 66 186 66 186 66 186 c 257,110,111
 66 186 66 186 64 187 c 1,108,109
64 187 m 2,112,113
 64 187 64 187 63 187 c 2,114,115
 63 187 63 187 64 187 c 2,112,113
121 5 m 2,116,117
 121 5 121 5 120 4 c 1,118,119
 121 4 121 4 121 5 c 2,116,117
EndSplineSet
EndChar

StartChar: h
Encoding: 104 104 55
Width: 946
Flags: W
HStem: -14 28<55.6562 307 308 309 310 314.984 464.188 477 478 480 482 671> 157 28<53 138> 328 28<-18.8281 133.75> 328 14<-28.1689 -4.62109>
VStem: -29 77<18.1248 140.715> 142 77<185.156 192.968 193.132 315.655> 319 24<25 25.9998 26.0312 308 309 323> 377 77<25.3784 315.652> 682 24<25 307 308 322 322 326.772> 741 77<-6.30859 315.653>
LayerCount: 2
Fore
SplineSet
-29 61 m 1,0,-1
 -29 106 l 2,1,2
 -29 132 -29 132 -24 141 c 0,3,4
 -19 151 -19 151 -1 163 c 0,5,6
 15 174 15 174 40 179 c 1,7,8
 64 185 64 185 88 185 c 2,9,-1
 124 185 l 1,10,-1
 138 185 l 1,11,12
 138 186 138 186 139 189 c 128,-1,13
 140 192 140 192 141 193 c 0,14,15
 142 197 142 197 142 231 c 2,16,-1
 142 287 l 2,17,18
 142 305 142 305 134 316 c 1,19,20
 126 324 126 324 117 327 c 1,21,-1
 115 327 l 2,22,23
 114 327 114 327 112 328 c 1,24,-1
 52 328 l 1,25,-1
 -16 328 l 2,26,27
 -28 328 -28 328 -29 332 c 128,-1,28
 -30 336 -30 336 -19 342 c 0,29,30
 6 356 6 356 35 356 c 2,31,-1
 163 356 l 2,32,33
 182 356 182 356 196 349 c 0,34,35
 209 342 209 342 213 334 c 1,36,37
 219 325 219 325 219 304 c 2,38,-1
 219 228 l 2,39,40
 219 213 219 213 216 206 c 0,41,42
 206 176 206 176 152 163 c 0,43,44
 124 157 124 157 111 157 c 2,45,-1
 87 157 l 1,46,-1
 53 157 l 1,47,-1
 50 151 l 1,48,49
 48 142 48 142 48 125 c 2,50,-1
 48 93 l 1,51,-1
 48 55 l 2,52,53
 48 36 48 36 58 25 c 0,54,55
 61 22 61 22 67 18 c 0,56,57
 68 18 68 18 69.5 17 c 128,-1,58
 71 16 71 16 72 15 c 1,59,-1
 73 15 l 1,60,-1
 72 15 l 1,61,-1
 74 15 l 2,62,63
 78 15 78 15 80 14 c 1,64,-1
 109 14 l 1,65,-1
 193 14 l 1,66,-1
 306 14 l 1,67,-1
 307 14 l 1,68,-1
 308 15 l 2,69,70
 308 16 308 16 309 16 c 2,71,-1
 310 18 l 1,72,-1
 311 18 l 1,73,74
 312 19 312 19 314 23 c 2,75,-1
 315 25 l 2,76,77
 315 26 315 26 316 26 c 2,78,-1
 317 28 l 2,79,80
 318 30 318 30 318 33 c 0,81,82
 319 38 319 38 319 63 c 2,83,-1
 319 228 l 1,84,-1
 319 298 l 2,85,86
 319 312 319 312 325 323 c 0,87,88
 338 348 338 348 368 351 c 1,89,-1
 371 352 l 1,90,91
 389 356 389 356 399 356 c 0,92,93
 436 356 436 356 449 332 c 0,94,95
 454 322 454 322 454 293 c 2,96,-1
 454 252 l 1,97,-1
 454 144 l 1,98,-1
 454 63 l 2,99,100
 454 37 454 37 464 25 c 0,101,102
 470 19 470 19 476 16 c 1,103,-1
 477 16 l 1,104,-1
 478 15 l 1,105,-1
 480 15 l 1,106,-1
 482 14 l 1,107,-1
 484 14 l 1,108,-1
 490 14 l 1,109,-1
 528 14 l 1,110,-1
 669 14 l 2,111,112
 670 14 670 14 670 14.5 c 128,-1,113
 670 15 670 15 671 15 c 2,114,-1
 674 18 l 2,115,116
 677 21 677 21 678 23 c 2,117,-1
 679 25 l 2,118,119
 679 26 679 26 680 28 c 256,120,121
 681 30 681 30 681 33 c 0,122,123
 682 38 682 38 682 63 c 2,124,-1
 682 228 l 1,125,-1
 682 298 l 2,126,127
 682 312 682 312 688 323 c 0,128,129
 701 348 701 348 731 351 c 1,130,-1
 734 352 l 1,131,132
 752 356 752 356 762 356 c 0,133,134
 804 356 804 356 815 327 c 0,135,136
 818 319 818 319 818 293 c 2,137,-1
 818 255 l 1,138,-1
 818 152 l 1,139,-1
 818 10 l 2,140,141
 818 7 818 7 808 0 c 128,-1,142
 798 -7 798 -7 782 -10 c 0,143,144
 764 -14 764 -14 754 -14 c 0,145,146
 741 -14 741 -14 741 -10 c 2,147,-1
 741 -9 l 1,148,-1
 741 147 l 1,149,-1
 741 246 l 1,150,-1
 741 280 l 2,151,152
 741 305 741 305 732 316 c 0,153,154
 726 322 726 322 722 324 c 0,155,156
 721 324 721 324 719.5 325 c 128,-1,157
 718 326 718 326 717 326 c 2,158,-1
 716 326 l 1,159,-1
 716 327 l 1,160,-1
 715 326 l 1,161,-1
 714 325 l 2,162,163
 713 324 713 324 713 323 c 128,-1,164
 713 322 713 322 712 322 c 128,-1,165
 711 322 711 322 711 321 c 2,166,-1
 711 320 l 1,167,168
 709 317 709 317 707 311 c 1,169,-1
 707 310 l 1,170,-1
 707 308 l 1,171,-1
 706 307 l 2,172,173
 706 306 706 306 706 305 c 2,174,-1
 706 301 l 1,175,-1
 706 296 l 1,176,-1
 706 162 l 1,177,-1
 706 46 l 2,178,179
 706 13 706 13 680 -1 c 0,180,181
 668 -7 668 -7 660 -8 c 1,182,183
 644 -14 644 -14 626 -14 c 2,184,-1
 541 -14 l 1,185,-1
 452 -14 l 2,186,187
 450 -14 450 -14 447 -14 c 0,188,189
 397 -14 397 -14 384 8 c 0,190,191
 377 20 377 20 377 46 c 2,192,-1
 377 133 l 1,193,-1
 377 240 l 1,194,-1
 377 278 l 2,195,196
 377 305 377 305 369 316 c 1,197,198
 363 322 363 322 359 324 c 0,199,200
 358 324 358 324 356 325 c 128,-1,201
 354 326 354 326 353 326 c 1,202,-1
 353 327 l 1,203,-1
 352 326 l 1,204,-1
 351 325 l 1,205,-1
 349 323 l 2,206,207
 349 322 349 322 348.5 322 c 128,-1,208
 348 322 348 322 348 321 c 2,209,-1
 348 320 l 1,210,211
 346 317 346 317 344 311 c 1,212,-1
 344 310 l 1,213,-1
 344 309 l 1,214,-1
 343 308 l 1,215,-1
 343 305 l 1,216,-1
 343 301 l 1,217,-1
 343 296 l 1,218,-1
 343 162 l 1,219,-1
 343 46 l 2,220,221
 343 14 343 14 316 -1 c 0,222,223
 304 -7 304 -7 297 -8 c 1,224,225
 280 -14 280 -14 262 -14 c 2,226,-1
 164 -14 l 1,227,-1
 31 -14 l 2,228,229
 1 -14 1 -14 -11 -4 c 0,230,231
 -27 9 -27 9 -29 29 c 1,232,-1
 -29 61 l 1,0,-1
EndSplineSet
EndChar

StartChar: i
Encoding: 105 105 56
Width: 0
Flags: W
HStem: -14 21G<-32 -22.5> -14 21G<-32 -22.5> 100 28<-142.77 -87.8159 70.0156 284> 166 20G<364.5 374>
VStem: -39 77<-5.60938 61.6807> 303 78<143.721 177.309>
LayerCount: 2
Fore
SplineSet
303 161 m 2,0,1
 303 164 303 164 313 171 c 128,-1,2
 323 178 323 178 339 181 c 0,3,4
 362 186 362 186 367 186 c 0,5,6
 381 186 381 186 381 182 c 128,-1,7
 381 178 381 178 379 172 c 0,8,9
 371 142 371 142 320 122 c 0,10,11
 271 103 271 103 216 101 c 0,12,13
 193 100 193 100 147 100 c 2,14,-1
 82 100 l 1,15,-1
 81 100 l 1,16,17
 75 96 75 96 71 92 c 2,18,-1
 70 91 l 2,19,20
 70 90 70 90 69 89 c 128,-1,21
 68 88 68 88 67 87 c 0,22,23
 60 80 60 80 55 70 c 0,24,25
 45 50 45 50 42 39 c 0,26,27
 38 21 38 21 38 11 c 0,28,29
 38 7 38 7 29 1 c 0,30,31
 19 -6 19 -6 3 -9 c 0,32,33
 -20 -14 -20 -14 -25 -14 c 0,34,35
 -39 -14 -39 -14 -39 -10 c 0,36,37
 -39 38 -39 38 -68 70 c 1,38,39
 -85 87 -85 87 -100 93 c 0,40,41
 -105 96 -105 96 -111 97 c 1,42,-1
 -113 97 l 2,43,44
 -114 97 -114 97 -116 97.5 c 128,-1,45
 -118 98 -118 98 -119 98 c 0,46,47
 -127 100 -127 100 -131 100 c 2,48,-1
 -136 100 l 1,49,-1
 -139 100 l 2,50,51
 -152 100 -152 100 -153 104 c 128,-1,52
 -154 108 -154 108 -143 114 c 1,53,54
 -133 121 -133 121 -117 124 c 0,55,56
 -99 128 -99 128 -89 128 c 0,57,58
 -51 128 -51 128 -27 118 c 0,59,60
 -6 109 -6 109 10 90 c 1,61,-1
 12 91 l 2,62,63
 14 92 14 92 14 93 c 0,64,65
 53 119 53 119 110 127 c 0,66,67
 118 128 118 128 186 128 c 2,68,-1
 248 128 l 2,69,70
 252 128 252 128 258 128.5 c 128,-1,71
 264 129 264 129 268 129 c 2,72,-1
 273 129 l 2,73,74
 274 129 274 129 276 129.5 c 128,-1,75
 278 130 278 130 279 130 c 128,-1,76
 280 130 280 130 281 130.5 c 128,-1,77
 282 131 282 131 283 131 c 2,78,-1
 284 131 l 1,79,-1
 285 132 l 2,80,81
 286 133 286 133 288 134.5 c 128,-1,82
 290 136 290 136 291 137 c 128,-1,83
 292 138 292 138 292 138 c 1,84,85
 292 140 292 140 293 140 c 0,86,87
 301 150 301 150 303 156 c 1,88,-1
 303 161 l 2,0,1
79 100 m 1,89,-1
 78 100 l 1,90,-1
 79 100 l 1,89,-1
EndSplineSet
EndChar

StartChar: j
Encoding: 106 106 57
Width: 338
Flags: W
HStem: -698 31<235.979 263 265 290.833> 114 102<-26.776 37.0848> 114 28.5<47.2808 67 68 110.938> 200 28<38.663 131.481> 328 28<-28.7695 106 108 122.812> 328 14<-38.1689 -14.6211>
VStem: 132 78<-648.114 110.743 228.251 317.653>
LayerCount: 2
Fore
SplineSet
128 228 m 1,0,1
 132 236 132 236 132 249 c 2,2,-1
 132 281 l 2,3,4
 132 307 132 307 123 318 c 0,5,6
 117 324 117 324 109 327 c 1,7,-1
 108 327 l 1,8,-1
 106 328 l 1,9,-1
 104 328 l 1,10,-1
 -25 328 l 2,11,12
 -38 328 -38 328 -39 332 c 128,-1,13
 -40 336 -40 336 -29 342 c 0,14,15
 -4 356 -4 356 25 356 c 2,16,-1
 154 356 l 2,17,18
 177 356 177 356 193.5 344 c 128,-1,19
 210 332 210 332 210 308 c 2,20,-1
 210 268 l 2,21,22
 210 250 210 250 199 236.5 c 128,-1,23
 188 223 188 223 176.5 217.5 c 128,-1,24
 165 212 165 212 146 206 c 0,25,26
 126 200 126 200 76 200 c 2,27,-1
 43 200 l 1,28,29
 31 177 31 177 47 155 c 1,30,31
 56 146 56 146 63 144 c 1,32,-1
 64 144 l 1,33,-1
 65 144 l 1,34,35
 66 143 66 143 67 143 c 2,36,-1
 68 142 l 1,37,-1
 86 142 l 2,38,39
 93 142 93 142 110 142.5 c 128,-1,40
 127 143 127 143 135 142.5 c 128,-1,41
 143 142 143 142 157 141 c 128,-1,42
 171 140 171 140 178.5 137 c 128,-1,43
 186 134 186 134 194.5 129 c 128,-1,44
 203 124 203 124 206.5 115.5 c 128,-1,45
 210 107 210 107 210 95 c 2,46,-1
 210 -590 l 1,47,48
 213 -646 213 -646 256 -665 c 0,49,50
 257 -666 257 -666 259 -666 c 128,-1,51
 261 -666 261 -666 262 -667 c 1,52,-1
 263 -667 l 1,53,-1
 265 -668 l 1,54,-1
 269 -668 l 1,55,56
 275 -670 275 -670 277 -670 c 2,57,-1
 282 -670 l 2,58,59
 294 -670 294 -670 295 -674 c 0,60,61
 297 -681 297 -681 283.5 -686.5 c 128,-1,62
 270 -692 270 -692 255 -695 c 128,-1,63
 240 -698 240 -698 231 -698 c 0,64,65
 228 -698 228 -698 223 -697.5 c 128,-1,66
 218 -697 218 -697 215 -697 c 0,67,68
 178 -693 178 -693 155 -669 c 128,-1,69
 132 -645 132 -645 132 -607 c 2,70,-1
 132 65 l 2,71,72
 132 103 132 103 111 111 c 1,73,74
 109 113 109 113 108 113 c 128,-1,75
 107 113 107 113 105.5 113.5 c 128,-1,76
 104 114 104 114 103 114 c 2,77,-1
 32 114 l 2,78,79
 -15 114 -15 114 -30 134 c 0,80,81
 -38 145 -38 145 -38 162 c 128,-1,82
 -38 179 -38 179 -30 190 c 0,83,84
 -16 207 -16 207 11.5 216 c 128,-1,85
 39 225 39 225 62 226.5 c 128,-1,86
 85 228 85 228 126 228 c 2,87,-1
 128 228 l 1,0,1
EndSplineSet
EndChar

StartChar: k
Encoding: 107 107 58
Width: 508
Flags: W
HStem: -14 28<45.6562 299> 157 28<43 128> 328 28<-28.7695 123.75> 328 14<-38.1689 -14.6211> 854 14<440.675 465.551>
VStem: -39 77<18.1248 140.715> 132 77<185.156 192.968 193.132 315.655> 303 77<20 810.296>
CounterMasks: 1 07
LayerCount: 2
Fore
SplineSet
-39 61 m 2,0,-1
 -39 106 l 2,1,2
 -39 132 -39 132 -34 141 c 0,3,4
 -29 151 -29 151 -11 163 c 0,5,6
 4 173 4 173 31 179 c 0,7,8
 55 185 55 185 78 185 c 2,9,-1
 114 185 l 1,10,-1
 128 185 l 1,11,12
 128 186 128 186 129 189 c 128,-1,13
 130 192 130 192 131 193 c 0,14,15
 132 197 132 197 132 231 c 2,16,-1
 132 287 l 2,17,18
 132 305 132 305 124 316 c 1,19,20
 116 324 116 324 107 327 c 1,21,-1
 105 327 l 2,22,23
 104 327 104 327 102 328 c 1,24,-1
 42 328 l 1,25,-1
 -25 328 l 2,26,27
 -38 328 -38 328 -39 332 c 128,-1,28
 -40 336 -40 336 -29 342 c 0,29,30
 -4 356 -4 356 25 356 c 2,31,-1
 154 356 l 2,32,33
 172 356 172 356 186 349 c 0,34,35
 199 342 199 342 203 334 c 1,36,37
 209 325 209 325 209 304 c 2,38,-1
 209 228 l 2,39,40
 209 213 209 213 206 206 c 0,41,42
 196 176 196 176 142 163 c 0,43,44
 114 157 114 157 101 157 c 2,45,-1
 77 157 l 1,46,-1
 43 157 l 1,47,-1
 40 151 l 1,48,49
 38 142 38 142 38 125 c 2,50,-1
 38 93 l 1,51,-1
 38 55 l 2,52,53
 38 36 38 36 48 25 c 0,54,55
 51 22 51 22 57 18 c 0,56,57
 58 18 58 18 59.5 17 c 128,-1,58
 61 16 61 16 62 15 c 1,59,-1
 63 15 l 1,60,-1
 62 15 l 1,61,-1
 64 15 l 2,62,63
 68 15 68 15 70 14 c 1,64,-1
 97 14 l 1,65,-1
 231 14 l 1,66,-1
 299 14 l 1,67,-1
 302 20 l 1,68,69
 303 25 303 25 303 34 c 2,70,-1
 303 212 l 1,71,-1
 303 333 l 1,72,-1
 303 454 l 1,73,-1
 303 645 l 1,74,-1
 303 711 l 1,75,-1
 303 733 l 1,76,77
 305 769 305 769 320 801 c 0,78,79
 332 825 332 825 351 838 c 0,80,81
 396 868 396 868 453 868 c 0,82,83
 465 868 465 868 466 864 c 0,84,85
 467 859 467 859 457 854 c 0,86,87
 439 845 439 845 413 841 c 1,88,-1
 412 840 l 1,89,-1
 410 838 l 2,90,91
 410 837 410 837 408 835.5 c 128,-1,92
 406 834 406 834 406 833 c 0,93,94
 393 816 393 816 386 788 c 1,95,96
 380 758 380 758 380 744 c 2,97,-1
 380 603 l 1,98,-1
 380 416 l 1,99,-1
 380 341 l 1,100,-1
 380 158 l 1,101,-1
 380 70 l 2,102,103
 380 40 380 40 378 34 c 0,104,105
 368 6 368 6 315 -8 c 0,106,107
 294 -14 294 -14 271 -14 c 2,108,-1
 241 -14 l 1,109,-1
 153 -14 l 1,110,-1
 22 -14 l 2,111,112
 -9 -14 -9 -14 -21 -4 c 0,113,114
 -36 8 -36 8 -38 29 c 0,115,116
 -39 40 -39 40 -39 61 c 2,0,-1
EndSplineSet
EndChar

StartChar: l
Encoding: 108 108 59
Width: 872
Flags: W
HStem: -14 21G<-22.5 1 367.5 649> -14 21G<-22.5 1 367.5 649> 157 28<581.219 645> 328 28<-92.9177 -68.187 86 87 88 314.781 578 734.8> 342 14<720.542 743.551>
VStem: -60 77<25.3784 315.652> 52 24<21 21.9998 22.0312 319.969 320 321> 325 77<24.4397 316.561> 496 77<197.345 327.604> 667 77<14.2141 154.846>
LayerCount: 2
Fore
SplineSet
-103 332 m 128,-1,1
 -104 336 -104 336 -93 342 c 1,2,3
 -83 349 -83 349 -67 352 c 0,4,5
 -49 356 -49 356 -39 356 c 0,6,7
 -1 356 -1 356 12 332 c 0,8,9
 17 322 17 322 17 293 c 2,10,-1
 17 252 l 1,11,-1
 17 144 l 1,12,-1
 17 63 l 2,13,14
 17 37 17 37 27 25 c 0,15,16
 34 18 34 18 38 16 c 1,17,-1
 39 16 l 1,18,19
 40 15 40 15 41 15 c 2,20,-1
 42 15 l 1,21,22
 42 16 42 16 43 17 c 128,-1,23
 44 18 44 18 45 19 c 2,24,-1
 46 21 l 2,25,26
 46 22 46 22 47 22 c 2,27,-1
 48 24 l 2,28,29
 49 26 49 26 51 32 c 1,30,-1
 51 33 l 2,31,32
 51 34 51 34 52 36 c 1,33,-1
 52 42 l 1,34,-1
 52 72 l 1,35,-1
 52 253 l 1,36,-1
 52 299 l 2,37,38
 52 312 52 312 58 323 c 0,39,40
 69 345 69 345 99 350 c 1,41,42
 116 356 116 356 132 356 c 2,43,-1
 151 356 l 1,44,-1
 325 356 l 2,45,46
 327 356 327 356 335 356 c 128,-1,47
 343 356 343 356 346 356 c 128,-1,48
 349 356 349 356 356 355.5 c 128,-1,49
 363 355 363 355 366.5 354 c 128,-1,50
 370 353 370 353 375.5 351 c 128,-1,51
 381 349 381 349 385 345.5 c 128,-1,52
 389 342 389 342 392 338 c 0,53,54
 402 326 402 326 402 300 c 2,55,-1
 402 131 l 1,56,-1
 402 61 l 2,57,58
 402 38 402 38 412 24 c 0,59,60
 415 21 415 21 421 17 c 0,61,62
 422 16 422 16 423.5 16 c 128,-1,63
 425 16 425 16 426 15 c 1,64,-1
 428 15 l 1,65,-1
 429 14 l 2,66,67
 430 14 430 14 431 14 c 2,68,-1
 434 14 l 1,69,-1
 440 14 l 1,70,-1
 457 14 l 1,71,-1
 503 14 l 1,72,-1
 612 14 l 1,73,-1
 663 14 l 1,74,75
 664 15 664 15 664 17 c 128,-1,76
 664 19 664 19 665 20 c 0,77,78
 667 29 667 29 667 46 c 2,79,-1
 667 78 l 1,80,-1
 667 116 l 2,81,82
 667 133 667 133 657 146 c 0,83,84
 652 151 652 151 649 153 c 2,85,-1
 645 155 l 2,86,87
 643 155 643 155 641 156 c 0,88,89
 640 156 640 156 639 156.5 c 128,-1,90
 638 157 638 157 637 157 c 2,91,-1
 633 157 l 1,92,-1
 614 157 l 1,93,-1
 556 157 l 2,94,95
 539 157 539 157 526 161 c 0,96,97
 499 170 499 170 496 195 c 1,98,-1
 496 240 l 1,99,-1
 496 277 l 2,100,101
 496 296 496 296 497 299 c 0,102,103
 500 311 500 311 505 318 c 0,104,105
 516 333 516 333 537 342 c 0,106,107
 571 356 571 356 607 356 c 2,108,-1
 636 356 l 1,109,-1
 731 356 l 2,110,111
 743 356 743 356 744 352 c 0,112,113
 745 347 745 347 735 342 c 0,114,115
 710 328 710 328 680 328 c 2,116,-1
 596 328 l 1,117,-1
 578 328 l 1,118,119
 578 326 578 326 576 324 c 128,-1,120
 574 322 574 322 574 320 c 0,121,122
 573 316 573 316 573 282 c 2,123,-1
 573 226 l 2,124,125
 573 208 573 208 581 197 c 1,126,127
 588 190 588 190 595 187 c 0,128,129
 596 187 596 187 597 186.5 c 128,-1,130
 598 186 598 186 599 186 c 128,-1,131
 600 186 600 186 601.5 185.5 c 128,-1,132
 603 185 603 185 604 185 c 2,133,-1
 629 185 l 1,134,-1
 672 185 l 2,135,136
 705 185 705 185 717 180 c 0,137,138
 738 171 738 171 743 148 c 0,139,140
 744 144 744 144 744 124 c 2,141,-1
 744 86 l 1,142,-1
 744 61 l 2,143,144
 744 49 744 49 743 43 c 0,145,146
 740 27 740 27 729 16 c 0,147,148
 721 8 721 8 692 -3 c 0,149,150
 661 -14 661 -14 637 -14 c 2,151,-1
 618 -14 l 1,152,-1
 422 -14 l 1,153,-1
 386 -14 l 2,154,155
 349 -14 349 -14 335 3 c 0,156,157
 325 15 325 15 325 42 c 2,158,-1
 325 211 l 1,159,-1
 325 281 l 2,160,161
 325 303 325 303 315 317 c 1,162,163
 308 324 308 324 300 327 c 1,164,-1
 298 327 l 1,165,-1
 293 328 l 1,166,-1
 283 328 l 1,167,-1
 227 328 l 1,168,-1
 88 328 l 1,169,-1
 87 327 l 1,170,-1
 86 327 l 1,171,172
 86 326 86 326 85 325 c 128,-1,173
 84 324 84 324 83 323 c 2,174,-1
 82 321 l 2,175,176
 82 320 82 320 81 320 c 2,177,-1
 80 318 l 2,178,179
 79 316 79 316 77 310 c 1,180,-1
 77 309 l 1,181,-1
 77 306 l 2,182,183
 77 305 77 305 76.5 303 c 128,-1,184
 76 301 76 301 76 300 c 2,185,-1
 76 270 l 1,186,-1
 76 89 l 1,187,-1
 76 43 l 2,188,189
 76 30 76 30 70 19 c 0,190,191
 57 -6 57 -6 27 -9 c 1,192,-1
 24 -10 l 1,193,194
 6 -14 6 -14 -4 -14 c 0,195,196
 -41 -14 -41 -14 -53 8 c 0,197,198
 -60 20 -60 20 -60 46 c 2,199,-1
 -60 133 l 1,200,-1
 -60 240 l 1,201,-1
 -60 278 l 2,202,203
 -60 305 -60 305 -68 316 c 1,204,205
 -74 322 -74 322 -78 324 c 0,206,207
 -79 324 -79 324 -81 325 c 128,-1,208
 -83 326 -83 326 -84 326 c 2,209,-1
 -85 326 l 1,210,211
 -89 328 -89 328 -92 328 c 0,212,0
 -102 328 -102 328 -103 332 c 128,-1,1
664 9 m 1,213,-1
 665 9 l 1,214,-1
 666 10 l 1,215,-1
 664 9 l 1,213,-1
EndSplineSet
EndChar

StartChar: m
Encoding: 109 109 60
Width: 551
Flags: W
HStem: -14 28<48.2498 277 278 283.984> 157 28<43 128> 328 28<-28.7695 123.75 317 318 321 337.813> 328 14<-38.1689 -14.6211>
VStem: -39 77<25.3457 140.715> 132 77<185.156 192.968 193.132 315.655> 287 24<26.0312 310 311 319.937 321 323> 346 77<-6.11719 315.684>
LayerCount: 2
Fore
SplineSet
-39 61 m 2,0,-1
 -39 106 l 2,1,2
 -39 132 -39 132 -34 141 c 0,3,4
 -29 151 -29 151 -11 163 c 0,5,6
 4 173 4 173 31 179 c 0,7,8
 55 185 55 185 78 185 c 2,9,-1
 114 185 l 1,10,-1
 128 185 l 1,11,12
 128 186 128 186 129 189 c 128,-1,13
 130 192 130 192 131 193 c 0,14,15
 132 197 132 197 132 231 c 2,16,-1
 132 287 l 2,17,18
 132 305 132 305 124 316 c 1,19,20
 116 324 116 324 107 327 c 1,21,-1
 105 327 l 2,22,23
 104 327 104 327 102 328 c 1,24,-1
 42 328 l 1,25,-1
 -25 328 l 2,26,27
 -38 328 -38 328 -39 332 c 128,-1,28
 -40 336 -40 336 -29 342 c 0,29,30
 -4 356 -4 356 25 356 c 2,31,-1
 154 356 l 2,32,33
 172 356 172 356 186 349 c 0,34,35
 199 342 199 342 203 334 c 1,36,37
 209 325 209 325 209 304 c 2,38,-1
 209 228 l 2,39,40
 209 213 209 213 206 206 c 0,41,42
 196 176 196 176 142 163 c 0,43,44
 114 157 114 157 101 157 c 2,45,-1
 77 157 l 1,46,-1
 43 157 l 1,47,-1
 40 151 l 1,48,49
 38 142 38 142 38 125 c 2,50,-1
 38 93 l 1,51,-1
 38 55 l 2,52,53
 38 36 38 36 48 25 c 1,54,55
 56 18 56 18 63 15 c 1,56,-1
 65 15 l 2,57,58
 66 15 66 15 68 14.5 c 128,-1,59
 70 14 l 1,60,-1
 86 14 l 1,61,-1
 157 14 l 1,62,-1
 275 14 l 2,63,64
 276 14 276 14 276 14.5 c 128,-1,65
 276 15 276 15 277 15 c 0,66,67
 278 16 278 16 278 16 c 1,68,69
 278 18 278 18 279 18 c 2,70,-1
 280 18 l 1,71,72
 281 19 281 19 283 23 c 2,73,-1
 284 25 l 2,74,75
 284 26 l 1,76,-1
 285 28 l 2,77,78
 287 32 287 32 287 33 c 2,79,-1
 287 63 l 1,80,-1
 287 228 l 1,81,-1
 287 298 l 2,82,83
 287 311 287 311 294 323 c 0,84,85
 307 348 307 348 336 351 c 1,86,-1
 339 352 l 1,87,88
 357 356 357 356 367 356 c 0,89,90
 409 356 409 356 420 327 c 0,91,92
 423 319 423 319 423 293 c 2,93,-1
 423 255 l 1,94,-1
 423 152 l 1,95,-1
 423 10 l 2,96,97
 423 6 423 6 414 0 c 0,98,99
 404 -6 404 -6 387 -10 c 0,100,101
 369 -14 369 -14 359 -14 c 0,102,103
 346 -14 346 -14 346 -10 c 2,104,-1
 346 -9 l 1,105,-1
 346 147 l 1,106,-1
 346 246 l 1,107,-1
 346 280 l 2,108,109
 346 306 346 306 338 316 c 0,110,111
 332 322 332 322 328 324 c 0,112,113
 327 324 327 324 325 325 c 128,-1,114
 323 326 323 326 322 326 c 2,115,-1
 321 326 l 1,116,-1
 321 327 l 1,117,-1
 321 326 l 1,118,-1
 320 325 l 1,119,-1
 318 323 l 2,120,121
 318 322 318 322 317.5 322 c 128,-1,122
 317 322 317 322 317 321 c 2,123,-1
 316 320 l 2,124,125
 315 318 315 318 314 314 c 0,126,127
 313 312 313 312 313 311 c 2,128,-1
 312 310 l 1,129,-1
 312 308 l 1,130,-1
 312 305 l 2,131,132
 312 304 312 304 311.5 303 c 128,-1,133
 311 302 311 302 311 301 c 2,134,-1
 311 296 l 1,135,-1
 311 162 l 1,136,-1
 311 46 l 2,137,138
 311 13 311 13 285 -1 c 0,139,140
 273 -7 273 -7 266 -8 c 1,141,142
 250 -14 250 -14 231 -14 c 2,143,-1
 157 -14 l 1,144,-1
 22 -14 l 2,145,146
 -9 -14 -9 -14 -21 -4 c 0,147,148
 -36 8 -36 8 -38 29 c 0,149,150
 -39 40 -39 40 -39 61 c 2,0,-1
EndSplineSet
EndChar

StartChar: n
Encoding: 110 110 61
Width: 248
Flags: W
HStem: 300 20G<34 37.5> 318 21G<32 32> 328 28<-71.8 20 21 33.8752> 328 14<-80.5508 -57.542>
VStem: 43 77<-349.309 319.62>
LayerCount: 2
Fore
SplineSet
-81 332 m 0,0,1
 -82 337 -82 337 -72 342 c 0,2,3
 -47 356 -47 356 -17 356 c 2,4,-1
 16 356 l 1,5,-1
 75 356 l 1,6,7
 113 354 113 354 119 323 c 0,8,9
 120 318 120 318 120 307 c 2,10,-1
 120 276 l 1,11,-1
 120 189 l 1,12,-1
 120 54 l 1,13,-1
 120 -33 l 1,14,-1
 120 -218 l 1,15,-1
 120 -333 l 2,16,17
 120 -336 120 -336 110 -343 c 128,-1,18
 100 -350 100 -350 84 -353 c 0,19,20
 66 -357 66 -357 56 -357 c 0,21,22
 43 -357 43 -357 43 -353 c 2,23,-1
 43 -350 l 1,24,-1
 43 -212 l 1,25,-1
 43 -36 l 1,26,-1
 43 59 l 1,27,-1
 43 187 l 1,28,-1
 43 277 l 2,29,30
 43 308 43 308 32 320 c 2,31,-1
 34 318 l 2,32,33
 30 322 30 322 27 324 c 0,34,35
 26 324 26 324 24 325 c 128,-1,36
 22 326 22 326 21 326 c 2,37,-1
 22 326 l 1,38,-1
 21 326 l 1,39,-1
 20 327 l 2,40,41
 19 327 19 327 16.5 327.5 c 128,-1,42
 14 328 14 328 12 328 c 2,43,-1
 14 328 l 2,44,45
 10 328 10 328 9 328 c 2,46,-1
 -11 328 l 1,47,-1
 -68 328 l 2,48,49
 -80 328 -80 328 -81 332 c 0,0,1
EndSplineSet
EndChar

StartChar: o
Encoding: 111 111 62
Width: 0
Flags: W
LayerCount: 2
Fore
SplineSet
70 422 m 1,0,1
 35 441 35 441 -24 441 c 128,-1,2
 -83 441 -83 441 -109 412 c 0,3,4
 -124 395 -124 395 -130 375 c 1,5,6
 -135 352 -135 352 -131 317 c 1,7,8
 -128 281 -128 281 -121 253 c 0,9,10
 -90 125 -90 125 10 34 c 1,11,12
 93 119 93 119 121 234 c 1,13,14
 148 350 148 350 110 394 c 0,15,16
 95 410 95 410 70 422 c 1,0,1
-37 -12 m 0,17,18
 -39 -11 -39 -11 -55 2 c 0,19,20
 -198 122 -198 122 -209 306 c 0,21,22
 -212 361 -212 361 -193 387 c 0,23,24
 -166 425 -166 425 -99 448 c 0,25,26
 13 486 13 486 106 460 c 0,27,28
 196 435 196 435 208 374 c 0,29,30
 211 355 211 355 207 307 c 1,31,32
 193 179 193 179 114 82 c 0,33,34
 68 26 68 26 34 4 c 1,35,36
 17 -9 17 -9 -17 -13 c 1,37,38
 -31 -16 -31 -16 -37 -12 c 0,17,18
EndSplineSet
EndChar

StartChar: p
Encoding: 112 112 63
Width: 509
Flags: W
HStem: -14 29<5.1875 23 25 28.9961> -14 21G<310 322> 328 28<60.0002 61 61.0156 65 67 293.75> 328 14<-123.551 -99.3147>
VStem: -81 77<25.3477 315.622> 31 24<21.0002 321> 303 77<-6.60938 316.653>
LayerCount: 2
Fore
SplineSet
-124 332 m 0,0,1
 -125 337 -125 337 -115 342 c 0,2,3
 -105 348 -105 348 -88 352 c 0,4,5
 -70 356 -70 356 -60 356 c 0,6,7
 -22 356 -22 356 -9 332 c 0,8,9
 -4 322 -4 322 -4 293 c 2,10,-1
 -4 252 l 1,11,-1
 -4 144 l 1,12,-1
 -4 63 l 2,13,14
 -4 36 -4 36 5 25 c 0,15,16
 11 19 11 19 17 16 c 0,17,18
 18 16 18 16 18 15.5 c 128,-1,19
 18 15 18 15 19 15 c 2,20,-1
 20 15 l 1,21,-1
 21 15 l 2,22,23
 22 15 22 15 22 17 c 128,-1,24
 22 19 22 19 23 19 c 2,25,-1
 25 21 l 2,26,27
 26 21 26 21 26 22 c 128,-1,28
 26 23 26 23 27 24 c 0,29,30
 28 26 28 26 30 32 c 1,31,-1
 30 33 l 1,32,-1
 30 36 l 2,33,34
 30 37 30 37 30.5 39 c 128,-1,35
 31 41 31 41 31 42 c 2,36,-1
 31 72 l 1,37,-1
 31 253 l 1,38,-1
 31 299 l 2,39,40
 31 313 31 313 37 323 c 0,41,42
 48 345 48 345 77 350 c 1,43,44
 94 356 94 356 111 356 c 2,45,-1
 133 356 l 1,46,-1
 307 356 l 2,47,48
 309 356 309 356 312 356 c 0,49,50
 360 356 360 356 373 335 c 0,51,52
 380 324 380 324 380 300 c 2,53,-1
 380 136 l 1,54,-1
 380 10 l 2,55,56
 380 6 380 6 371 0 c 0,57,58
 361 -7 361 -7 345 -10 c 0,59,60
 327 -14 327 -14 317 -14 c 0,61,62
 303 -14 303 -14 303 -10 c 2,63,-1
 303 33 l 1,64,-1
 303 219 l 1,65,-1
 303 282 l 2,66,67
 303 306 303 306 294 317 c 1,68,69
 286 325 286 325 279 327 c 1,70,-1
 276 327 l 1,71,-1
 271 328 l 1,72,-1
 262 328 l 1,73,-1
 206 328 l 1,74,-1
 67 328 l 1,75,-1
 65 327 l 2,76,77
 64 327 64 327 63 325 c 2,78,-1
 62 323 l 1,79,-1
 61 321 l 2,80,81
 60 321 60 321 60 320 c 128,-1,82
 60 319 60 319 59 318 c 0,83,84
 58 316 58 316 56 310 c 1,85,-1
 56 309 l 1,86,-1
 56 308 l 1,87,88
 55 307 55 307 55 306 c 2,89,-1
 55 300 l 1,90,-1
 55 270 l 1,91,-1
 55 89 l 1,92,-1
 55 43 l 2,93,94
 55 31 55 31 48 19 c 0,95,96
 35 -6 35 -6 6 -9 c 1,97,-1
 3 -10 l 1,98,99
 -15 -14 -15 -14 -25 -14 c 0,100,101
 -62 -14 -62 -14 -74 8 c 0,102,103
 -81 20 -81 20 -81 46 c 2,104,-1
 -81 133 l 1,105,-1
 -81 240 l 1,106,-1
 -81 278 l 2,107,108
 -81 304 -81 304 -90 316 c 1,109,110
 -96 322 -96 322 -100 324 c 0,111,112
 -101 325 -101 325 -102.5 325 c 128,-1,113
 -104 325 -104 325 -105 326 c 1,114,-1
 -106 326 l 1,115,116
 -110 328 -110 328 -113 328 c 0,117,118
 -123 328 -123 328 -124 332 c 0,0,1
EndSplineSet
EndChar

StartChar: q
Encoding: 113 113 64
Width: 851
Flags: W
HStem: -14 18<291 293.75> 6 8<291.062 294> 14 1<64.9697 65> 157 28<44 131.969> 157 10<51.0002 52> 176 20G<131.5 132> 242 21G<652.5 661.5> 328 28<-28.8 105 107 108 381.245 569.969> 328 14<-37.5508 -14.542>
VStem: -38 77<16.0771 140.715> 129 3<193 195.813> 132 0<193 196> 133 77<193.132 315.685> 304 77<20.1331 327.84> 646 77<250.883 283.468>
LayerCount: 2
Fore
SplineSet
-25 328 m 2,0,1
 -37 328 -37 328 -38 332 c 0,2,3
 -39 337 -39 337 -29 342 c 0,4,5
 -4 356 -4 356 26 356 c 2,6,-1
 154 356 l 2,7,8
 172 356 172 356 186 349 c 0,9,10
 198 344 198 344 204 334 c 0,11,12
 210 325 210 325 210 304 c 2,13,-1
 210 228 l 2,14,15
 210 213 210 213 207 206 c 0,16,17
 197 176 197 176 143 163 c 0,18,19
 115 157 115 157 101 157 c 2,20,-1
 78 157 l 1,21,-1
 44 157 l 1,22,23
 42 153 42 153 41 151 c 0,24,25
 39 142 39 142 39 125 c 2,26,-1
 39 93 l 1,27,-1
 39 55 l 2,28,29
 39 38 39 38 49 25 c 0,30,31
 54 20 54 20 57 18 c 2,32,-1
 63 15 l 1,33,-1
 65 15 l 1,34,35
 64 14 64 14 67 14 c 2,36,-1
 69 14 l 1,37,-1
 71 14 l 1,38,-1
 97 14 l 1,39,-1
 232 14 l 1,40,-1
 299 14 l 1,41,42
 302 19 302 19 303 23 c 1,43,-1
 303 20 l 1,44,45
 304 24 304 24 304 61 c 2,46,-1
 304 115 l 1,47,-1
 304 287 l 2,48,49
 304 295 304 295 307 304 c 0,50,51
 314 332 314 332 357 346 c 0,52,53
 387 356 387 356 411 356 c 2,54,-1
 421 356 l 1,55,-1
 462 356 l 2,56,57
 560 356 560 356 585 353 c 0,58,59
 638 348 638 348 674 331 c 0,60,61
 723 308 723 308 723 267 c 0,62,63
 723 263 723 263 714 257 c 0,64,65
 704 251 704 251 687 247 c 0,66,67
 664 242 664 242 659 242 c 0,68,69
 646 242 646 242 646 246 c 0,70,71
 646 267 646 267 632 284 c 1,72,73
 611 305 611 305 573 316 c 1,74,75
 572 316 l 2,76,-1
 573 316 l 1,77,78
 573 316 573 316 572.5 316 c 128,-1,79
 572 316 572 316 571 316.5 c 128,-1,80
 570 317 570 317 570 317 c 2,81,82
 569 317 569 317 567.5 317.5 c 128,-1,83
 566 318 566 318 565 318 c 0,84,85
 563 318 563 318 559.5 319 c 128,-1,86
 556 320 556 320 554 320 c 0,87,88
 550 320 550 320 543 322 c 128,-1,89
 536 324 536 324 533 324 c 0,90,91
 521 326 521 326 497 328 c 1,92,-1
 498 327 l 1,93,-1
 499 327 l 1,94,95
 497 328 l 1,96,-1
 493 328 l 1,97,-1
 488 328 l 1,98,-1
 469 328 l 1,99,-1
 385 328 l 1,100,101
 384 325 384 325 383 320 c 1,102,103
 381 316 381 316 381 313 c 2,104,-1
 381 272 l 1,105,-1
 381 170 l 1,106,-1
 381 73 l 2,107,108
 381 43 381 43 378 34 c 0,109,110
 368 6 368 6 315 -8 c 0,111,112
 294 -14 294 -14 272 -14 c 2,113,-1
 241 -14 l 1,114,-1
 154 -14 l 1,115,-1
 22 -14 l 2,116,117
 -8 -14 -8 -14 -20 -4 c 0,118,119
 -36 9 -36 9 -38 29 c 1,120,-1
 -38 61 l 1,121,-1
 -38 106 l 2,122,123
 -38 132 -38 132 -33 141 c 0,124,125
 -28 151 -28 151 -10 163 c 0,126,127
 6 174 6 174 31 179 c 1,128,129
 55 185 55 185 79 185 c 2,130,-1
 114 185 l 1,131,-1
 129 185 l 1,132,133
 131 190 131 190 132 196 c 1,134,-1
 132 193 l 1,135,136
 133 197 133 197 133 231 c 2,137,-1
 133 287 l 2,138,139
 133 306 133 306 125 316 c 1,140,141
 117 324 117 324 106 327 c 1,142,-1
 105 328 l 1,143,-1
 104 328 l 1,144,-1
 43 328 l 1,145,-1
 -25 328 l 2,0,1
107 327 m 1,146,-1
 108 327 l 1,147,-1
 107 327 l 1,146,-1
499 327 m 2,148,-1
 500 327 l 1,149,150
 499 327 l 2,148,-1
294 6 m 1,151,152
 293 6 293 6 291 4 c 1,153,154
 292 4 292 4 293 5 c 2,155,-1
 294 6 l 1,151,152
300 9 m 1,156,157
 303 9 303 9 303 9 c 129,-1,158
 303 9 303 9 304 10 c 2,159,160
 304 10 304 10 300 9 c 1,156,157
321 14 m 1,161,-1
 325 14 l 1,162,163
 327 14 l 2,164,-1
 321 14 l 1,161,-1
51 166 m 1,165,166
 51 167 51 167 52 167 c 1,167,168
 51 167 51 167 51 166 c 1,165,166
EndSplineSet
EndChar

StartChar: r
Encoding: 114 114 65
Width: 506
Flags: W
HStem: -14 29<5.1875 25.9844 143.566 233.375> 328 28<67 179.748 180.031 185.969> 328 14<-123.551 -99.3147>
VStem: -81 77<25.3477 315.622> 31 24<22 23.9995 24.0635 306 308 317.937 318 320 323 325.969>
LayerCount: 2
Fore
SplineSet
-124 332 m 0,0,1
 -125 337 -125 337 -115 342 c 0,2,3
 -105 348 -105 348 -88 352 c 0,4,5
 -70 356 -70 356 -60 356 c 0,6,7
 -22 356 -22 356 -9 332 c 0,8,9
 -4 322 -4 322 -4 293 c 2,10,-1
 -4 252 l 1,11,-1
 -4 144 l 1,12,-1
 -4 63 l 2,13,14
 -4 36 -4 36 5 25 c 0,15,16
 11 19 11 19 17 16 c 0,17,18
 18 16 18 16 18 15.5 c 128,-1,19
 18 15 18 15 19 15 c 2,20,-1
 20 15 l 1,21,-1
 21 15 l 1,22,23
 22 16 22 16 22 17 c 128,-1,24
 22 18 22 18 23 19 c 2,25,-1
 25 21 l 2,26,27
 26 22 26 22 26 22 c 1,28,29
 26 24 26 24 27 24 c 0,30,31
 28 26 28 26 30 32 c 1,32,-1
 30 33 l 1,33,-1
 30 36 l 2,34,35
 30 37 30 37 30.5 39 c 128,-1,36
 31 41 31 41 31 42 c 2,37,-1
 31 72 l 1,38,-1
 31 253 l 1,39,-1
 31 299 l 2,40,41
 31 312 31 312 37 323 c 0,42,43
 48 345 48 345 77 350 c 1,44,45
 94 356 94 356 111 356 c 2,46,-1
 156 356 l 1,47,-1
 208 356 l 1,48,49
 233 355 233 355 262 346 c 0,50,51
 304 333 304 333 330 308 c 0,52,53
 369 272 369 272 378 218 c 0,54,55
 390 151 390 151 363 96 c 0,56,57
 342 53 342 53 294 27 c 1,58,59
 248 0 248 0 194 -9 c 0,60,61
 167 -14 167 -14 146 -14 c 0,62,63
 133 -14 133 -14 132 -10 c 128,-1,64
 131 -6 131 -6 142 0 c 0,65,66
 167 14 167 14 196 14 c 2,67,-1
 200 14 l 1,68,-1
 201 14 l 2,69,70
 202 14 202 14 204 14.5 c 128,-1,71
 206 15 206 15 207 15 c 128,-1,72
 208 15 208 15 210 15.5 c 128,-1,73
 212 16 212 16 213 16 c 2,74,-1
 215 16 l 2,75,76
 216 16 216 16 217 17 c 128,-1,77
 218 18 218 18 219 18 c 128,-1,78
 220 18 220 18 221.5 18 c 128,-1,79
 223 18 223 18 224 19 c 2,80,-1
 228 21 l 1,81,-1
 231 23 l 1,82,83
 237 25 237 25 239 27 c 2,84,-1
 241 29 l 1,85,-1
 243 30 l 2,86,87
 244 31 244 31 247 33 c 128,-1,88
 250 35 250 35 251 36 c 0,89,90
 254 38 254 38 260 44 c 1,91,-1
 262 45 l 2,92,93
 264 46 264 46 264 47 c 2,94,-1
 265 48 l 1,95,96
 275 60 275 60 279 67 c 0,97,98
 292 87 292 87 298 112 c 0,99,100
 309 152 309 152 300.5 198.5 c 128,-1,101
 292 245 292 245 264 276 c 0,102,103
 241 300 241 300 205 315 c 0,104,105
 202 316 202 316 197 317.5 c 128,-1,106
 192 319 192 319 190 320 c 2,107,-1
 186 321 l 2,108,109
 185 322 185 322 183 322 c 128,-1,110
 181 322 181 322 180 323 c 0,111,112
 172 325 172 325 156 327 c 0,113,114
 155 327 155 327 152.5 327.5 c 128,-1,115
 150 328 150 328 149 328 c 2,116,-1
 147 328 l 1,117,-1
 134 328 l 1,118,-1
 67 328 l 1,119,-1
 65 327 l 2,120,121
 64 326 64 326 63 325 c 128,-1,122
 62 324 62 324 62 323 c 2,123,-1
 61 321 l 2,124,125
 60 320 60 320 60 320 c 1,126,127
 60 318 60 318 59 318 c 0,128,129
 58 316 58 316 56 310 c 1,130,-1
 56 309 l 2,131,132
 56 308 l 1,133,-1
 55 306 l 1,134,-1
 55 300 l 1,135,-1
 55 270 l 1,136,-1
 55 89 l 1,137,-1
 55 43 l 2,138,139
 55 31 55 31 48 19 c 0,140,141
 35 -6 35 -6 6 -9 c 1,142,-1
 3 -10 l 1,143,144
 -15 -14 -15 -14 -25 -14 c 0,145,146
 -62 -14 -62 -14 -74 8 c 0,147,148
 -81 20 -81 20 -81 46 c 2,149,-1
 -81 133 l 1,150,-1
 -81 240 l 1,151,-1
 -81 278 l 2,152,153
 -81 304 -81 304 -90 316 c 1,154,155
 -96 322 -96 322 -100 324 c 0,156,157
 -101 324 -101 324 -102.5 325 c 128,-1,158
 -104 326 -104 326 -105 326 c 2,159,-1
 -106 326 l 1,160,161
 -110 328 -110 328 -113 328 c 0,162,163
 -123 328 -123 328 -124 332 c 0,0,1
226 20 m 1,164,-1
 227 20 l 1,165,-1
 228 21 l 1,166,-1
 227 20 l 1,167,-1
 226 20 l 1,168,-1
 231 23 l 1,169,-1
 226 20 l 1,164,-1
EndSplineSet
EndChar

StartChar: s
Encoding: 115 115 66
Width: 509
Flags: W
HStem: -14 29<5.1875 25.9844> -14 21G<310 322> 157 14<132.831 142> 328 28<67 157 158 230.184> 328 14<-123.551 -99.3147>
VStem: -81 77<25.3477 315.622> 31 24<22 23.9995 24.0635 306 308 317.937 318 320 323 325.969> 303 77<-6.60938 120.678>
LayerCount: 2
Fore
SplineSet
-124 332 m 0,0,1
 -125 337 -125 337 -115 342 c 0,2,3
 -105 348 -105 348 -88 352 c 0,4,5
 -70 356 -70 356 -60 356 c 0,6,7
 -22 356 -22 356 -9 332 c 0,8,9
 -4 322 -4 322 -4 293 c 2,10,-1
 -4 252 l 1,11,-1
 -4 144 l 1,12,-1
 -4 63 l 2,13,14
 -4 36 -4 36 5 25 c 0,15,16
 11 19 11 19 17 16 c 0,17,18
 18 16 18 16 18 15.5 c 128,-1,19
 18 15 18 15 19 15 c 2,20,-1
 20 15 l 1,21,-1
 21 15 l 1,22,23
 22 16 22 16 22 17 c 128,-1,24
 22 18 22 18 23 19 c 2,25,-1
 25 21 l 2,26,27
 26 22 26 22 26 22 c 1,28,29
 26 24 26 24 27 24 c 0,30,31
 28 26 28 26 30 32 c 1,32,-1
 30 33 l 1,33,-1
 30 36 l 2,34,35
 30 37 30 37 30.5 39 c 128,-1,36
 31 41 31 41 31 42 c 2,37,-1
 31 72 l 1,38,-1
 31 253 l 1,39,-1
 31 299 l 2,40,41
 31 312 31 312 37 323 c 0,42,43
 48 345 48 345 77 350 c 1,44,45
 94 356 94 356 111 356 c 2,46,-1
 116 356 l 2,47,48
 217 356 217 356 242 353 c 0,49,50
 296 348 296 348 332 331 c 0,51,52
 380 309 380 309 380 267 c 0,53,54
 380 263 380 263 371 257 c 1,55,56
 364 254 364 254 352 247.5 c 128,-1,57
 340 241 340 241 334 238 c 2,58,-1
 225 184 l 1,59,60
 237 183 237 183 266 179 c 0,61,62
 325 169 325 169 353 147 c 0,63,64
 373 131 373 131 378 113 c 0,65,66
 380 108 380 108 380 88 c 2,67,-1
 380 50 l 1,68,-1
 380 10 l 2,69,70
 380 6 380 6 371 0 c 0,71,72
 361 -7 361 -7 345 -10 c 0,73,74
 327 -14 327 -14 317 -14 c 0,75,76
 303 -14 303 -14 303 -10 c 2,77,-1
 303 21 l 1,78,-1
 303 50 l 1,79,-1
 303 83 l 1,80,81
 300 99 300 99 289 113 c 1,82,83
 278 124 278 124 269 129 c 0,84,85
 267 130 267 130 249 138 c 0,86,87
 247 138 247 138 243.5 140 c 128,-1,88
 240 142 240 142 238 142 c 0,89,90
 237 142 237 142 235.5 143 c 128,-1,91
 234 144 234 144 233 144 c 2,92,-1
 231 145 l 1,93,94
 216 149 216 149 188 153 c 0,95,96
 183 154 183 154 172.5 155 c 128,-1,97
 162 156 162 156 157 156 c 1,98,-1
 156 157 l 1,99,-1
 153 157 l 1,100,-1
 149 157 l 1,101,-1
 146 157 l 2,102,103
 133 157 133 157 132 161 c 128,-1,104
 131 165 131 165 142 171 c 0,105,106
 148 174 148 174 160 180 c 128,-1,107
 172 186 172 186 179 189 c 2,108,-1
 303 251 l 1,109,110
 301 270 301 270 289 284 c 1,111,112
 276 297 276 297 262 304 c 0,113,114
 257 307 257 307 245 311 c 2,115,-1
 236 314 l 1,116,-1
 234 314 l 1,117,-1
 232 315 l 1,118,-1
 231 316 l 1,119,120
 205 323 205 323 166 327 c 1,121,-1
 158 327 l 1,122,-1
 157 328 l 1,123,-1
 148 328 l 1,124,-1
 134 328 l 1,125,-1
 67 328 l 1,126,-1
 65 327 l 2,127,128
 64 326 64 326 63 325 c 128,-1,129
 62 324 62 324 62 323 c 2,130,-1
 61 321 l 2,131,132
 60 320 60 320 60 320 c 1,133,134
 60 318 60 318 59 318 c 0,135,136
 58 316 58 316 56 310 c 1,137,-1
 56 309 l 2,138,139
 56 308 l 1,140,-1
 55 306 l 1,141,-1
 55 300 l 1,142,-1
 55 270 l 1,143,-1
 55 89 l 1,144,-1
 55 43 l 2,145,146
 55 31 55 31 48 19 c 0,147,148
 35 -6 35 -6 6 -9 c 1,149,-1
 3 -10 l 1,150,151
 -15 -14 -15 -14 -25 -14 c 0,152,153
 -62 -14 -62 -14 -74 8 c 0,154,155
 -81 20 -81 20 -81 46 c 2,156,-1
 -81 133 l 1,157,-1
 -81 240 l 1,158,-1
 -81 278 l 2,159,160
 -81 304 -81 304 -90 316 c 1,161,162
 -96 322 -96 322 -100 324 c 0,163,164
 -101 324 -101 324 -102.5 325 c 128,-1,165
 -104 326 -104 326 -105 326 c 2,166,-1
 -106 326 l 1,167,168
 -110 328 -110 328 -113 328 c 0,169,170
 -123 328 -123 328 -124 332 c 0,0,1
EndSplineSet
EndChar

StartChar: t
Encoding: 116 116 67
Width: 509
Flags: W
HStem: -14 29<5.1875 25.9844 218.219 277 280 285> 328 28<67 303> 328 14<-123.551 -99.3147>
VStem: -81 77<25.3477 315.622> 31 24<22 23.9995 24.0635 306 308 317.937 318 320 323 325.969> 132 77<26.3123 134.309> 303 77<35.7837 328>
LayerCount: 2
Fore
SplineSet
-124 332 m 0,0,1
 -125 337 -125 337 -115 342 c 0,2,3
 -105 348 -105 348 -88 352 c 0,4,5
 -70 356 -70 356 -60 356 c 0,6,7
 -22 356 -22 356 -9 332 c 0,8,9
 -4 322 -4 322 -4 293 c 2,10,-1
 -4 252 l 1,11,-1
 -4 144 l 1,12,-1
 -4 63 l 2,13,14
 -4 36 -4 36 5 25 c 0,15,16
 11 19 11 19 17 16 c 0,17,18
 18 16 18 16 18 15.5 c 128,-1,19
 18 15 18 15 19 15 c 2,20,-1
 20 15 l 1,21,-1
 21 15 l 1,22,23
 22 16 22 16 22 17 c 128,-1,24
 22 18 22 18 23 19 c 2,25,-1
 25 21 l 2,26,27
 26 22 26 22 26 22 c 1,28,29
 26 24 26 24 27 24 c 0,30,31
 28 26 28 26 30 32 c 1,32,-1
 30 33 l 1,33,-1
 30 36 l 2,34,35
 30 37 30 37 30.5 39 c 128,-1,36
 31 41 31 41 31 42 c 2,37,-1
 31 72 l 1,38,-1
 31 253 l 1,39,-1
 31 299 l 2,40,41
 31 312 31 312 37 323 c 0,42,43
 48 345 48 345 77 350 c 1,44,45
 94 356 94 356 111 356 c 2,46,-1
 232 356 l 1,47,-1
 367 356 l 2,48,49
 380 356 380 356 380 352 c 2,50,-1
 380 219 l 1,51,-1
 380 129 l 2,52,53
 380 125 380 125 381 113 c 128,-1,54
 382 101 382 101 381 95 c 0,55,56
 379 60 379 60 359 35 c 0,57,58
 337 9 337 9 288 -6 c 0,59,60
 262 -14 262 -14 218 -14 c 0,61,62
 215 -14 215 -14 204.5 -14.5 c 128,-1,63
 194 -15 194 -15 188.5 -14.5 c 128,-1,64
 183 -14 183 -14 174.5 -13 c 128,-1,65
 166 -12 166 -12 159.5 -9.5 c 128,-1,66
 153 -7 153 -7 148 -2 c 0,67,68
 137 8 137 8 134 20 c 0,69,70
 132 29 132 29 132 61 c 2,71,-1
 132 118 l 2,72,73
 132 121 132 121 142 128 c 128,-1,74
 152 135 152 135 168 138 c 0,75,76
 190 143 190 143 196 143 c 0,77,78
 209 143 209 143 209 139 c 2,79,-1
 209 88 l 1,80,-1
 209 65 l 2,81,82
 209 51 209 51 210 45 c 0,83,84
 211 36 211 36 218 26 c 1,85,86
 225 19 225 19 232 16 c 1,87,-1
 233 16 l 1,88,89
 234 15 234 15 235 15 c 128,-1,90
 236 15 236 15 238 14.5 c 128,-1,91
 240 14 240 14 241 14 c 2,92,-1
 259 14 l 1,93,-1
 277 14 l 1,94,-1
 279 15 l 1,95,-1
 280 16 l 2,96,97
 281 18 281 18 283 20 c 128,-1,98
 285 22 285 22 286 24 c 0,99,100
 296 36 296 36 301 56 c 0,101,102
 303 68 303 68 303 73 c 2,103,-1
 303 107 l 1,104,-1
 303 196 l 1,105,-1
 303 328 l 1,106,-1
 196 328 l 1,107,-1
 67 328 l 1,108,-1
 65 327 l 2,109,110
 64 326 64 326 63 325 c 128,-1,111
 62 324 62 324 62 323 c 2,112,-1
 61 321 l 2,113,114
 60 320 60 320 60 320 c 1,115,116
 60 318 60 318 59 318 c 0,117,118
 58 316 58 316 56 310 c 1,119,-1
 56 309 l 2,120,121
 56 308 l 1,122,-1
 55 306 l 1,123,-1
 55 300 l 1,124,-1
 55 270 l 1,125,-1
 55 89 l 1,126,-1
 55 43 l 2,127,128
 55 31 55 31 48 19 c 0,129,130
 35 -6 35 -6 6 -9 c 1,131,-1
 3 -10 l 1,132,133
 -15 -14 -15 -14 -25 -14 c 0,134,135
 -62 -14 -62 -14 -74 8 c 0,136,137
 -81 20 -81 20 -81 46 c 2,138,-1
 -81 133 l 1,139,-1
 -81 240 l 1,140,-1
 -81 278 l 2,141,142
 -81 304 -81 304 -90 316 c 1,143,144
 -96 322 -96 322 -100 324 c 0,145,146
 -101 324 -101 324 -102.5 325 c 128,-1,147
 -104 326 -104 326 -105 326 c 2,148,-1
 -106 326 l 1,149,150
 -110 328 -110 328 -113 328 c 0,151,152
 -123 328 -123 328 -124 332 c 0,0,1
280 14 m 1,153,-1
 285 14 l 1,154,155
 289 21 289 21 285 18 c 0,156,157
 283 17 283 17 280 14 c 1,153,-1
289 15 m 0,158,-1
EndSplineSet
EndChar

StartChar: u
Encoding: 117 117 68
Width: 0
Flags: W
VStem: -210 77<68 120.412> 132 77<279.588 305.562>
LayerCount: 2
Fore
SplineSet
128 101 m 1,0,1
 54 103 54 103 -7 124 c 0,2,3
 -46 137 -46 137 -72 163 c 128,-1,4
 -98 189 -98 189 -95 226 c 0,5,6
 -86 316 -86 316 30 346 c 0,7,8
 139 374 139 374 185 338 c 0,9,10
 209 320 209 320 209 296 c 0,11,12
 209 288 209 288 189 280.5 c 128,-1,13
 169 273 169 273 152 272 c 128,-1,14
 135 271 135 271 132 275 c 1,15,16
 132 292 132 292 120 306 c 0,17,18
 106 321 106 321 78 327.5 c 128,-1,19
 50 334 50 334 25 322 c 1,20,21
 -18 292 -18 292 -18 239 c 0,22,23
 -18 208 -18 208 1 188 c 0,24,25
 57 129 57 129 196 129 c 0,26,27
 198 129 198 129 199.5 129 c 128,-1,28
 201 129 201 129 205 128 c 128,-1,29
 209 127 209 127 209.5 126 c 128,-1,30
 210 125 210 125 209 122 c 1,31,32
 121 5 121 5 -3 -12 c 0,33,34
 -24 -15 -24 -15 -50 -13 c 0,35,36
 -122 -9 -122 -9 -162 21 c 0,37,38
 -192 43 -192 43 -204 76 c 0,39,40
 -210 94 -210 94 -210 104 c 0,41,42
 -210 112 -210 112 -190 119.5 c 128,-1,43
 -170 127 -170 127 -153 128 c 128,-1,44
 -136 129 -136 129 -133 125 c 1,45,46
 -133 93 -133 93 -105 61 c 1,47,48
 -79 33 -79 33 -42 23 c 1,49,-1
 -40 23 l 1,50,51
 -10 15 -10 15 27 14 c 1,52,53
 69 33 69 33 120 92 c 0,54,55
 122 94 122 94 124 97 c 128,-1,56
 126 100 126 100 128 101 c 1,0,1
-41 23 m 1,57,-1
 -42 23 l 1,58,-1
 -41 23 l 1,57,-1
EndSplineSet
EndChar

StartChar: v
Encoding: 118 118 69
Width: 509
Flags: W
HStem: -13 29<5.12598 28.9961> 243 21G<310 319.5> 329 28<60.0002 61 67 190 190 235> 329 14<-123.388 -97.1875>
VStem: -81 77<25.3477 316.622> 31 24<16.9999 322> 303 77<251.391 298.178>
LayerCount: 2
Fore
SplineSet
-124 332 m 0,0,1
 -125 338 -125 338 -115 343 c 1,2,3
 -108 348 -108 348 -88 352 c 0,4,5
 -66 357 -66 357 -60 357 c 0,6,7
 -22 357 -22 357 -9 333 c 0,8,9
 -4 323 -4 323 -4 294 c 2,10,-1
 -4 252 l 1,11,-1
 -4 145 l 1,12,-1
 -4 63 l 2,13,14
 -4 36 -4 36 5 25 c 0,15,16
 9 21 9 21 17 17 c 0,17,18
 18 17 18 17 18 16.5 c 128,-1,19
 18 16 18 16 19 16 c 2,20,-1
 20 16 l 1,21,-1
 21 16 l 2,22,23
 22 16 22 16 22 17 c 128,-1,24
 22 18 22 18 23 19 c 2,25,-1
 25 21 l 2,26,27
 26 22 26 22 26 23 c 128,-1,28
 26 24 26 24 27 25 c 0,29,30
 29 29 29 29 30 32 c 1,31,-1
 30 34 l 1,32,-1
 30 36 l 2,33,34
 30 37 30 37 30.5 39.5 c 128,-1,35
 31 42 31 42 31 43 c 2,36,-1
 31 73 l 1,37,-1
 31 254 l 1,38,-1
 31 299 l 2,39,40
 31 312 31 312 37 323 c 0,41,42
 48 346 48 346 77 351 c 1,43,44
 94 357 94 357 111 357 c 2,45,-1
 118 357 l 1,46,-1
 205 357 l 2,47,48
 237 357 237 357 253 356 c 0,49,50
 303 353 303 353 341.5 332 c 128,-1,51
 380 311 380 311 380 268 c 0,52,53
 380 264 380 264 371 258 c 0,54,55
 361 251 361 251 345 248 c 0,56,57
 322 243 322 243 317 243 c 0,58,59
 303 243 303 243 303 247 c 0,60,61
 303 273 303 273 287 292 c 0,62,63
 274 306 274 306 257 313 c 0,64,65
 249 317 249 317 240 320 c 2,66,-1
 236 321 l 1,67,-1
 235 322 l 1,68,-1
 234 322 l 2,69,70
 232 322 232 322 230 323 c 128,-1,71
 228 324 228 324 226 324 c 0,72,73
 215 326 215 326 197 328 c 1,74,-1
 191 328 l 2,75,76
 190 328 190 328 190 328.5 c 128,-1,77
 190 329 190 329 189 329 c 2,78,-1
 67 329 l 1,79,-1
 65 328 l 1,80,-1
 65 327 l 1,81,-1
 62 324 l 1,82,-1
 61 322 l 2,83,84
 60 322 60 322 60 321 c 128,-1,85
 60 320 60 320 59 319 c 0,86,87
 58 317 58 317 56 311 c 1,88,-1
 56 310 l 1,89,-1
 56 309 l 1,90,91
 55 308 55 308 55 307 c 2,92,-1
 55 301 l 1,93,-1
 55 271 l 1,94,-1
 55 89 l 1,95,-1
 55 44 l 2,96,97
 55 32 55 32 48 20 c 0,98,99
 35 -5 35 -5 6 -8 c 1,100,-1
 3 -9 l 1,101,102
 -15 -13 -15 -13 -25 -13 c 0,103,104
 -62 -13 -62 -13 -74 9 c 0,105,106
 -81 21 -81 21 -81 47 c 2,107,-1
 -81 134 l 1,108,-1
 -81 240 l 1,109,-1
 -81 279 l 2,110,111
 -81 305 -81 305 -90 317 c 0,112,113
 -94 321 -94 321 -100 324 c 0,114,115
 -101 324 -101 324 -102.5 325 c 128,-1,116
 -104 326 -104 326 -105 327 c 1,117,-1
 -106 327 l 1,118,119
 -110 329 -110 329 -113 329 c 0,120,121
 -123 329 -123 329 -124 332 c 0,0,1
EndSplineSet
EndChar

StartChar: w
Encoding: 119 119 70
Width: 851
Flags: W
HStem: -14 29<338 361 362 367.984> 263 47G<56 57 398 399 652 661.5> 328 28<67 250.906 409 572.184> 328 14<-123.551 -99.3147>
VStem: -81 77<25.3477 315.622> 31 24<22 23.9995 24.0635 306 308 311 318 320 323 325.969> 261 77<14 316.275> 373 24<22 23.9995 31.0002 306 308 311 318 320 323 325.969> 645 78<250.691 290.867>
LayerCount: 2
Fore
SplineSet
419 350 m 2,0,1
 436 356 436 356 453 356 c 2,2,-1
 458 356 l 2,3,4
 559 356 559 356 584 353 c 0,5,6
 638 348 638 348 674 331 c 0,7,8
 723 308 723 308 723 267 c 0,9,10
 723 264 723 264 713 257 c 128,-1,11
 703 250 703 250 687 247 c 0,12,13
 664 242 664 242 659 242 c 0,14,15
 645 242 645 242 645 246 c 0,16,17
 645 267 645 267 631 284 c 1,18,19
 618 297 618 297 604 304 c 0,20,21
 599 307 599 307 587 311 c 2,22,-1
 578 314 l 1,23,-1
 576 314 l 1,24,-1
 574 315 l 1,25,-1
 573 316 l 1,26,27
 547 323 547 323 508 327 c 1,28,-1
 500 327 l 1,29,-1
 499 327 l 2,30,31
 498 327 498 327 495 327.5 c 128,-1,32
 492 328 492 328 490 328 c 2,33,-1
 476 328 l 1,34,-1
 409 328 l 1,35,-1
 407 327 l 2,36,37
 406 326 406 326 405 325 c 128,-1,38
 404 324 404 324 404 323 c 2,39,-1
 403 321 l 2,40,41
 402 320 402 320 402 320 c 1,42,43
 402 318 402 318 401 318 c 0,44,45
 400 316 400 316 398 310 c 1,46,-1
 398 311 l 1,47,-1
 398 310 l 1,48,-1
 398 309 l 2,49,50
 398 308 l 1,51,-1
 397 306 l 1,52,-1
 397 300 l 1,53,-1
 397 270 l 1,54,-1
 397 89 l 1,55,-1
 397 43 l 2,56,57
 397 31 397 31 390 19 c 0,58,59
 379 -3 379 -3 350 -8 c 1,60,61
 334 -14 334 -14 317 -14 c 2,62,-1
 274 -14 l 2,63,64
 261 -14 261 -14 261 -10 c 2,65,-1
 261 56 l 1,66,-1
 261 184 l 1,67,-1
 261 274 l 2,68,69
 261 304 261 304 251 317 c 0,70,71
 248 320 248 320 242 324 c 0,72,73
 241 324 241 324 239.5 325 c 128,-1,74
 238 326 238 326 237 327 c 1,75,-1
 234 327 l 2,76,77
 233 327 233 327 231.5 327.5 c 128,-1,78
 230 328 230 328 229 328 c 2,79,-1
 217 328 l 1,80,-1
 195 328 l 1,81,-1
 157 328 l 1,82,-1
 134 328 l 1,83,-1
 67 328 l 1,84,-1
 65 327 l 2,85,86
 64 326 64 326 63 325 c 128,-1,87
 62 324 62 324 62 323 c 2,88,-1
 61 321 l 2,89,90
 60 320 60 320 60 320 c 1,91,92
 60 318 60 318 59 318 c 0,93,94
 58 316 58 316 56 310 c 1,95,-1
 56 311 l 1,96,-1
 56 310 l 1,97,-1
 56 309 l 2,98,99
 56 308 l 1,100,-1
 55 306 l 1,101,-1
 55 300 l 1,102,-1
 55 270 l 1,103,-1
 55 89 l 1,104,-1
 55 43 l 2,105,106
 55 31 55 31 48 19 c 0,107,108
 35 -6 35 -6 6 -9 c 1,109,-1
 5 -10 l 2,110,111
 4 -10 4 -10 3 -10 c 0,112,113
 -15 -14 -15 -14 -25 -14 c 0,114,115
 -62 -14 -62 -14 -74 8 c 0,116,117
 -81 20 -81 20 -81 46 c 2,118,-1
 -81 133 l 1,119,-1
 -81 240 l 1,120,-1
 -81 278 l 2,121,122
 -81 304 -81 304 -90 316 c 1,123,124
 -96 322 -96 322 -100 324 c 0,125,126
 -101 324 -101 324 -102.5 325 c 128,-1,127
 -104 326 -104 326 -105 326 c 2,128,-1
 -106 326 l 1,129,130
 -110 328 -110 328 -113 328 c 0,131,132
 -123 328 -123 328 -124 332 c 0,133,134
 -125 337 -125 337 -115 342 c 0,135,136
 -105 348 -105 348 -88 352 c 0,137,138
 -70 356 -70 356 -60 356 c 0,139,140
 -22 356 -22 356 -9 332 c 0,141,142
 -4 322 -4 322 -4 293 c 2,143,-1
 -4 252 l 1,144,-1
 -4 144 l 1,145,-1
 -4 63 l 2,146,147
 -4 36 -4 36 5 25 c 0,148,149
 11 19 11 19 17 16 c 0,150,151
 18 16 18 16 18 15.5 c 128,-1,152
 18 15 18 15 19 15 c 2,153,-1
 20 15 l 1,154,-1
 21 15 l 1,155,156
 22 16 22 16 22 17 c 128,-1,157
 22 18 22 18 23 19 c 2,158,-1
 25 21 l 2,159,160
 26 22 26 22 26 22 c 1,161,162
 26 24 26 24 27 24 c 0,163,164
 28 26 28 26 30 32 c 1,165,-1
 30 33 l 1,166,-1
 30 36 l 2,167,168
 30 37 30 37 30.5 39 c 128,-1,169
 31 41 31 41 31 42 c 2,170,-1
 31 72 l 1,171,-1
 31 253 l 1,172,-1
 31 299 l 2,173,174
 31 312 31 312 37 323 c 0,175,176
 48 345 48 345 77 350 c 1,177,178
 94 356 94 356 111 356 c 2,179,-1
 199 356 l 1,180,-1
 270 356 l 2,181,182
 318 356 318 356 331 334 c 0,183,184
 338 323 338 323 338 288 c 2,185,-1
 338 160 l 1,186,-1
 338 14 l 1,187,-1
 361 14 l 1,188,-1
 362 15 l 1,189,-1
 363 15 l 1,190,191
 364 16 364 16 364 17 c 128,-1,192
 364 18 364 18 365 19 c 2,193,-1
 367 21 l 2,194,195
 368 22 368 22 368 22 c 1,196,197
 368 24 368 24 369 24 c 0,198,199
 370 26 370 26 372 32 c 1,200,-1
 371 31 l 2,201,202
 372 31 372 31 372 32 c 2,203,-1
 372 33 l 1,204,-1
 372 36 l 2,205,206
 372 37 372 37 372.5 39 c 128,-1,207
 373 41 373 41 373 42 c 2,208,-1
 373 72 l 1,209,-1
 373 253 l 1,210,-1
 373 299 l 2,211,212
 373 312 373 312 379 323 c 0,213,214
 383 330 383 330 393 337 c 128,-1,215
 403 344 403 344 411 347 c 2,216,-1
 419 350 l 2,0,1
398 310 m 0,217,-1
EndSplineSet
EndChar

StartChar: x
Encoding: 120 120 71
Width: 851
Flags: W
HStem: -11 28<48.0945 302.443> 146 41<566 618.79> 160 28<39.9648 131.244 566 580> 160 14<474.831 484> 270 20G<629.5 636> 287 21G<620.5 631> 331 28<-28.7695 103 104 123.75 381.293 563.937> 331 14<-38.1689 -14.6211>
VStem: -39 78<28.3457 143.715> 132 78<188.156 318.685> 303 78<17.2612 329.875> 645 78<-2.40137 118.592>
LayerCount: 2
Fore
SplineSet
-25 331 m 2,0,1
 -38 331 -38 331 -39 335 c 128,-1,2
 -40 339 -40 339 -29 345 c 0,3,4
 -4 359 -4 359 25 359 c 2,5,-1
 154 359 l 2,6,7
 172 359 172 359 186 352 c 0,8,9
 197 347 197 347 203 337 c 0,10,11
 210 326 210 326 210 307 c 2,12,-1
 210 231 l 2,13,14
 210 218 210 218 206 209 c 0,15,16
 196 179 196 179 142 166 c 0,17,18
 114 160 114 160 101 160 c 2,19,-1
 77 160 l 1,20,-1
 43 160 l 1,21,22
 41 157 41 157 40 154 c 0,23,24
 39 150 39 150 39 128 c 2,25,-1
 39 96 l 1,26,-1
 39 58 l 2,27,28
 39 39 39 39 48 28 c 0,29,30
 51 25 51 25 57 21 c 0,31,32
 58 20 58 20 59.5 19 c 128,-1,33
 61 18 61 18 62 18 c 2,34,-1
 64 18 l 2,35,36
 66 18 66 18 67 17 c 1,37,-1
 68 17 l 1,38,-1
 70 17 l 1,39,-1
 97 17 l 1,40,-1
 231 17 l 1,41,-1
 299 17 l 1,42,43
 301 20 301 20 302 23 c 0,44,45
 303 27 303 27 303 64 c 2,46,-1
 303 118 l 1,47,-1
 303 290 l 2,48,49
 303 298 303 298 306 307 c 0,50,51
 313 335 313 335 356 349 c 0,52,53
 386 359 386 359 411 359 c 2,54,-1
 420 359 l 1,55,-1
 461 359 l 2,56,57
 559 359 559 359 584 356 c 0,58,59
 638 351 638 351 674 334 c 0,60,61
 723 311 723 311 723 270 c 0,62,63
 723 267 723 267 713 260 c 1,64,65
 706 257 706 257 694 250.5 c 128,-1,66
 682 244 682 244 676 241 c 0,67,68
 655 231 655 231 616 211.5 c 128,-1,69
 577 192 577 192 566 187 c 1,70,71
 587 186 587 186 608 182 c 0,72,73
 667 172 667 172 695 150 c 0,74,75
 715 134 715 134 720 116 c 0,76,77
 723 108 723 108 723 91 c 2,78,-1
 723 53 l 1,79,-1
 723 13 l 2,80,81
 723 11 723 11 713 4 c 0,82,83
 700 -4 700 -4 687 -7 c 0,84,85
 669 -11 669 -11 659 -11 c 0,86,87
 645 -11 645 -11 645 -7 c 2,88,-1
 645 24 l 1,89,-1
 645 53 l 1,90,-1
 645 86 l 1,91,92
 642 106 642 106 629 119 c 1,93,94
 630 118 630 118 630 118 c 1,95,96
 630 116 630 116 631 116 c 1,97,98
 620 127 620 127 611 132 c 0,99,100
 609 133 609 133 591 141 c 0,101,102
 589 142 589 142 585.5 144 c 128,-1,103
 582 146 582 146 580 146 c 0,104,105
 579 146 579 146 577.5 146 c 128,-1,106
 576 146 576 146 575 147 c 2,107,-1
 573 148 l 1,108,109
 552 154 552 154 530 157 c 0,110,111
 525 158 525 158 519 158.5 c 128,-1,112
 513 159 513 159 506 159.5 c 128,-1,113
 499 160 499 160 495 160 c 2,114,-1
 491 160 l 1,115,-1
 488 160 l 2,116,117
 475 160 475 160 474 164 c 128,-1,118
 473 168 473 168 484 174 c 0,119,120
 490 177 490 177 502 183 c 128,-1,121
 514 189 514 189 521 192 c 2,122,-1
 645 254 l 1,123,124
 643 274 643 274 629 290 c 1,125,126
 630 289 630 289 630.5 288 c 128,-1,127
 631 287 631 287 631 287 c 1,128,129
 610 308 610 308 572 319 c 1,130,131
 571 319 571 319 570.5 319.5 c 128,-1,132
 570 320 570 320 570 320 c 2,133,134
 569 320 569 320 567 320.5 c 128,-1,135
 565 321 565 321 564 321 c 0,136,137
 562 322 562 322 559 323 c 128,-1,138
 556 324 556 324 554 324 c 0,139,140
 550 324 550 324 543 325 c 128,-1,141
 536 326 536 326 532 327 c 0,142,143
 517 329 517 329 499 331 c 1,144,-1
 497 331 l 1,145,-1
 492 331 l 1,146,-1
 488 331 l 1,147,-1
 468 331 l 1,148,-1
 385 331 l 1,149,150
 383 327 383 327 382 323 c 0,151,152
 381 321 381 321 381 316 c 2,153,-1
 381 275 l 1,154,-1
 381 173 l 1,155,-1
 381 76 l 2,156,157
 381 46 381 46 378 37 c 0,158,159
 368 9 368 9 315 -5 c 0,160,161
 294 -11 294 -11 272 -11 c 2,162,-1
 241 -11 l 1,163,-1
 153 -11 l 1,164,-1
 22 -11 l 2,165,166
 -9 -11 -9 -11 -21 -1 c 0,167,168
 -36 11 -36 11 -38 32 c 0,169,170
 -39 43 -39 43 -39 64 c 2,171,-1
 -39 109 l 2,172,173
 -39 135 -39 135 -34 144 c 0,174,175
 -29 154 -29 154 -11 166 c 0,176,177
 4 176 4 176 31 182 c 0,178,179
 55 188 55 188 78 188 c 2,180,-1
 114 188 l 1,181,-1
 128 188 l 1,182,183
 130 192 130 192 131 196 c 256,184,185
 132 200 132 200 132 234 c 2,186,-1
 132 290 l 2,187,188
 132 309 132 309 124 319 c 1,189,190
 116 327 116 327 106 330 c 1,191,-1
 105 330 l 1,192,-1
 104 330 l 1,193,-1
 103 331 l 1,194,-1
 42 331 l 1,195,-1
 -25 331 l 2,0,1
108 330 m 2,196,197
 107 330 107 330 107 330 c 2,198,199
 108 330 108 330 108 330 c 2,196,197
EndSplineSet
EndChar

StartChar: y
Encoding: 121 121 72
Width: 551
Flags: W
HStem: -14 28<48.2498 276 279 283.984> 326 30<-73.7783 -66 -64 -62 -61 -48.1875 316 318 321 337.813> 328 14<-80.5508 -66>
VStem: -39 77<25.4395 316.622> 287 24<25 26 26.0312 326.772> 346 77<-6.11719 315.684>
LayerCount: 2
Fore
SplineSet
-81 332 m 0,0,1
 -82 337 -82 337 -72 342 c 0,2,3
 -62 348 -62 348 -45 352 c 0,4,5
 -27 356 -27 356 -17 356 c 0,6,7
 12 356 12 356 27 340 c 0,8,9
 36 330 36 330 38 317 c 1,10,-1
 38 300 l 1,11,-1
 38 131 l 1,12,-1
 38 61 l 2,13,14
 38 39 38 39 48 25 c 1,15,16
 56 18 56 18 63 15 c 1,17,-1
 65 15 l 2,18,19
 66 15 66 15 68 14.5 c 128,-1,20
 70 14 l 1,21,-1
 86 14 l 1,22,-1
 157 14 l 1,23,-1
 275 14 l 2,24,25
 276 14 l 1,26,-1
 276 15 l 1,27,-1
 279 18 l 1,28,-1
 280 18 l 1,29,30
 281 19 281 19 283 23 c 2,31,-1
 284 25 l 2,32,33
 284 26 l 1,34,-1
 285 28 l 2,35,36
 286 30 286 30 286 33 c 0,37,38
 287 38 287 38 287 63 c 2,39,-1
 287 228 l 1,40,-1
 287 298 l 2,41,42
 287 312 287 312 293 323 c 0,43,44
 306 348 306 348 336 351 c 1,45,-1
 339 352 l 1,46,47
 357 356 357 356 367 356 c 0,48,49
 409 356 409 356 420 327 c 0,50,51
 423 319 423 319 423 293 c 2,52,-1
 423 255 l 1,53,-1
 423 152 l 1,54,-1
 423 10 l 2,55,56
 423 6 423 6 414 0 c 0,57,58
 404 -6 404 -6 387 -10 c 0,59,60
 369 -14 369 -14 359 -14 c 0,61,62
 346 -14 346 -14 346 -10 c 2,63,-1
 346 -9 l 1,64,-1
 346 147 l 1,65,-1
 346 246 l 1,66,-1
 346 280 l 2,67,68
 346 306 346 306 338 316 c 0,69,70
 332 322 332 322 328 324 c 0,71,72
 327 324 327 324 325 325 c 128,-1,73
 323 326 323 326 322 326 c 2,74,-1
 321 326 l 1,75,-1
 321 327 l 1,76,-1
 320 326 l 1,77,-1
 319 325 l 2,78,79
 318 324 318 324 318 323 c 128,-1,80
 318 322 318 322 317 322 c 128,-1,81
 316 322 316 322 316 321 c 2,82,-1
 316 320 l 1,83,84
 314 317 314 317 312 311 c 1,85,-1
 312 310 l 1,86,-1
 312 308 l 1,87,-1
 312 307 l 1,88,89
 311 306 311 306 311 305 c 2,90,-1
 311 301 l 1,91,-1
 311 296 l 1,92,-1
 311 162 l 1,93,-1
 311 46 l 2,94,95
 311 13 311 13 285 -1 c 0,96,97
 273 -7 273 -7 265 -8 c 1,98,99
 248 -14 248 -14 231 -14 c 2,100,-1
 191 -14 l 1,101,-1
 47 -14 l 2,102,103
 45 -14 45 -14 31.5 -14.5 c 128,-1,104
 18 -15 18 -15 13 -14.5 c 128,-1,105
 8 -14 8 -14 -1.5 -12.5 c 128,-1,106
 -11 -11 -11 -11 -17.5 -7 c 128,-1,107
 -24 -3 -24 -3 -29 4 c 0,108,109
 -39 18 -39 18 -39 42 c 2,110,-1
 -39 211 l 1,111,-1
 -39 281 l 2,112,113
 -39 305 -39 305 -48 317 c 1,114,115
 -54 323 -54 323 -60 326 c 1,116,-1
 -61 326 l 1,117,-1
 -62 327 l 1,118,-1
 -64 327 l 1,119,-1
 -66 328 l 1,120,-1
 -68 328 l 2,121,122
 -80 328 -80 328 -81 332 c 0,0,1
EndSplineSet
EndChar

StartChar: z
Encoding: 122 122 73
Width: 851
Flags: W
HStem: -14 29<338 361 362 367.984> 157 14<474.831 484> 310 21G<56 57 398 399> 328 28<67 250.906 409 572.184> 328 14<-123.551 -99.3147>
VStem: -81 77<25.3477 315.622> 31 24<22 23.9995 24.0635 306 308 311 318 320 323 325.969> 261 77<14 316.275> 373 24<22 23.9995 31.0002 306 308 311 318 320 323 325.969> 645 78<-6.30859 120.678>
LayerCount: 2
Fore
SplineSet
645 251 m 1,0,1
 643 270 643 270 631 284 c 1,2,3
 618 297 618 297 604 304 c 0,4,5
 599 307 599 307 587 311 c 2,6,-1
 578 314 l 1,7,-1
 576 314 l 1,8,-1
 574 315 l 1,9,-1
 573 316 l 1,10,11
 547 323 547 323 508 327 c 1,12,-1
 500 327 l 1,13,-1
 499 327 l 2,14,15
 498 327 498 327 495 327.5 c 128,-1,16
 492 328 492 328 490 328 c 2,17,-1
 476 328 l 1,18,-1
 409 328 l 1,19,-1
 407 327 l 2,20,21
 406 326 406 326 405 325 c 128,-1,22
 404 324 404 324 404 323 c 2,23,-1
 403 321 l 2,24,25
 402 320 402 320 402 320 c 1,26,27
 402 318 402 318 401 318 c 0,28,29
 400 316 400 316 398 310 c 1,30,-1
 398 311 l 1,31,-1
 398 310 l 1,32,-1
 398 309 l 2,33,34
 398 308 l 1,35,-1
 397 306 l 1,36,-1
 397 300 l 1,37,-1
 397 270 l 1,38,-1
 397 89 l 1,39,-1
 397 43 l 2,40,41
 397 31 397 31 390 19 c 0,42,43
 379 -3 379 -3 350 -8 c 1,44,45
 334 -14 334 -14 317 -14 c 2,46,-1
 274 -14 l 2,47,48
 261 -14 261 -14 261 -10 c 2,49,-1
 261 56 l 1,50,-1
 261 184 l 1,51,-1
 261 274 l 2,52,53
 261 304 261 304 251 317 c 0,54,55
 248 320 248 320 242 324 c 0,56,57
 241 324 241 324 239.5 325 c 128,-1,58
 238 326 238 326 237 327 c 1,59,-1
 234 327 l 2,60,61
 233 327 233 327 231.5 327.5 c 128,-1,62
 230 328 230 328 229 328 c 2,63,-1
 217 328 l 1,64,-1
 195 328 l 1,65,-1
 157 328 l 1,66,-1
 134 328 l 1,67,-1
 67 328 l 1,68,-1
 65 327 l 2,69,70
 64 326 64 326 63 325 c 128,-1,71
 62 324 62 324 62 323 c 2,72,-1
 61 321 l 2,73,74
 60 320 60 320 60 320 c 1,75,76
 60 318 60 318 59 318 c 0,77,78
 58 316 58 316 56 310 c 1,79,-1
 56 311 l 1,80,-1
 56 310 l 1,81,-1
 56 309 l 2,82,83
 56 308 l 1,84,-1
 55 306 l 1,85,-1
 55 300 l 1,86,-1
 55 270 l 1,87,-1
 55 89 l 1,88,-1
 55 43 l 2,89,90
 55 31 55 31 48 19 c 0,91,92
 35 -6 35 -6 6 -9 c 1,93,-1
 5 -10 l 2,94,95
 4 -10 4 -10 3 -10 c 0,96,97
 -15 -14 -15 -14 -25 -14 c 0,98,99
 -62 -14 -62 -14 -74 8 c 0,100,101
 -81 20 -81 20 -81 47 c 2,102,-1
 -81 133 l 1,103,-1
 -81 240 l 1,104,-1
 -81 278 l 2,105,106
 -81 304 -81 304 -90 316 c 1,107,108
 -96 322 -96 322 -100 324 c 0,109,110
 -101 324 -101 324 -102.5 325 c 128,-1,111
 -104 326 -104 326 -105 326 c 2,112,-1
 -106 326 l 1,113,114
 -110 328 -110 328 -113 328 c 0,115,116
 -123 328 -123 328 -124 332 c 0,117,118
 -125 337 -125 337 -115 342 c 0,119,120
 -105 348 -105 348 -88 352 c 0,121,122
 -70 356 -70 356 -60 356 c 0,123,124
 -22 356 -22 356 -9 332 c 0,125,126
 -4 322 -4 322 -4 293 c 2,127,-1
 -4 252 l 1,128,-1
 -4 144 l 1,129,-1
 -4 63 l 2,130,131
 -4 36 -4 36 5 25 c 0,132,133
 11 19 11 19 17 16 c 0,134,135
 18 16 18 16 18 15.5 c 128,-1,136
 18 15 18 15 19 15 c 2,137,-1
 20 15 l 1,138,-1
 21 15 l 1,139,140
 22 16 22 16 22 17 c 128,-1,141
 22 18 22 18 23 19 c 2,142,-1
 25 21 l 2,143,144
 26 22 26 22 26 22 c 1,145,146
 26 24 26 24 27 24 c 0,147,148
 28 26 28 26 30 32 c 1,149,-1
 30 33 l 1,150,-1
 30 36 l 2,151,152
 30 37 30 37 30.5 39 c 128,-1,153
 31 41 31 41 31 42 c 2,154,-1
 31 72 l 1,155,-1
 31 253 l 1,156,-1
 31 299 l 2,157,158
 31 312 31 312 37 323 c 0,159,160
 48 345 48 345 77 350 c 1,161,162
 94 356 94 356 111 356 c 2,163,-1
 199 356 l 1,164,-1
 270 356 l 2,165,166
 318 356 318 356 331 334 c 0,167,168
 338 323 338 323 338 288 c 2,169,-1
 338 160 l 1,170,-1
 338 14 l 1,171,-1
 361 14 l 1,172,-1
 362 15 l 1,173,-1
 363 15 l 1,174,175
 364 16 364 16 364 17 c 128,-1,176
 364 18 364 18 365 19 c 2,177,-1
 367 21 l 2,178,179
 368 22 368 22 368 22 c 1,180,181
 368 24 368 24 369 24 c 0,182,183
 370 26 370 26 372 32 c 1,184,-1
 371 31 l 2,185,186
 372 31 372 31 372 32 c 2,187,-1
 372 33 l 1,188,-1
 372 36 l 2,189,190
 372 37 372 37 372.5 39 c 128,-1,191
 373 41 373 41 373 42 c 2,192,-1
 373 72 l 1,193,-1
 373 253 l 1,194,-1
 373 299 l 2,195,196
 373 312 373 312 379 323 c 0,197,198
 390 345 390 345 419 350 c 1,199,200
 436 356 436 356 453 356 c 2,201,-1
 458 356 l 2,202,203
 559 356 559 356 584 353 c 0,204,205
 638 348 638 348 674 331 c 0,206,207
 723 308 723 308 723 267 c 0,208,209
 723 264 723 264 713 257 c 1,210,211
 706 254 706 254 694 247.5 c 128,-1,212
 682 241 682 241 676 238 c 0,213,214
 658 229 658 229 621.5 211 c 128,-1,215
 585 193 585 193 567 184 c 1,216,217
 579 183 579 183 608 179 c 0,218,219
 667 169 667 169 695 147 c 0,220,221
 715 131 715 131 720 113 c 0,222,223
 723 105 723 105 723 88 c 2,224,-1
 723 50 l 1,225,-1
 723 10 l 2,226,227
 723 7 723 7 713 0 c 128,-1,228
 703 -7 703 -7 687 -10 c 0,229,230
 669 -14 669 -14 659 -14 c 0,231,232
 645 -14 645 -14 645 -10 c 2,233,-1
 645 21 l 1,234,-1
 645 50 l 1,235,-1
 645 83 l 1,236,237
 642 99 642 99 631 113 c 1,238,239
 620 124 620 124 611 129 c 0,240,241
 609 130 609 130 591 138 c 0,242,243
 589 138 589 138 585.5 140 c 128,-1,244
 582 142 582 142 580 142 c 0,245,246
 579 142 579 142 577.5 143 c 128,-1,247
 576 144 576 144 575 144 c 2,248,-1
 573 145 l 1,249,250
 558 149 558 149 530 153 c 0,251,252
 525 154 525 154 514.5 155 c 128,-1,253
 504 156 504 156 499 156 c 1,254,-1
 498 157 l 1,255,-1
 495 157 l 1,256,-1
 491 157 l 1,257,-1
 488 157 l 2,258,259
 475 157 475 157 474 161 c 128,-1,260
 473 165 473 165 484 171 c 0,261,262
 490 174 490 174 502 180 c 128,-1,263
 514 186 514 186 521 189 c 2,264,-1
 645 251 l 1,0,1
398 310 m 0,265,-1
EndSplineSet
EndChar

StartChar: dieresis
Encoding: 168 168 74
Width: 340
Flags: W
HStem: -14 28<-28.7695 122> -14 14<-38.1689 -14.6211> 114 103<-24.7903 38.0889> 114 28<47.2507 123.781> 200 28<40.0315 130.991> 300 20G<121.5 126.5> 317 21G<121.5 123> 328 28<-28.7695 122.906> 328 14<-38.1689 -14.6211>
VStem: 132 78<20.3281 28.9531 29 101.686 228.125 319.622>
LayerCount: 2
Fore
SplineSet
-25 328 m 2,0,1
 -38 328 -38 328 -39 332 c 128,-1,2
 -40 336 -40 336 -29 342 c 0,3,4
 -4 356 -4 356 25 356 c 2,5,-1
 50 356 l 1,6,-1
 140 356 l 2,7,8
 166 356 166 356 173 354 c 0,9,10
 192 348 192 348 199 340 c 0,11,12
 204 334 204 334 208 322 c 0,13,14
 210 315 210 315 210 302 c 2,15,-1
 210 267 l 2,16,17
 210 253 210 253 201 239 c 0,18,19
 193 226 193 226 171 215 c 0,20,21
 140 200 140 200 103 200 c 2,22,-1
 43 200 l 1,23,24
 41 197 41 197 40 194 c 0,25,26
 35 170 35 170 47 154 c 1,27,28
 55 146 55 146 66 143 c 1,29,-1
 70 143 l 1,30,31
 67 142 67 142 68 142 c 2,32,-1
 73 142 l 1,33,-1
 114 142 l 1,34,-1
 152 142 l 2,35,36
 168 142 168 142 180 138 c 0,37,38
 206 129 206 129 209 103 c 0,39,40
 210 95 210 95 210 54 c 0,41,42
 210 40 210 40 191 23 c 1,43,44
 177 12 177 12 162 6 c 0,45,46
 133 -6 133 -6 108 -10 c 128,-1,47
 83 -14 83 -14 15 -14 c 2,48,-1
 -25 -14 l 2,49,50
 -38 -14 -38 -14 -39 -10 c 128,-1,51
 -40 -6 -40 -6 -29 0 c 0,52,53
 -4 14 -4 14 25 14 c 2,54,-1
 28 14 l 1,55,-1
 53 14 l 1,56,-1
 84 14 l 1,57,-1
 107 14 l 1,58,-1
 117 14 l 1,59,-1
 120 14 l 2,60,61
 121 14 121 14 122 14 c 0,62,63
 123 15 l 1,64,-1
 125 17 l 1,65,-1
 126 18 l 2,66,67
 126 19 126 19 127 20.5 c 128,-1,68
 128 22 128 22 129 23 c 0,69,70
 129 24 129 24 130 26 c 2,71,-1
 132 29 l 1,72,-1
 132 39 l 1,73,-1
 132 75 l 2,74,75
 132 92 132 92 124 102 c 1,76,77
 117 109 117 109 110 112 c 0,78,79
 109 113 109 113 107 113 c 2,80,-1
 106 113 l 2,81,82
 105 113 105 113 103.5 113.5 c 128,-1,83
 102 114 102 114 101 114 c 2,84,-1
 96 114 l 1,85,-1
 24 114 l 2,86,87
 -23 114 -23 114 -35 141 c 0,88,89
 -41 155 -41 155 -38 171 c 0,90,91
 -36 184 -36 184 -23 197 c 0,92,93
 -14 206 -14 206 14 217 c 0,94,95
 38 226 38 226 57 227 c 0,96,97
 66 228 66 228 82 228 c 2,98,-1
 128 228 l 1,99,100
 130 232 130 232 131 236 c 256,101,102
 132 240 132 240 132 249 c 2,103,-1
 132 282 l 2,104,105
 132 308 132 308 121 320 c 1,106,107
 122 319 122 319 122.5 318 c 128,-1,108
 123 317 123 317 123 317 c 1,109,110
 120 320 120 320 114 324 c 0,111,112
 113 324 113 324 111.5 325 c 128,-1,113
 110 326 110 326 109 327 c 1,114,-1
 107 327 l 2,115,116
 106 327 106 327 104.5 327.5 c 128,-1,117
 103 328 103 328 102 328 c 2,118,-1
 100 328 l 1,119,-1
 86 328 l 1,120,-1
 42 328 l 1,121,-1
 -25 328 l 2,0,1
119 12 m 2,122,123
 120 13 l 2,124,-1
 116 11 l 2,125,126
 117 11 117 11 119 12 c 2,122,123
EndSplineSet
EndChar

StartChar: macron
Encoding: 175 175 75
Width: 0
Flags: W
HStem: -271 71.5<-213.611 -145.892> -271 29<-302.457 -218.251> -100 29<-294.749 -101.117>
VStem: -381 78<-238.075 -112.345> -98 24<-325.685 -102.232> -39 78<-325.555 5.625>
LayerCount: 2
Fore
SplineSet
-62 -326 m 1,0,1
 -39 -317 -39 -317 -39 -279 c 2,2,-1
 -39 10 l 2,3,4
 -39 13 -39 13 -33.5 14 c 128,-1,5
 -28 15 -28 15 -20 14 c 128,-1,6
 -12 13 -12 13 -6.5 12 c 128,-1,7
 -1 11 -1 11 3 10 c 0,8,9
 39 0 39 0 39 -10 c 2,10,-1
 39 -309 l 2,11,12
 39 -340 39 -340 12.5 -350 c 128,-1,13
 -14 -360 -14 -360 -46 -351 c 1,14,15
 -68 -350 -68 -350 -82.5 -337 c 128,-1,16
 -97 -324 -97 -324 -98 -301 c 0,17,18
 -99 -299 -99 -299 -98 -221 c 128,-1,19
 -97 -143 -97 -143 -97 -140 c 0,20,21
 -97 -109 -97 -109 -113 -100 c 1,22,-1
 -273 -100 l 1,23,24
 -287 -101 -287 -101 -295 -112 c 128,-1,25
 -303 -123 -303 -123 -303 -140 c 2,26,-1
 -303 -218 l 2,27,28
 -303 -233 -303 -233 -299 -242 c 1,29,-1
 -240 -242 l 1,30,31
 -226 -240 -226 -240 -218 -229.5 c 128,-1,32
 -210 -219 -210 -219 -210 -203 c 0,33,34
 -210 -200 -210 -200 -204.5 -199.5 c 128,-1,35
 -199 -199 -199 -199 -191 -200 c 128,-1,36
 -183 -201 -183 -201 -177.5 -202 c 128,-1,37
 -172 -203 -172 -203 -168 -204 c 0,38,39
 -132 -214 -132 -214 -132 -224 c 0,40,41
 -133 -243 -133 -243 -145.5 -255.5 c 128,-1,42
 -158 -268 -158 -268 -178 -270 c 0,43,44
 -183 -271 -183 -271 -214 -271 c 2,45,-1
 -258 -271 l 2,46,47
 -299 -271 -299 -271 -328 -261 c 0,48,49
 -353 -252 -353 -252 -367 -238.5 c 128,-1,50
 -381 -225 -381 -225 -381 -199 c 2,51,-1
 -381 -120 l 2,52,53
 -381 -100 -381 -100 -368.5 -87 c 128,-1,54
 -356 -74 -356 -74 -338 -72 c 0,55,56
 -331 -71 -331 -71 -303 -71 c 2,57,-1
 -154 -71 l 2,58,59
 -138 -71 -138 -71 -121 -77 c 1,60,61
 -104 -79 -104 -79 -90.5 -89 c 128,-1,62
 -77 -99 -77 -99 -75 -116 c 0,63,64
 -74 -122 -74 -122 -74 -159 c 0,65,66
 -74 -213 -74 -213 -74 -297 c 0,67,68
 -74 -316 -74 -316 -62 -326 c 1,0,1
-62 -326 m 0,69,-1
EndSplineSet
EndChar

StartChar: uni00B2
Encoding: 178 178 76
Width: 509
Flags: W
HStem: -14 18<291 293.984> 6 1<294.436 295 296 297> 13 1<314 318> 142 43<233.031 279.969> 153 4<153.808 155> 157 14<133.449 156> 236 50G<289 295.5 302 312.5> 267 17G<283 287 304 305> 314 1<233.031 234> 324 4<153.808 155> 328 28<142.2 156> 328 14<133.449 156>
VStem: -38 77<24.3157 319.589> 294 1<7 7.99951> 302 1<20.0623 22.1406> 304 77<25.3489 114.405 251.051 285.406>
LayerCount: 2
Fore
SplineSet
146 328 m 2,0,1
 134 328 134 328 133 332 c 0,2,3
 132 337 132 337 142 342 c 0,4,5
 167 356 167 356 197 356 c 0,6,7
 220 356 220 356 242 353 c 0,8,9
 296 348 296 348 332 331 c 0,10,11
 381 308 381 308 381 267 c 0,12,13
 381 264 381 264 371 257 c 1,14,15
 364 254 364 254 352 247.5 c 128,-1,16
 340 241 340 241 334 238 c 2,17,-1
 200 171 l 1,18,19
 200 174 200 174 199 178 c 128,-1,20
 198 182 198 182 197 185 c 1,21,22
 269 185 269 185 323 163 c 0,23,24
 375 142 375 142 380 105 c 0,25,26
 381 99 381 99 381 68 c 0,27,28
 381 36 381 36 373 25 c 128,-1,29
 365 14 365 14 350 6 c 0,30,31
 324 -7 324 -7 299 -11 c 0,32,33
 284 -14 284 -14 269 -14 c 2,34,-1
 183 -14 l 1,35,-1
 49 -14 l 2,36,37
 4 -14 4 -14 -8 -10 c 0,38,39
 -35 -1 -35 -1 -38 24 c 1,40,-1
 -38 49 l 1,41,-1
 -38 183 l 1,42,-1
 -38 274 l 2,43,44
 -38 307 -38 307 -50 320 c 2,45,-1
 -49 319 l 2,46,47
 -48 318 -48 318 -48 317 c 1,48,49
 -55 324 -55 324 -59 326 c 0,50,51
 -60 327 -60 327 -63 327 c 2,52,-1
 -62 327 l 1,53,-1
 -64 327 l 2,54,55
 -65 327 -65 327 -66.5 327.5 c 128,-1,56
 -68 328 -68 328 -69 328 c 2,57,-1
 -68 328 l 2,58,59
 -80 328 -80 328 -81 332 c 0,60,61
 -82 337 -82 337 -72 342 c 0,62,63
 -62 348 -62 348 -45 352 c 0,64,65
 -27 356 -27 356 -17 356 c 0,66,67
 10 356 10 356 21 347 c 0,68,69
 30 339 30 339 35 327 c 0,70,71
 39 315 39 315 39 308 c 2,72,-1
 39 177 l 1,73,-1
 39 92 l 1,74,-1
 39 57 l 2,75,76
 39 34 39 34 49 24 c 2,77,-1
 47 26 l 2,78,79
 53 20 53 20 57 18 c 0,80,81
 58 18 58 18 60 17 c 128,-1,82
 62 16 62 16 63 16 c 128,-1,83
 64 16 64 16 64 15.5 c 128,-1,84
 64 15 64 15 65 15 c 2,85,-1
 64 16 l 1,86,87
 70 14 70 14 72 14 c 2,88,-1
 74 14 l 1,89,-1
 68 14 l 1,90,-1
 97 14 l 1,91,-1
 231 14 l 1,92,-1
 318 14 l 1,93,-1
 325 14 l 2,94,95
 322 14 322 14 319 14 c 2,96,-1
 321 14 l 1,97,-1
 322 14 l 1,98,-1
 321 14 l 1,99,-1
 320 14 l 1,100,-1
 318 13 l 1,101,-1
 315 13 l 1,102,-1
 314 13 l 1,103,-1
 308 11 l 1,104,-1
 310 12 l 1,105,-1
 300 8 l 2,106,107
 301 9 301 9 302 9 c 0,108,109
 304 10 304 10 301 9 c 0,110,111
 296 7 l 1,112,-1
 297 7 l 1,113,114
 293 6 293 6 293 6 c 2,115,116
 296 7 296 7 295 7 c 1,117,118
 296 7 296 7 291 4 c 1,119,120
 292 4 292 4 293 5 c 128,-1,121
 294 6 294 6 294 6 c 1,122,123
 294 8 294 8 295 8 c 1,124,-1
 295 7 l 1,125,126
 297 9 297 9 298 11 c 0,127,128
 302 19 302 19 303 23 c 1,129,130
 303 22 303 22 302 20 c 1,131,132
 304 28 304 28 304 45 c 2,133,-1
 304 72 l 2,134,135
 304 96 304 96 287 115 c 1,136,-1
 289 113 l 2,137,138
 277 125 277 125 270 129 c 0,139,140
 268 130 268 130 250 138 c 0,141,142
 248 138 248 138 244 140 c 128,-1,143
 240 142 240 142 238 142 c 0,144,145
 237 142 237 142 235.5 143 c 128,-1,146
 234 144 234 144 233 144 c 1,147,148
 234 144 234 144 231 145 c 0,149,150
 216 149 216 149 188 153 c 0,151,152
 179 155 179 155 153 157 c 1,153,154
 155 157 155 157 158 156 c 2,155,-1
 156 157 l 1,156,-1
 154 157 l 1,157,-1
 149 157 l 1,158,-1
 146 157 l 2,159,160
 134 157 134 157 133 161 c 0,161,162
 132 166 132 166 142 171 c 0,163,164
 148 174 148 174 161 180 c 128,-1,165
 174 186 174 186 180 189 c 0,166,167
 202 200 202 200 246.5 222.5 c 128,-1,168
 291 245 291 245 313 256 c 1,169,170
 312 254 312 254 309 251 c 128,-1,171
 306 248 306 248 304 246 c 1,172,173
 304 267 304 267 287 286 c 1,174,-1
 289 284 l 2,175,176
 277 296 277 296 270 300 c 0,177,178
 268 301 268 301 250 309 c 0,179,180
 248 310 248 310 244 311 c 128,-1,181
 240 312 240 312 238 313 c 0,182,183
 237 314 237 314 235.5 314 c 128,-1,184
 234 314 234 314 233 315 c 1,185,186
 234 315 234 315 231 316 c 0,187,188
 216 320 216 320 188 324 c 0,189,190
 179 326 179 326 153 328 c 1,191,192
 155 328 155 328 158 327 c 2,193,-1
 156 328 l 1,194,-1
 154 328 l 1,195,-1
 149 328 l 1,196,-1
 146 328 l 2,0,1
EndSplineSet
EndChar

StartChar: periodcentered
Encoding: 183 183 78
Width: 252
Flags: W
HStem: 328 28<-28.7695 45.5> 328 14<-38.1689 -14.6211> 334 107<47.1758 106.474>
VStem: 47 77<356.578 433.412>
LayerCount: 2
Fore
SplineSet
43 356 m 1,0,1
 47 363 47 363 47 390 c 2,2,-1
 47 417 l 2,3,4
 47 425 47 425 67 432.5 c 128,-1,5
 87 440 87 440 104 441 c 128,-1,6
 121 442 121 442 124 438 c 1,7,-1
 124 412 l 2,8,9
 124 384 124 384 121 375 c 0,10,11
 111 348 111 348 57 334 c 0,12,13
 34 328 34 328 11 328 c 2,14,-1
 -25 328 l 2,15,16
 -38 328 -38 328 -39 332 c 128,-1,17
 -40 336 -40 336 -29 342 c 0,18,19
 -4 356 -4 356 25 356 c 2,20,-1
 43 356 l 1,0,1
EndSplineSet
EndChar

StartChar: uni00B9
Encoding: 185 185 79
Width: 594
Flags: W
HStem: -9 25<45.6841 47 281 291.937> 74 19<111.156 236.318> 157 28<39.8386 303 381 456.8> 171 14<442.542 465.551> 242 21G<-32 -10> 328 28<53.324 294.75>
VStem: -39 78<18.2864 155.464 250.438 307.242> 73 26<15.2188 21.9998 22.0002 31.9998 32.0002 70.9844> 244 24<15.2745 58> 303 78<22.1252 157 185 315.682>
LayerCount: 2
Fore
SplineSet
64 328 m 1,0,1
 39 303 39 303 39 267 c 0,2,3
 39 264 39 264 29 257 c 0,4,5
 5 242 5 242 -25 242 c 0,6,7
 -39 242 -39 242 -39 246 c 0,8,9
 -39 291 -39 291 -6 318 c 128,-1,10
 27 345 27 345 75 353 c 0,11,12
 93 356 93 356 128 356 c 2,13,-1
 323 356 l 2,14,15
 375 356 375 356 380 319 c 0,16,17
 381 311 381 311 381 296 c 2,18,-1
 381 185 l 1,19,-1
 453 185 l 2,20,21
 465 185 465 185 466 181 c 0,22,23
 467 176 467 176 457 171 c 0,24,25
 432 157 432 157 402 157 c 2,26,-1
 381 157 l 1,27,-1
 381 95 l 2,28,29
 381 84 381 84 380.5 63 c 128,-1,30
 380 42 380 42 380 32 c 0,31,32
 380 -14 380 -14 325 -14 c 0,33,34
 311 -14 311 -14 293 -9 c 1,35,36
 273 -8 273 -8 258.5 5.5 c 128,-1,37
 244 19 244 19 244 41 c 2,38,-1
 244 44 l 2,39,40
 244 50 244 50 243 52 c 0,41,42
 243 54 243 54 241 56 c 1,43,-1
 241 58 l 1,44,-1
 240 58 l 1,45,46
 238 62 238 62 237 63 c 1,47,48
 237 74 237 74 210 74 c 2,49,-1
 137 74 l 1,50,-1
 121 74 l 2,51,52
 116 74 116 74 111 71 c 1,53,-1
 110 70 l 2,54,55
 101 61 101 61 101 59 c 1,56,57
 99 57 99 57 99 55 c 2,58,-1
 99 53 l 1,59,60
 97 47 97 47 97 44 c 0,61,62
 97 22 97 22 82.5 7.5 c 128,-1,63
 68 -7 68 -7 48 -9 c 1,64,-1
 47 -10 l 2,65,66
 46 -10 46 -10 45 -10 c 0,67,68
 27 -14 27 -14 17 -14 c 0,69,70
 -4 -14 -4 -14 -19.5 -4.5 c 128,-1,71
 -35 5 -35 5 -38 22 c 0,72,73
 -39 27 -39 27 -39 54 c 2,74,-1
 -39 101 l 2,75,76
 -39 139 -39 139 -22 156 c 0,77,78
 -8 170 -8 170 29 179 c 0,79,80
 57 185 57 185 72 185 c 2,81,-1
 303 185 l 1,82,-1
 303 272 l 2,83,84
 303 306 303 306 295 316 c 1,85,86
 287 324 287 324 278 327 c 1,87,-1
 275 327 l 2,88,89
 274 327 274 327 272 327.5 c 128,-1,90
 270 328 270 328 269 328 c 2,91,-1
 64 328 l 1,0,1
268 46 m 1,92,-1
 268 38 l 2,93,94
 268 34 268 34 272 26 c 0,95,96
 274 24 274 24 274 23 c 0,97,98
 275 22 275 22 277 19 c 128,-1,99
 279 16 279 16 280 15 c 1,100,-1
 281 16 l 1,101,-1
 282 16 l 1,102,103
 284 17 284 17 287 19 c 128,-1,104
 290 21 290 21 292 22 c 0,105,106
 296 26 296 26 298.5 31 c 128,-1,107
 301 36 301 36 302 42.5 c 128,-1,108
 303 49 303 49 303 52.5 c 128,-1,109
 303 56 303 56 303 64.5 c 128,-1,110
 303 73 303 73 303 75 c 2,111,-1
 303 157 l 1,112,-1
 43 157 l 1,113,114
 39 145 39 145 39 134 c 2,115,-1
 39 57 l 2,116,117
 39 27 39 27 57 18 c 0,118,119
 58 18 58 18 59.5 17 c 128,-1,120
 61 16 61 16 62 16 c 2,121,-1
 63 16 l 1,122,-1
 63 15 l 1,123,124
 64 16 64 16 65.5 18 c 128,-1,125
 67 20 67 20 68 21 c 0,126,127
 68 22 68 22 68.5 22 c 128,-1,128
 69 22 69 22 69 23 c 0,129,130
 71 25 71 25 71 27 c 1,131,132
 72 28 72 28 72 31 c 0,133,134
 72 32 72 32 72.5 32 c 128,-1,135
 73 32 73 32 73 33 c 2,136,-1
 73 39 l 2,137,138
 73 40 73 40 73.5 41 c 128,-1,139
 74 42 74 42 74 43 c 0,140,141
 76 66 76 66 92.5 79.5 c 128,-1,142
 109 93 109 93 133 93 c 2,143,-1
 207 93 l 2,144,145
 239 93 239 93 252 80 c 0,146,147
 266 67 266 67 268 46 c 1,92,-1
EndSplineSet
EndChar

StartChar: uni0259
Encoding: 601 601 81
Width: 0
Flags: W
HStem: -14 18.5<-93.0205 -63.2866> 286 14<14.2556 38.1689>
VStem: -96 191
LayerCount: 2
Fore
SplineSet
-28 1 m 0,0,1
 -60 -14 -60 -14 -82 -14 c 0,2,3
 -95 -14 -95 -14 -96 -10 c 128,-1,4
 -97 -6 -97 -6 -86 0 c 0,5,6
 -84 2 -84 2 -78 4.5 c 128,-1,7
 -72 7 -72 7 -70 9 c 128,-1,8
 -68 11 -68 11 -62 14 c 128,-1,9
 -56 17 -56 17 -54 19 c 0,10,11
 -54 20 -54 20 -52 21 c 2,12,-1
 -50 22 l 2,13,14
 -48 23 -48 23 -45 25 c 128,-1,15
 -42 27 -42 27 -40 28 c 0,16,17
 -32 34 -32 34 -20 44 c 0,18,19
 -18 46 -18 46 -15 49 c 128,-1,20
 -12 52 -12 52 -10 53 c 2,21,-1
 -8 55 l 1,22,-1
 -4 59 l 2,23,24
 12 76 12 76 17 94 c 0,25,26
 24 121 24 121 7 141 c 0,27,28
 0 149 0 149 -17 155 c 0,29,30
 -17 156 -17 156 -18 156 c 2,31,-1
 -19 156 l 2,32,33
 -20 156 -20 156 -21 156.5 c 128,-1,34
 -22 157 -22 157 -23 157 c 2,35,-1
 -26 157 l 2,36,37
 -28 157 -28 157 -31.5 157.5 c 128,-1,38
 -35 158 -35 158 -36 158 c 0,39,40
 -49 160 -49 160 -59 164 c 0,41,42
 -82 172 -82 172 -91 194 c 0,43,44
 -104 227 -104 227 -87 253 c 0,45,46
 -72 277 -72 277 -31 289 c 1,47,48
 2 300 2 300 26 300 c 0,49,50
 38 300 38 300 39 296 c 128,-1,51
 40 292 40 292 29 286 c 0,52,53
 10 276 10 276 -7 273 c 1,54,55
 -13 266 -13 266 -16 255 c 0,56,57
 -23 223 -23 223 -6 202 c 1,58,59
 1 195 1 195 11 190 c 0,60,61
 12 190 12 190 14 189 c 128,-1,62
 16 188 16 188 17 188 c 128,-1,63
 18 188 18 188 20 187 c 128,-1,64
 22 186 22 186 23 186 c 2,65,-1
 25 186 l 2,66,67
 27 186 27 186 30.5 185.5 c 128,-1,68
 34 185 34 185 36 185 c 0,69,70
 57 183 57 183 70 174 c 0,71,72
 93 158 93 158 95 132 c 1,73,74
 96 105 96 105 80 84 c 0,75,76
 63 62 63 62 37 42 c 0,77,78
 6 17 6 17 -28 1 c 0,0,1
EndSplineSet
EndChar

StartChar: uni0294
Encoding: 660 660 82
Width: 508
Flags: W
VStem: -39 77<56.6304 290.995> 303 77<48.865 289.471>
LayerCount: 2
Fore
SplineSet
-39 75 m 2,0,-1
 -39 225 l 2,1,2
 -39 268 -39 268 -17 291 c 0,3,4
 21 330 21 330 103 347 c 0,5,6
 190 366 190 366 273 350 c 0,7,8
 370 332 370 332 380 272 c 1,9,-1
 380 245 l 1,10,-1
 380 96 l 2,11,12
 380 86 380 86 375 74 c 0,13,14
 362 45 362 45 325 25 c 0,15,16
 259 -10 259 -10 158 -14 c 1,17,18
 3 -18 3 -18 -32 51 c 0,19,20
 -39 63 -39 63 -39 75 c 2,0,-1
38 118 m 2,21,22
 38 76 38 76 56 56 c 0,23,24
 75 36 75 36 114 24 c 1,25,26
 199 1 199 1 260 21 c 0,27,28
 275 26 275 26 288 42 c 0,29,30
 303 59 303 59 303 75 c 2,31,-1
 303 222 l 1,32,-1
 303 250 l 1,33,34
 300 267 300 267 286 285 c 1,35,36
 240 334 240 334 122 327 c 1,37,-1
 120 327 l 1,38,39
 98 325 98 325 88 323 c 1,40,-1
 85 322 l 1,41,-1
 83 322 l 1,42,-1
 80 320 l 1,43,44
 65 315 65 315 54 301 c 1,45,46
 38 283 38 283 38 267 c 2,47,-1
 38 118 l 2,21,22
EndSplineSet
EndChar

StartChar: uni2010
Encoding: 8208 8208 83
Width: 509
Flags: W
HStem: 157 14<-38.1689 -14.6211> 171 14<356.621 380.169>
LayerCount: 2
Fore
SplineSet
-25 157 m 2,0,1
 -38 157 -38 157 -39 161 c 128,-1,2
 -40 165 -40 165 -29 171 c 0,3,4
 -4 185 -4 185 25 185 c 2,5,-1
 68 185 l 1,6,-1
 252 185 l 1,7,-1
 367 185 l 2,8,9
 380 185 380 185 381 181 c 128,-1,10
 382 177 382 177 371 171 c 0,11,12
 346 157 346 157 317 157 c 2,13,-1
 274 157 l 1,14,-1
 90 157 l 1,15,-1
 -25 157 l 2,0,1
EndSplineSet
EndChar

StartChar: endash
Encoding: 8211 8211 86
Width: 680
Flags: W
HStem: 157 14<-38.1689 -4.87207> 171 14<527.621 551.169>
LayerCount: 2
Fore
SplineSet
-25 157 m 2,0,1
 -38 157 -38 157 -39 161 c 128,-1,2
 -40 165 -40 165 -29 171 c 0,3,4
 -22 174 -22 174 -13.5 176 c 128,-1,5
 -5 178 -5 178 6.5 180.5 c 128,-1,6
 18 183 18 183 25 185 c 1,7,-1
 89 185 l 1,8,-1
 267 185 l 1,9,-1
 453 185 l 1,10,-1
 538 185 l 2,11,12
 551 185 551 185 552 181 c 128,-1,13
 553 177 553 177 542 171 c 0,14,15
 517 157 517 157 488 157 c 2,16,-1
 424 157 l 1,17,-1
 246 157 l 1,18,-1
 60 157 l 1,19,-1
 -25 157 l 2,0,1
EndSplineSet
EndChar

StartChar: emdash
Encoding: 8212 8212 87
Width: 851
Flags: W
HStem: 157 14<-38.1689 -14.6211> 171 14<698.621 722.169>
LayerCount: 2
Fore
SplineSet
-25 157 m 2,0,1
 -38 157 -38 157 -39 161 c 128,-1,2
 -40 165 -40 165 -29 171 c 0,3,4
 -4 185 -4 185 25 185 c 2,5,-1
 27 185 l 1,6,-1
 110 185 l 1,7,-1
 281 185 l 1,8,-1
 479 185 l 1,9,-1
 642 185 l 1,10,-1
 709 185 l 2,11,12
 722 185 722 185 723 181 c 128,-1,13
 724 177 724 177 713 171 c 0,14,15
 688 157 688 157 659 157 c 2,16,-1
 657 157 l 1,17,-1
 574 157 l 1,18,-1
 403 157 l 1,19,-1
 205 157 l 1,20,-1
 42 157 l 1,21,-1
 -25 157 l 2,0,1
EndSplineSet
EndChar

StartChar: quotedblleft
Encoding: 8220 8220 90
Width: 218
Flags: W
HStem: 442 170
VStem: -37 159
LayerCount: 2
Fore
SplineSet
35 460 m 0,0,1
 13 445 13 445 -17 442 c 0,2,3
 -31 440 -31 440 -37 443 c 0,4,5
 -44 446 -44 446 -35 452 c 0,6,7
 -21 462 -21 462 8 481 c 128,-1,8
 37 500 37 500 51 509 c 0,9,10
 71 522 71 522 103 526 c 0,11,12
 117 528 117 528 122 525 c 0,13,14
 128 522 128 522 120 517 c 0,15,16
 106 508 106 508 77.5 489 c 128,-1,17
 49 470 49 470 35 460 c 0,0,1
35 545 m 0,18,19
 15 532 15 532 -17 528 c 0,20,21
 -31 526 -31 526 -37 529 c 128,-1,22
 -43 532 -43 532 -35 537 c 0,23,24
 -21 546 -21 546 8 565 c 128,-1,25
 37 584 37 584 51 594 c 0,26,27
 73 609 73 609 103 612 c 0,28,29
 117 614 117 614 122 611 c 0,30,31
 129 608 129 608 120 602 c 0,32,33
 106 592 106 592 77.5 573 c 128,-1,34
 49 554 49 554 35 545 c 0,18,19
EndSplineSet
EndChar

StartChar: quotedblright
Encoding: 8221 8221 91
Width: 220
Flags: W
HStem: -270 170
VStem: -35 159
LayerCount: 2
Fore
SplineSet
37 -167 m 0,0,1
 15 -182 15 -182 -15 -185 c 0,2,3
 -29 -187 -29 -187 -35 -184 c 0,4,5
 -42 -181 -42 -181 -33 -175 c 0,6,7
 -19 -166 -19 -166 10 -147 c 128,-1,8
 39 -128 39 -128 53 -118 c 0,9,10
 75 -103 75 -103 105 -100 c 0,11,12
 119 -98 119 -98 124 -101 c 0,13,14
 131 -104 131 -104 122 -110 c 0,15,16
 108 -119 108 -119 79.5 -138.5 c 128,-1,17
 51 -158 51 -158 37 -167 c 0,0,1
37 -252 m 0,18,19
 15 -267 15 -267 -15 -270 c 0,20,21
 -29 -272 -29 -272 -35 -269 c 128,-1,22
 -41 -266 -41 -266 -33 -261 c 0,23,24
 -19 -252 -19 -252 10 -233 c 128,-1,25
 39 -214 39 -214 53 -204 c 0,26,27
 75 -189 75 -189 105 -186 c 0,28,29
 119 -184 119 -184 124 -187 c 0,30,31
 130 -190 130 -190 122 -195 c 0,32,33
 108 -204 108 -204 79.5 -223 c 128,-1,34
 51 -242 51 -242 37 -252 c 0,18,19
EndSplineSet
EndChar

StartChar: exclamdbl
Encoding: 8252 8252 92
Width: 637
Flags: W
HStem: 413 29<40.0002 302.268>
VStem: -39 78<335.55 408.559> 303 78<446.441 519.45>
LayerCount: 2
Fore
SplineSet
39 352 m 2,0,1
 39 349 39 349 29 342 c 0,2,3
 7 328 7 328 -25 328 c 0,4,5
 -39 328 -39 328 -39 332 c 2,6,-1
 -39 368 l 2,7,8
 -39 395 -39 395 -25 409 c 128,-1,9
 -11 423 -11 423 15 431 c 1,10,11
 46 442 46 442 69 442 c 2,12,-1
 299 442 l 1,13,14
 300 443 300 443 301 444.5 c 128,-1,15
 302 446 302 446 302 447 c 0,16,17
 303 452 303 452 303 477 c 2,18,-1
 303 503 l 2,19,20
 303 506 303 506 313 513 c 0,21,22
 335 527 335 527 367 527 c 0,23,24
 381 527 381 527 381 523 c 2,25,-1
 381 487 l 2,26,27
 381 460 381 460 367 446 c 128,-1,28
 353 432 353 432 327 424 c 1,29,30
 296 413 296 413 273 413 c 2,31,-1
 43 413 l 1,32,33
 42 412 42 412 41 410.5 c 128,-1,34
 40 409 40 409 40 408 c 0,35,36
 39 403 39 403 39 378 c 2,37,-1
 39 352 l 2,0,1
41 418 m 1,38,-1
 40 418 l 1,39,-1
 41 418 l 1,38,-1
301 437 m 1,40,-1
 302 437 l 1,41,-1
 301 437 l 1,40,-1
EndSplineSet
EndChar

StartChar: uniA737
Encoding: 42807 42807 94
Width: 0
Flags: W
HStem: -14 32<-89 130>
VStem: -210 77<28.7822 106.805>
LayerCount: 2
Fore
SplineSet
-73 153 m 0,0,1
 -97 145 -97 145 -115 120.5 c 128,-1,2
 -133 96 -133 96 -133 68 c 0,3,4
 -133 51 -133 51 -120 37 c 128,-1,5
 -107 23 -107 23 -90 19 c 1,6,-1
 -89 18 l 1,7,-1
 -85 18 l 1,8,9
 -79 16 -79 16 -78 16 c 0,10,11
 -76 16 -76 16 -73 15.5 c 128,-1,12
 -70 15 -70 15 -68 15 c 2,13,-1
 130 15 l 1,14,15
 122 72 122 72 86 112 c 1,16,17
 60 139 60 139 24 150 c 1,18,-1
 22 151 l 2,19,20
 21 151 21 151 19.5 151.5 c 128,-1,21
 18 152 18 152 17 152 c 0,22,23
 2 157 2 157 -16 157 c 2,24,-1
 -47 157 l 2,25,26
 -52 157 -52 157 -60 155 c 1,27,-1
 -63 155 l 2,28,29
 -64 155 -64 155 -66 154.5 c 128,-1,30
 -68 154 -68 154 -69 154 c 128,-1,31
 -70 154 -70 154 -71 153.5 c 128,-1,32
 -72 153 -72 153 -73 153 c 0,0,1
145 -14 m 2,33,-1
 -96 -14 l 2,34,35
 -149 -14 -149 -14 -173 -3 c 0,36,37
 -207 13 -207 13 -210 46 c 0,38,39
 -211 51 -211 51 -206 70 c 0,40,41
 -193 116 -193 116 -147 144 c 128,-1,42
 -101 172 -101 172 -41 180 c 1,43,44
 52 195 52 195 111 170 c 0,45,46
 154 152 154 152 181.5 109.5 c 128,-1,47
 209 67 209 67 209 11 c 1,48,49
 210 6 210 6 200 1 c 0,50,51
 173 -14 173 -14 145 -14 c 2,33,-1
EndSplineSet
EndChar

StartChar: gravecomb
Encoding: 768 768 95
Width: 0
Flags: W
VStem: -153 78<-120.45 -53.3599> 75 78<-120.45 -54.1443>
LayerCount: 2
Fore
SplineSet
-19 -14 m 2,0,-1
 -32 -14 l 1,1,2
 -33 -15 -33 -15 -37.5 -18.5 c 128,-1,3
 -42 -22 -42 -22 -44 -24 c 0,4,5
 -75 -55 -75 -55 -75 -104 c 0,6,7
 -75 -107 -75 -107 -85 -114 c 0,8,9
 -107 -128 -107 -128 -139 -128 c 0,10,11
 -153 -128 -153 -128 -153 -124 c 0,12,13
 -153 -109 -153 -109 -145 -83 c 0,14,15
 -129 -34 -129 -34 -85 -13 c 0,16,17
 13 35 13 35 87 3 c 0,18,19
 117 -10 117 -10 135 -40 c 128,-1,20
 153 -70 153 -70 153 -104 c 0,21,22
 153 -107 153 -107 143 -114 c 0,23,24
 121 -128 121 -128 89 -128 c 0,25,26
 75 -128 75 -128 75 -124 c 0,27,28
 75 -88 75 -88 55 -57 c 128,-1,29
 35 -26 35 -26 4 -18 c 1,30,-1
 3 -18 l 1,31,32
 2 -17 2 -17 1 -17 c 0,33,34
 -1 -16 -1 -16 -6 -16 c 1,35,36
 -14 -14 -14 -14 -19 -14 c 2,0,-1
EndSplineSet
EndChar

StartChar: acutecomb
Encoding: 769 769 96
Width: 0
Flags: W
HStem: -14 27<-21 -6 -3 14.6162>
VStem: -124 77<-91.1172 -32.696>
LayerCount: 2
Fore
SplineSet
-47 -75 m 0,0,1
 -47 -79 -47 -79 -56 -85 c 0,2,3
 -66 -91 -66 -91 -83 -95 c 0,4,5
 -106 -100 -106 -100 -111 -100 c 0,6,7
 -124 -100 -124 -100 -124 -96 c 0,8,9
 -124 -52 -124 -52 -96 -27 c 0,10,11
 -77 -9 -77 -9 -42 2 c 0,12,13
 -13 12 -13 12 13 13 c 0,14,15
 78 17 78 17 105 -19 c 0,16,17
 122 -42 122 -42 124 -74 c 0,18,19
 125 -103 125 -103 101 -147 c 0,20,21
 81 -183 81 -183 38 -232 c 0,22,23
 5 -271 5 -271 -42 -314 c 0,24,25
 -98 -366 -98 -366 -136 -395 c 0,26,27
 -142 -400 -142 -400 -158 -406 c 1,28,29
 -178 -412 -178 -412 -188 -413 c 0,30,31
 -202 -415 -202 -415 -208 -412 c 0,32,33
 -213 -410 -213 -410 -206 -403 c 0,34,35
 -204 -402 -204 -402 -201 -399 c 128,-1,36
 -198 -396 -198 -396 -196 -395 c 2,37,-1
 -142 -350 l 2,38,39
 -136 -344 -136 -344 -124 -333 c 128,-1,40
 -112 -322 -112 -322 -106 -316 c 0,41,42
 -92 -304 -92 -304 -86 -298 c 0,43,44
 -84 -296 -84 -296 -81 -292 c 128,-1,45
 -78 -288 -78 -288 -76 -287 c 0,46,47
 -75 -286 -75 -286 -73.5 -285 c 128,-1,48
 -72 -284 -72 -284 -71 -283 c 2,49,-1
 -69 -280 l 1,50,51
 -25 -235 -25 -235 3 -196 c 0,52,53
 36 -149 36 -149 44 -117 c 1,54,55
 54 -70 54 -70 25 -36 c 0,56,57
 24 -34 24 -34 14 -27 c 0,58,59
 12 -26 12 -26 8.5 -23.5 c 128,-1,60
 5 -21 5 -21 3 -20 c 0,61,62
 2 -20 2 -20 0 -19 c 128,-1,63
 -2 -18 -2 -18 -3 -18 c 2,64,-1
 -6 -17 l 2,65,66
 -8 -17 -8 -17 -11 -16 c 128,-1,67
 -14 -15 -14 -15 -16.5 -14.5 c 128,-1,68
 -19 -14 -19 -14 -21 -14 c 1,69,-1
 -23 -16 l 1,70,-1
 -27 -20 l 1,71,-1
 -28 -21 l 2,72,73
 -29 -22 -29 -22 -31.5 -25 c 128,-1,74
 -34 -28 -34 -28 -35 -30 c 0,75,76
 -41 -40 -41 -40 -44 -51 c 0,77,78
 -47 -63 -47 -63 -47 -75 c 0,0,1
EndSplineSet
EndChar

StartChar: uni0302
Encoding: 770 770 97
Width: 0
Flags: W
HStem: -128 28<-142.77 -82 88.5488 216 218 254> -128 14<-152.169 -129.124>
VStem: -39 78<-61.75 6.30859> 303 78<-177.309 -146.499>
LayerCount: 2
Fore
SplineSet
381 -161 m 0,0,1
 381 -164 381 -164 371 -171 c 128,-1,2
 361 -178 361 -178 345 -181 c 0,3,4
 327 -185 327 -185 317 -185 c 0,5,6
 303 -185 303 -185 303 -181 c 0,7,8
 303 -169 303 -169 292 -156 c 1,9,10
 283 -147 283 -147 277 -144 c 0,11,12
 266 -138 266 -138 255 -135 c 1,13,-1
 254 -134 l 1,14,-1
 251 -134 l 1,15,16
 247 -132 247 -132 244 -132 c 0,17,18
 242 -132 242 -132 236 -131 c 128,-1,19
 230 -130 230 -130 228 -130 c 128,-1,20
 226 -130 226 -130 223 -129.5 c 128,-1,21
 220 -129 220 -129 218 -129 c 2,22,-1
 216 -128 l 1,23,-1
 213 -128 l 1,24,-1
 191 -128 l 1,25,-1
 158 -128 l 1,26,-1
 98 -128 l 2,27,28
 52 -128 52 -128 27 -117 c 0,29,30
 6 -108 6 -108 -10 -89 c 1,31,32
 -24 -100 -24 -100 -40 -107 c 0,33,34
 -86 -128 -86 -128 -139 -128 c 0,35,36
 -152 -128 -152 -128 -153 -124 c 128,-1,37
 -154 -120 -154 -120 -143 -114 c 0,38,39
 -118 -100 -118 -100 -89 -100 c 2,40,-1
 -82 -100 l 1,41,-1
 -79 -97 l 2,42,43
 -78 -96 -78 -96 -75 -94 c 128,-1,44
 -72 -92 -72 -92 -71 -91 c 2,45,-1
 -68 -88 l 1,46,47
 -51 -69 -51 -69 -42 -38 c 1,48,49
 -39 -35 -39 -35 -39 -10 c 0,50,51
 -39 -7 -39 -7 -29 0 c 128,-1,52
 -19 7 -19 7 -3 10 c 0,53,54
 15 14 15 14 25 14 c 0,55,56
 39 14 39 14 39 10 c 0,57,58
 39 -38 39 -38 68 -70 c 1,59,60
 83 -85 83 -85 100 -92 c 0,61,62
 105 -94 105 -94 111 -96 c 0,63,64
 112 -96 112 -96 112 -96.5 c 128,-1,65
 112 -97 112 -97 113 -97 c 128,-1,66
 114 -97 114 -97 116 -97.5 c 128,-1,67
 118 -98 118 -98 119 -98 c 0,68,69
 127 -100 127 -100 131 -100 c 2,70,-1
 136 -100 l 1,71,-1
 139 -100 l 1,72,-1
 244 -100 l 2,73,74
 295 -100 295 -100 325 -109 c 0,75,76
 350 -116 350 -116 363 -129 c 0,77,78
 381 -147 381 -147 381 -161 c 0,0,1
EndSplineSet
EndChar

StartChar: tildecomb
Encoding: 771 771 98
Width: 0
Flags: W
VStem: -151 303
LayerCount: 2
Fore
SplineSet
29 -290 m 1,0,1
 78 -284 78 -284 75 -223 c 0,2,3
 70 -120 70 -120 -1 -44 c 1,4,-1
 -9 -36 l 1,5,6
 -54 -91 -54 -91 -68 -151 c 0,7,8
 -87 -228 -87 -228 -61 -258 c 1,9,10
 -34 -287 -34 -287 23 -290 c 1,11,-1
 29 -290 l 1,0,1
17 14 m 0,12,13
 31 17 31 17 37 13 c 0,14,15
 52 2 52 2 68 -14 c 0,16,17
 144 -92 144 -92 152 -194 c 0,18,19
 156 -246 156 -246 126 -271 c 0,20,21
 104 -289 104 -289 68 -301 c 0,22,23
 -18 -328 -18 -328 -86 -309 c 0,24,25
 -143 -293 -143 -293 -151 -252 c 0,26,27
 -155 -227 -155 -227 -147 -183 c 0,28,29
 -130 -97 -130 -97 -70 -35 c 0,30,31
 -48 -13 -48 -13 -35 -4 c 1,32,-1
 -34 -4 l 1,33,34
 -30 0 -30 0 -27 1 c 0,35,36
 -9 10 -9 10 17 14 c 0,12,13
EndSplineSet
EndChar

StartChar: uni0304
Encoding: 772 772 99
Width: 0
Flags: W
HStem: -18 32<-89.8235 32.1305>
VStem: -210 77<-121.296 -64.5781> 132 77<-317.25 -278.59>
LayerCount: 2
Fore
SplineSet
-45 -15 m 1,0,1
 -67 -18 -67 -18 -68 -18 c 2,2,-1
 -69 -18 l 1,3,4
 -87 -23 -87 -23 -102 -38 c 0,5,6
 -133 -67 -133 -67 -133 -104 c 0,7,8
 -133 -115 -133 -115 -156 -121.5 c 128,-1,9
 -179 -128 -179 -128 -196 -128 c 0,10,11
 -210 -128 -210 -128 -210 -124 c 0,12,13
 -210 -101 -210 -101 -195 -75 c 0,14,15
 -170 -32 -170 -32 -113.5 -10 c 128,-1,16
 -57 12 -57 12 14 14 c 0,17,18
 60 15 60 15 92.5 -1.5 c 128,-1,19
 125 -18 125 -18 161 -51 c 0,20,21
 190 -78 190 -78 209 -104 c 0,22,23
 213 -109 213 -109 194 -116 c 0,24,25
 164 -128 164 -128 146 -128 c 0,26,27
 70 -128 70 -128 28 -149 c 1,28,29
 -7 -168 -7 -168 -16 -200 c 1,30,31
 -22 -227 -22 -227 -10.5 -255.5 c 128,-1,32
 1 -284 1 -284 21 -300 c 0,33,34
 55 -328 55 -328 108 -328 c 2,35,-1
 116 -328 l 1,36,37
 132 -314 132 -314 132 -295 c 0,38,39
 132 -287 132 -287 152 -279.5 c 128,-1,40
 172 -272 172 -272 189 -271.5 c 128,-1,41
 206 -271 206 -271 209 -275 c 1,42,-1
 209 -280 l 1,43,44
 201 -323 201 -323 139 -343 c 0,45,46
 41 -373 41 -373 -30 -339 c 0,47,48
 -59 -325 -59 -325 -77.5 -298 c 128,-1,49
 -96 -271 -96 -271 -96 -239 c 0,50,51
 -96 -213 -96 -213 -82.5 -192 c 128,-1,52
 -69 -171 -69 -171 -44 -157 c 128,-1,53
 -19 -143 -19 -143 2.5 -135 c 128,-1,54
 24 -127 24 -127 50 -120 c 0,55,56
 87 -110 87 -110 117 -106 c 1,57,-1
 109 -97 l 1,58,59
 49 -33 49 -33 -5 -17 c 0,60,61
 -20 -13 -20 -13 -45 -15 c 1,0,1
-103 -39 m 0,62,-1
EndSplineSet
EndChar

StartChar: uni0305
Encoding: 773 773 100
Width: 0
Flags: W
HStem: -299 14<-95.1689 -86> 0 14<13.6694 38.1689>
VStem: -96 191
LayerCount: 2
Fore
SplineSet
-28 -285 m 0,0,1
 -58 -299 -58 -299 -82 -299 c 0,2,3
 -95 -299 -95 -299 -96 -295 c 128,-1,4
 -97 -291 -97 -291 -86 -285 c 0,5,6
 -84 -284 -84 -284 -78 -281 c 128,-1,7
 -72 -278 -72 -278 -70 -277 c 128,-1,8
 -68 -276 -68 -276 -62 -272 c 128,-1,9
 -56 -268 -56 -268 -54 -267 c 0,10,11
 -54 -266 -54 -266 -52 -265 c 2,12,-1
 -50 -264 l 2,13,14
 -48 -263 -48 -263 -45 -260.5 c 128,-1,15
 -42 -258 -42 -258 -40 -257 c 0,16,17
 -32 -251 -32 -251 -20 -241 c 0,18,19
 -18 -240 -18 -240 -15 -237 c 128,-1,20
 -12 -234 -12 -234 -10 -233 c 2,21,-1
 -8 -231 l 1,22,-1
 -4 -227 l 2,23,24
 12 -210 12 -210 17 -192 c 0,25,26
 24 -165 24 -165 6 -144 c 0,27,28
 -2 -135 -2 -135 -16 -130 c 1,29,-1
 -17 -130 l 1,30,-1
 -19 -130 l 2,31,32
 -20 -130 -20 -130 -21 -129.5 c 128,-1,33
 -22 -129 -22 -129 -23 -129 c 256,34,35
 -24 -129 -24 -129 -26 -128 c 1,36,-1
 -36 -128 l 1,37,38
 -49 -126 -49 -126 -59 -122 c 0,39,40
 -81 -114 -81 -114 -91 -91 c 0,41,42
 -104 -58 -104 -58 -87 -32 c 0,43,44
 -72 -9 -72 -9 -31 3 c 1,45,46
 2 14 2 14 25 14 c 0,47,48
 38 14 38 14 39 10 c 128,-1,49
 40 6 40 6 29 0 c 0,50,51
 12 -9 12 -9 -7 -12 c 1,52,53
 -15 -21 -15 -21 -17 -30 c 0,54,55
 -24 -62 -24 -62 -6 -84 c 0,56,57
 -1 -89 -1 -89 11 -95 c 2,58,-1
 17 -98 l 2,59,60
 18 -98 18 -98 20 -98.5 c 128,-1,61
 22 -99 22 -99 23 -99 c 128,-1,62
 24 -99 24 -99 24 -99.5 c 128,-1,63
 24 -100 24 -100 25 -100 c 2,64,-1
 36 -100 l 1,65,66
 55 -102 55 -102 70 -112 c 0,67,68
 93 -128 93 -128 95 -154 c 1,69,70
 96 -181 96 -181 80 -202 c 0,71,72
 65 -222 65 -222 37 -243 c 0,73,74
 3 -270 3 -270 -28 -285 c 0,0,1
EndSplineSet
EndChar

StartChar: uni0306
Encoding: 774 774 101
Width: 0
Flags: W
HStem: -14 28<-130 110.5>
LayerCount: 2
Fore
SplineSet
19 -157 m 0,0,1
 48 -157 48 -157 68 -153 c 1,2,-1
 69 -153 l 1,3,4
 85 -147 85 -147 102 -132 c 0,5,6
 122 -114 122 -114 130 -84 c 1,7,8
 141 -34 141 -34 90 -18 c 1,9,-1
 89 -18 l 1,10,11
 73 -14 73 -14 63 -14 c 2,12,-1
 -130 -14 l 1,13,14
 -122 -72 -122 -72 -87 -111 c 1,15,16
 -43 -157 -43 -157 19 -157 c 0,0,1
103 -132 m 0,17,-1
-142 14 m 1,18,-1
 95 14 l 2,19,20
 149 14 149 14 173 3 c 0,21,22
 207 -13 207 -13 210 -45 c 0,23,24
 211 -51 211 -51 206 -70 c 0,25,26
 193 -116 193 -116 147 -143.5 c 128,-1,27
 101 -171 101 -171 40 -180 c 0,28,29
 -53 -195 -53 -195 -112 -170 c 0,30,31
 -188 -137 -188 -137 -206 -42 c 0,32,33
 -210 -22 -210 -22 -210 -10 c 1,34,35
 -211 -7 -211 -7 -200 0 c 0,36,37
 -175 14 -175 14 -146 14 c 2,38,-1
 -144 14 l 1,39,-1
 -142 14 l 1,18,-1
EndSplineSet
EndChar

StartChar: uni0310
Encoding: 784 784 102
Width: 0
Flags: W
HStem: -13 189
LayerCount: 2
Fore
SplineSet
68 59 m 0,0,1
 50 5 50 5 13 -6 c 0,2,3
 -7 -12 -7 -12 -17 -13 c 0,4,5
 -38 -16 -38 -16 -39 -10 c 0,6,7
 -40 -8 -40 -8 -37 -5 c 0,8,9
 -15 17 -15 17 -5 51 c 1,10,11
 5 105 5 105 -32 146 c 0,12,13
 -39 153 -39 153 -38 155 c 0,14,15
 -33 160 -33 160 -13 169 c 1,16,17
 20 178 20 178 32 176 c 0,18,19
 33 176 33 176 34.5 175.5 c 128,-1,20
 36 175 36 175 37 175 c 0,21,22
 90 122 90 122 68 59 c 0,0,1
EndSplineSet
EndChar

StartChar: uni0313
Encoding: 787 787 105
Width: 0
Flags: W
HStem: -14 14<-152.169 113.609> 0 14<-113.609 152.169>
VStem: -153 306
LayerCount: 2
Fore
SplineSet
-114 0 m 1,0,-1
 114 0 l 1,1,-1
 -114 0 l 1,0,-1
-139 -14 m 2,2,3
 -152 -14 -152 -14 -153 -10 c 128,-1,4
 -154 -6 -154 -6 -143 0 c 0,5,6
 -118 14 -118 14 -89 14 c 2,7,-1
 -3 14 l 1,8,-1
 139 14 l 2,9,10
 152 14 152 14 153 10 c 128,-1,11
 154 6 154 6 143 0 c 0,12,13
 118 -14 118 -14 89 -14 c 2,14,-1
 3 -14 l 1,15,-1
 -139 -14 l 2,2,3
EndSplineSet
EndChar

StartChar: ntilde
Encoding: 241 241 107
Width: 248
Flags: W
HStem: 328 28<-71.8 19 21 33.8752> 328 14<-80.5508 -57.542>
VStem: 43 77<-4.30859 317.621>
LayerCount: 2
Fore
SplineSet
120 12 m 2,0,1
 120 9 120 9 110 2 c 128,-1,2
 100 -5 100 -5 84 -8 c 0,3,4
 66 -12 66 -12 56 -12 c 0,5,6
 43 -12 43 -12 43 -8 c 2,7,-1
 43 59 l 1,8,-1
 43 187 l 1,9,-1
 43 277 l 2,10,11
 43 306 43 306 34 318 c 0,12,13
 30 322 30 322 27 324 c 0,14,15
 26 324 26 324 24 325 c 128,-1,16
 22 326 22 326 21 326 c 2,17,-1
 19 327 l 2,18,19
 18 327 18 327 17 327.5 c 128,-1,20
 16 328 16 328 15 328 c 2,21,-1
 9 328 l 1,22,-1
 -11 328 l 1,23,-1
 -68 328 l 2,24,25
 -80 328 -80 328 -81 332 c 0,26,27
 -82 337 -82 337 -72 342 c 0,28,29
 -47 356 -47 356 -17 356 c 2,30,-1
 57 356 l 2,31,32
 101 356 101 356 114 334 c 0,33,34
 120 323 120 323 120 290 c 2,35,-1
 120 162 l 1,36,-1
 120 12 l 2,0,1
21 327 m 1,37,-1
 22 326 l 1,38,-1
 21 327 l 1,37,-1
EndSplineSet
EndChar

StartChar: plus
Encoding: 43 43 109
Width: 346
Flags: W
HStem: 328 28<59.375 124.75> 328 16<-123.603 -106> 441 14<12.4492 35.458> 455 14<193.542 217.169>
VStem: -81 77<15.3628 324.758> 31 24<15.158 327.706> 132 78<-348.41 325.998>
LayerCount: 2
Fore
SplineSet
25 441 m 2,0,1
 13 441 13 441 12 445 c 0,2,3
 11 450 11 450 21 455 c 0,4,5
 46 469 46 469 76 469 c 2,6,-1
 204 469 l 2,7,8
 217 469 217 469 218 465 c 128,-1,9
 219 461 219 461 208 455 c 0,10,11
 183 441 183 441 153 441 c 2,12,-1
 25 441 l 2,0,1
67 328 m 1,13,14
 55 319 55 319 55 270 c 2,15,-1
 55 43 l 2,16,17
 55 22 55 22 40.5 7.5 c 128,-1,18
 26 -7 26 -7 6 -9 c 1,19,20
 -53 -25 -53 -25 -74 8 c 0,21,22
 -81 20 -81 20 -81 46 c 2,23,-1
 -81 278 l 2,24,25
 -81 317 -81 317 -106 326 c 1,26,-1
 -113 328 l 1,27,28
 -123 328 -123 328 -124 332 c 0,29,30
 -126 338 -126 338 -113 344 c 128,-1,31
 -100 350 -100 350 -84 353 c 128,-1,32
 -68 356 -68 356 -60 356 c 0,33,34
 -22 356 -22 356 -9 332 c 0,35,36
 -4 322 -4 322 -4 293 c 2,37,-1
 -4 63 l 2,38,39
 -4 20 -4 20 20 15 c 1,40,41
 27 20 27 20 30 32 c 0,42,43
 31 36 31 36 31 72 c 2,44,-1
 31 299 l 2,45,46
 31 320 31 320 44.5 333.5 c 128,-1,47
 58 347 58 347 77 350 c 1,48,49
 94 356 94 356 111 356 c 2,50,-1
 153 356 l 2,51,52
 197 356 197 356 207 326 c 0,53,54
 210 318 210 318 210 294 c 2,55,-1
 210 -332 l 2,56,57
 210 -340 210 -340 190 -347.5 c 128,-1,58
 170 -355 170 -355 152.5 -355.5 c 128,-1,59
 135 -356 135 -356 132 -352 c 1,60,-1
 132 282 l 2,61,62
 132 324 132 324 103 328 c 1,63,-1
 67 328 l 1,13,14
EndSplineSet
EndChar

StartChar: uni02B0
Encoding: 688 688 110
Width: 167
Flags: W
HStem: -14 21G<-32 -20> -14 21G<-32 -20> 336 20G<20 32> 336 20G<20 32>
VStem: -39 78<-6.30859 348.309>
LayerCount: 2
Fore
SplineSet
-39 332 m 2,0,1
 -39 335 -39 335 -29 342 c 128,-1,2
 -19 349 -19 349 -3 352 c 0,3,4
 15 356 15 356 25 356 c 0,5,6
 39 356 39 356 39 352 c 2,7,-1
 39 310 l 1,8,-1
 39 126 l 1,9,-1
 39 10 l 2,10,11
 39 7 39 7 29 0 c 128,-1,12
 19 -7 19 -7 3 -10 c 0,13,14
 -15 -14 -15 -14 -25 -14 c 0,15,16
 -39 -14 -39 -14 -39 -10 c 2,17,-1
 -39 32 l 1,18,-1
 -39 216 l 1,19,-1
 -39 332 l 2,0,1
EndSplineSet
EndChar

StartChar: uni02B2
Encoding: 690 690 111
Width: 338
Flags: W
HStem: -14 28<39 199.77> 0 14<185.621 209.169> 157 28<65 128> 328 28<-28.7695 122.906> 328 14<-38.1689 -14.6211>
VStem: -39 78<14 136.997> 132 78<185 316.65>
LayerCount: 2
Fore
SplineSet
-25 328 m 2,0,1
 -38 328 -38 328 -39 332 c 128,-1,2
 -40 336 -40 336 -29 342 c 0,3,4
 -4 356 -4 356 25 356 c 2,5,-1
 127 356 l 2,6,7
 128 356 128 356 139.5 356 c 128,-1,8
 151 356 151 356 154.5 356 c 128,-1,9
 158 356 158 356 167.5 355 c 128,-1,10
 177 354 177 354 181.5 351.5 c 128,-1,11
 186 349 186 349 192 345 c 128,-1,12
 198 341 198 341 202 335 c 0,13,14
 210 322 210 322 210 282 c 2,15,-1
 210 236 l 2,16,17
 210 225 210 225 209 219 c 0,18,19
 206 193 206 193 188 182 c 0,20,21
 149 157 149 157 93 157 c 2,22,-1
 65 157 l 1,23,-1
 63 155 l 2,24,25
 61 154 61 154 58 151 c 2,26,-1
 57 150 l 1,27,-1
 51 141 l 1,28,29
 43 127 43 127 41 120 c 0,30,31
 39 110 39 110 39 62 c 2,32,-1
 39 14 l 1,33,-1
 47 14 l 1,34,-1
 196 14 l 2,35,36
 209 14 209 14 210 10 c 128,-1,37
 211 6 211 6 200 0 c 0,38,39
 175 -14 175 -14 146 -14 c 2,40,-1
 124 -14 l 1,41,-1
 -25 -14 l 2,42,43
 -39 -14 -39 -14 -39 -10 c 2,44,-1
 -39 8 l 1,45,-1
 -39 56 l 2,46,47
 -39 77 -39 77 -38 88 c 0,48,49
 -34 120 -34 120 -17 137 c 0,50,51
 3 157 3 157 40 171 c 0,52,53
 80 185 80 185 120 185 c 2,54,-1
 128 185 l 1,55,56
 128 186 128 186 129 189 c 128,-1,57
 130 192 130 192 131 193 c 0,58,59
 132 196 132 196 132 201 c 2,60,-1
 132 221 l 1,61,-1
 132 268 l 2,62,63
 132 306 132 306 123 317 c 0,64,65
 120 320 120 320 114 324 c 0,66,67
 113 324 113 324 111.5 325 c 128,-1,68
 110 326 110 326 109 327 c 1,69,-1
 107 327 l 2,70,71
 106 327 106 327 105 327.5 c 128,-1,72
 104 328 104 328 103 328 c 2,73,-1
 102 328 l 1,74,-1
 100 328 l 1,75,-1
 86 328 l 1,76,-1
 42 328 l 1,77,-1
 -25 328 l 2,0,1
EndSplineSet
EndChar

StartChar: uni02D0
Encoding: 720 720 112
Width: 338
Flags: W
HStem: -14 28<-28.7695 130.02> -14 14<-38.1689 -14.6211> 300 20G<121.5 126.5> 317 21G<121.5 123> 328 28<-28.7695 122.906> 328 14<-38.1689 -14.6211>
VStem: 132 78<14.9126 319.621>
LayerCount: 2
Fore
SplineSet
-25 328 m 2,0,1
 -38 328 -38 328 -39 332 c 128,-1,2
 -40 336 -40 336 -29 342 c 0,3,4
 -4 356 -4 356 25 356 c 2,5,-1
 146 356 l 2,6,7
 175 356 175 356 187 349 c 0,8,9
 206 338 206 338 209 316 c 0,10,11
 210 310 210 310 210 282 c 2,12,-1
 210 102 l 1,13,-1
 210 53 l 2,14,15
 210 -1 210 -1 119 -13 c 0,16,17
 108 -14 108 -14 86 -14 c 2,18,-1
 42 -14 l 1,19,-1
 -25 -14 l 2,20,21
 -38 -14 -38 -14 -39 -10 c 128,-1,22
 -40 -6 -40 -6 -29 0 c 0,23,24
 -4 14 -4 14 25 14 c 2,25,-1
 45 14 l 1,26,-1
 128 14 l 1,27,28
 130 18 130 18 131 22 c 0,29,30
 132 29 132 29 132 42 c 2,31,-1
 132 211 l 1,32,-1
 132 281 l 2,33,34
 132 308 132 308 121 320 c 1,35,36
 122 319 122 319 122.5 318 c 128,-1,37
 123 317 123 317 123 317 c 1,38,39
 120 320 120 320 114 324 c 0,40,41
 113 324 113 324 111.5 325 c 128,-1,42
 110 326 110 326 109 327 c 1,43,-1
 107 327 l 2,44,45
 106 327 106 327 104.5 327.5 c 128,-1,46
 103 328 103 328 102 328 c 2,47,-1
 100 328 l 1,48,-1
 86 328 l 1,49,-1
 42 328 l 1,50,-1
 -25 328 l 2,0,1
EndSplineSet
EndChar

StartChar: R
Encoding: 82 82 113
Width: 338
Flags: W
HStem: -14 28<47.219 128> 157 28<40.0002 132> 328 28<-28.7695 122.906> 328 14<-38.1689 -14.6211>
VStem: -39 78<26.3152 156.604> 132 78<39.4653 157 185 316.622>
LayerCount: 2
Fore
SplineSet
-25 328 m 2,0,1
 -38 328 -38 328 -39 332 c 128,-1,2
 -40 336 -40 336 -29 342 c 0,3,4
 -4 356 -4 356 25 356 c 2,5,-1
 140 356 l 2,6,7
 167 356 167 356 172 355 c 0,8,9
 187 352 187 352 198 340 c 0,10,11
 204 333 204 333 207 323 c 0,12,13
 210 312 210 312 210 290 c 2,14,-1
 210 111 l 1,15,-1
 210 55 l 2,16,17
 210 54 210 54 207 39 c 1,18,19
 200 13 200 13 159 -3 c 0,20,21
 130 -14 130 -14 44 -14 c 0,22,23
 -3 -14 -3 -14 -18 -5 c 0,24,25
 -39 8 -39 8 -39 33 c 2,26,-1
 -39 69 l 1,27,-1
 -39 112 l 2,28,29
 -39 116 -39 116 -37 128 c 1,30,31
 -33 143 -33 143 -30 147 c 0,32,33
 -19 162 -19 162 2 171 c 0,34,35
 36 185 36 185 76 185 c 2,36,-1
 119 185 l 1,37,-1
 132 185 l 1,38,-1
 132 211 l 1,39,-1
 132 281 l 2,40,41
 132 305 132 305 123 317 c 0,42,43
 120 320 120 320 114 324 c 0,44,45
 113 324 113 324 111.5 325 c 128,-1,46
 110 326 110 326 109 327 c 1,47,-1
 107 327 l 2,48,49
 106 327 106 327 105 327.5 c 128,-1,50
 104 328 104 328 103 328 c 2,51,-1
 102 328 l 1,52,-1
 100 328 l 1,53,-1
 86 328 l 1,54,-1
 42 328 l 1,55,-1
 -25 328 l 2,0,1
128 14 m 1,56,57
 128 16 128 16 129 18 c 128,-1,58
 130 20 130 20 131 22 c 0,59,60
 132 29 132 29 132 42 c 2,61,-1
 132 157 l 1,62,-1
 80 157 l 1,63,-1
 44 157 l 1,64,-1
 43 157 l 1,65,66
 42 156 42 156 41 153 c 128,-1,67
 40 150 40 150 40 149 c 0,68,69
 39 144 39 144 39 134 c 2,70,-1
 39 95 l 1,71,-1
 39 57 l 2,72,73
 39 36 39 36 47 26 c 0,74,75
 54 18 54 18 62 16 c 1,76,-1
 63 16 l 1,77,78
 64 15 64 15 65 15 c 128,-1,79
 66 15 66 15 67.5 14.5 c 128,-1,80
 69 14 69 14 70 14 c 2,81,-1
 82 14 l 1,82,-1
 128 14 l 1,56,57
EndSplineSet
EndChar

StartChar: uni02C0
Encoding: 704 704 114
Width: 0
Flags: W
HStem: -499 29<412.654 457.724> -486 16<433.326 465.603>
VStem: -39 78<-68.6523 6.41016> 159 24<-67.8291 -27> 303 78<-446.499 -15.6831>
CounterMasks: 1 38
LayerCount: 2
Fore
SplineSet
435 -468 m 1,0,1
 445 -470 445 -470 453 -470 c 0,2,3
 465 -470 465 -470 466 -474 c 0,4,5
 468 -480 468 -480 455 -486 c 128,-1,6
 442 -492 442 -492 426 -495.5 c 128,-1,7
 410 -499 410 -499 402 -499 c 0,8,9
 366 -499 366 -499 344 -485 c 0,10,11
 305 -460 305 -460 303 -410 c 1,12,-1
 303 -303 l 1,13,-1
 303 -59 l 2,14,15
 303 -23 303 -23 280 -15 c 1,16,17
 272 -21 272 -21 269 -41.5 c 128,-1,18
 266 -62 266 -62 261 -70 c 0,19,20
 245 -95 245 -95 208 -92 c 128,-1,21
 171 -89 171 -89 162 -58 c 0,22,23
 162 -56 162 -56 161 -53 c 128,-1,24
 160 -50 160 -50 159.5 -47.5 c 128,-1,25
 159 -45 159 -45 159 -43 c 2,26,-1
 159 -41 l 1,27,28
 156 -28 156 -28 156 -27 c 2,29,-1
 155 -26 l 1,30,31
 149 -15 149 -15 137 -10.5 c 128,-1,32
 125 -6 125 -6 111 -13 c 1,33,-1
 110 -13 l 1,34,35
 97 -22 97 -22 97 -40 c 0,36,37
 97 -64 97 -64 81 -78 c 1,38,39
 78 -82 78 -82 72 -85 c 0,40,41
 55 -94 55 -94 33.5 -98 c 128,-1,42
 12 -102 12 -102 -8.5 -95.5 c 128,-1,43
 -29 -89 -29 -89 -36 -70 c 0,44,45
 -39 -62 -39 -62 -39 -38 c 2,46,-1
 -39 -10 l 2,47,48
 -39 -2 -39 -2 -19 5.5 c 128,-1,49
 1 13 1 13 18.5 13.5 c 128,-1,50
 36 14 36 14 39 10 c 1,51,-1
 39 -24 l 2,52,53
 39 -60 39 -60 62 -69 c 1,54,55
 72 -60 72 -60 74 -43 c 0,56,57
 76 -19 76 -19 87 -7 c 0,58,59
 112 19 112 19 151 6 c 0,60,61
 181 -4 181 -4 183 -40 c 1,62,-1
 183 -41 l 1,63,-1
 183 -43 l 1,64,65
 186 -74 186 -74 216 -74 c 2,66,-1
 220 -74 l 1,67,-1
 221 -74 l 1,68,69
 235 -71 235 -71 240 -63 c 1,70,-1
 241 -62 l 1,71,72
 245 -55 245 -55 246.5 -40.5 c 128,-1,73
 248 -26 248 -26 251 -19 c 0,74,75
 262 1 262 1 297 10 c 0,76,77
 328 18 328 18 352 9.5 c 128,-1,78
 376 1 376 1 380 -27 c 0,79,80
 381 -32 381 -32 381 -43 c 2,81,-1
 381 -367 l 2,82,83
 381 -451 381 -451 435 -468 c 1,0,1
EndSplineSet
EndChar

StartChar: uni0315
Encoding: 789 789 115
Width: 0
Flags: W
HStem: -1153 28<411.094 456.8> 72 29<52.3484 270.925>
VStem: -39 78<-6.41016 52.3159> 303 78<-1099.73 49.5562>
LayerCount: 2
Fore
SplineSet
381 -1043 m 2,0,1
 381 -1076 381 -1076 400.5 -1100.5 c 128,-1,2
 420 -1125 420 -1125 453 -1125 c 0,3,4
 465 -1125 465 -1125 466 -1129 c 0,5,6
 467 -1134 467 -1134 457 -1139 c 1,7,8
 423 -1160 423 -1160 380 -1153 c 128,-1,9
 337 -1146 337 -1146 317 -1113 c 0,10,11
 310 -1100 310 -1100 306 -1080.5 c 128,-1,12
 302 -1061 302 -1061 302 -1047.5 c 128,-1,13
 302 -1034 302 -1034 302.5 -1004 c 128,-1,14
 303 -974 303 -974 303 -965 c 2,15,-1
 303 -453 l 1,16,-1
 303 -50 l 1,17,-1
 303 -9 l 2,18,19
 303 23 303 23 284.5 45.5 c 128,-1,20
 266 68 266 68 236 72 c 1,21,-1
 163 72 l 1,22,-1
 66 72 l 1,23,24
 39 51 39 51 39 10 c 0,25,26
 39 2 39 2 19 -5.5 c 128,-1,27
 -1 -13 -1 -13 -18.5 -13.5 c 128,-1,28
 -36 -14 -36 -14 -39 -10 c 1,29,30
 -39 33 -39 33 -11 58 c 0,31,32
 16 82 16 82 62 93 c 0,33,34
 94 101 94 101 111 101 c 2,35,-1
 260 101 l 2,36,37
 320 101 320 101 343 85 c 0,38,39
 378 60 378 60 380 13 c 0,40,41
 380 7 380 7 380.5 -3.5 c 128,-1,42
 381 -14 381 -14 381 -20 c 2,43,-1
 381 -110 l 1,44,-1
 381 -344 l 1,45,-1
 381 -1043 l 2,0,1
EndSplineSet
EndChar

